<svg xmlns="http://www.w3.org/2000/svg" version="1.1" viewBox="0 0 3000 2000" width="3000" height="2000">
<defs/><!--ITEM: Illustration component 1--><g transform="translate(1867.5 -197.5) rotate(40.52335922586536 553.75 366.25) translate(500.0 102.5) scale(3.4511663851719816 3.4622110885286195)"><svg width="176.0274446952596" height="181.9646416382253" viewBox="144.87855530474042 29.605358361774744 176.0274446952596 181.9646416382253"><path d="m240.477 211.57a80.572 80.572 0 0 1 -73.49-47.82l21.94-9.74a56.431 56.431 0 0 0 91 17.46l16.79 17.15a80.827 80.827 0 0 1 -56.24 22.95z" fill="#ffb400"/><path d="m296.687 188.62-16.787-17.15a56.639 56.639 0 0 0 12.1-63.18 55.993 55.993 0 0 0 -21.52-24.9l12.73-20.35a80.408 80.408 0 0 1 13.53 125.58z" fill="#f04e23"/><path d="m184.4 125.19-23.87-2.56a80.4 80.4 0 0 1 122.63-59.6l-12.68 20.36a56.391 56.391 0 0 0 -86 41.81z" fill="#10294c"/><path d="m167 163.75a80.388 80.388 0 0 1 -6.47-41.11l23.87 2.55a56.335 56.335 0 0 0 4.54 28.81z" fill="#ffb400"/><path d="m7.677 73.85a47.861 47.861 0 0 1 40.18-73.85v12a35.861 35.861 0 0 0 -30.11 55.32z" fill="#10294c"/><path d="m47.857 95.7a47.721 47.721 0 0 1 -40.18-21.85l10.07-6.53a35.85 35.85 0 1 0 30.11-55.32v-12a47.85 47.85 0 0 1 0 95.7z" fill="#00aee000"/><path d="m170.827 78.34a3 3 0 0 1 -2.13-.88l-23.38-23.38h-40.84a3 3 0 0 1 0-6h42.06a3 3 0 0 1 2.12.87l24.29 24.24a3.03 3.03 0 0 1 -2.12 5.15z" fill="#00aee000"/><path d="m256.327 99.98h17.62v30h-17.62z" fill="#ffb400"/><path d="m206.977 99.98h36.3v30h-36.3z" fill="#ffb400"/><g fill="#f04e23"><path d="m35.397 54.41h24.92v16h-24.92z"/><path d="m46.837 31.63h24.92v16h-24.92z"/><path d="m23.947 31.63h12.57v16h-12.57z"/></g></svg></g><!--ITEM: Illustration component 2--><g transform="translate(712.5 95.0) rotate(6.213499557604675 825.0 125.0)  scale(2.8033572326616603 2.7664047803474605)"><svg width="588.58" height="90.37" viewBox="0.0 0.0 588.58 90.37"><g fill="#f04e23"><path d="m460.9 56.33-34.74-30.8c-1.175 2.478-3.127 4.504-5.56 5.77l35 31c1.071-2.513 2.932-4.609 5.3-5.97z"/><path d="m510.31 27.6-36.42 29c2.3 1.481 4.056 3.672 5 6.24l36.08-28.76c-2.218-1.594-3.855-3.87-4.66-6.48z"/><circle cx="259.686" cy="23.784" r="6.52"/><path d="m403.84 14.23-34.74-8.71v1c0 2.399-.694 4.747-2 6.76l35.35 8.87c-.458-2.716.014-5.506 1.34-7.92z"/><path d="m534.79 24.44c-.093 2.743-1.088 5.379-2.83 7.5l37.63 17.03c.207-2.734 1.315-5.322 3.15-7.36z"/><path d="m522.29 17.47c-3.601 0-6.52 2.919-6.52 6.52s2.919 6.52 6.52 6.52 6.52-2.919 6.52-6.52c-.005-3.599-2.921-6.515-6.52-6.52z"/><circle cx="582.06" cy="49.96" r="6.52"/><circle cx="467.14" cy="67.17" r="6.52"/><circle cx="414.85" cy="20.19" r="6.52"/><circle cx="356.63" cy="6.52" r="6.52"/><path d="m45.26 29.84-34.37 42.29c2.558.947 4.738 2.703 6.21 5l34.37-42.29c-2.558-.947-4.738-2.703-6.21-5z"/><circle cx="6.52" cy="83.85" r="6.52"/><circle cx="55.84" cy="23.17" r="6.52"/><circle cx="103.553" cy="14.803" r="6.52"/><path d="m92.808 21.107c-1.089-1.852-1.724-4.001-1.724-6.304 0-.515.041-1.02.102-1.518l-24.316 3.985c.964 1.807 1.469 3.823 1.47 5.87-.01.67-.07 1.339-.18 2z"/><path d="m344.28 4.57h-.03l-.001.005z"/><path d="m272.154 23.784c0 .421-.022.837-.063 1.247l73.499-12.571c-1.325-2.401-1.797-5.18-1.341-7.885l-73.978 12.644c1.187 1.908 1.883 4.152 1.883 6.565z"/><path d="m248.091 19.222-132.235-6.356c.099.633.165 1.276.165 1.937 0 2.178-.561 4.224-1.543 6.006l133.228 6.404c-.312-1.091-.489-2.238-.489-3.429.001-1.612.317-3.147.874-4.562z"/></g></svg></g><!--ITEM: Illustration component 3--><g transform="translate(120.0 692.5) rotate(-37.331430356323764 322.5 322.5)  scale(4.207079634473267 4.20933101004366)"><svg width="153.313" height="153.231" viewBox="0.0 0.0 153.313 153.231"><path d="m80.3 74.16 67.94 29.76a76.65 76.65 0 0 0 -67.94-103.92z" fill="#f04e23"/><path d="m72.954 68.35v-68.35a76.367 76.367 0 0 0 -50.92 22.77z" fill="#00aee0"/><path d="m75.154 79.93-.29-.15-.15-.09a3.022 3.022 0 0 1 -.5-.37l-57.08-51.04a76.65 76.65 0 1 0 128.16 82.41z" fill="#ffb400"/><path d="m124.294 114.95a4.061 4.061 0 0 0 -2.23-2.53l-37.05-16.22a4 4 0 0 0 -5.54 4.4l6.41 34.48a4 4 0 0 0 3.93 3.27h.35a44.591 44.591 0 0 0 33.63-20 4 4 0 0 0 .5-3.4z" fill="#ffb400"/></svg></g><!--ITEM: Illustration component 4--><g transform="translate(445.0 282.5) rotate(0.0 1050.0 806.25)  scale(2.378255945639864 2.3713235294117645)"><svg width="883.0" height="680.0" viewBox="0.0 0.0 883.0 680.0"><path d="m825.478 580-782.5-25a28.978 28.978 0 0 1 -28.978-28.978l-14-414.435a65.587 65.587 0 0 1 65.587-65.587h786.413a31 31 0 0 1 31 31v445.478a57.521 57.521 0 0 1 -57.522 57.522z" fill="#00aee0"/><path d="m354.5 0h190.8a13.7 13.7 0 0 1 13.7 13.7v61.3a0 0 0 0 1 0 0h-239a0 0 0 0 1 0 0v-40.5a34.5 34.5 0 0 1 34.5-34.5z" fill="#00aee0"/><path d="m662.739 641h-445.7a25.043 25.043 0 0 0 -25.039 25.043l19-2.043c0 3.692 17.308 7 21 7l426.109 9a19.892 19.892 0 0 0 19.891-19.891v-3.848a15.262 15.262 0 0 0 -15.261-15.261z" fill="#00aee0"/><path d="m521 559h42v105h-42z" fill="#00aee0"/><g fill="#04294f"><rect height="514" rx="28.978" width="858" y="66"/><rect height="81" rx="14.826" width="227" x="320" y="13"/><path d="m320 566h227v94h-227z"/><rect height="25" rx="5.522" width="472" x="192" y="655"/><circle cx="434" cy="40" r="11"/></g><path d="m434 53a13 13 0 1 1 13-13 13.015 13.015 0 0 1 -13 13zm0-22a9 9 0 1 0 9 9 9.01 9.01 0 0 0 -9-9z" fill="#fff"/><circle cx="352.5" cy="39.5" fill="#fff" r="4.5"/><circle cx="390.5" cy="39.5" fill="#fff" r="4.5"/><circle cx="480.5" cy="39.5" fill="#fff" r="4.5"/><path d="m525.174 38.261c0 1.423-4.789 2.576-10.7 2.576s-10.695-1.153-10.695-2.576 4.788-2.576 10.695-2.576 10.7 1.153 10.7 2.576z" fill="#fff"/><rect fill="#00aee0" height="427" rx="16.29" width="762.1" x="48.02" y="110"/></svg></g><!--ITEM: Illustration component 5--><g transform="translate(367.5 377.5) rotate(0.0 785.0 680.0) translate(170.0 122.5) scale(6.385747986659074 6.393982134461684)"><svg width="195.7484076433121" height="169.69080882352938" viewBox="26.62178343949045 19.15863970588235 195.7484076433121 169.69080882352938"><path d="m225.43 212.7h-205a20.449 20.449 0 0 1 -20.43-20.43v-171.84a20.449 20.449 0 0 1 20.43-20.43h205a20.449 20.449 0 0 1 20.43 20.43v171.84a20.449 20.449 0 0 1 -20.43 20.43zm-205-206.7a14.44 14.44 0 0 0 -14.43 14.43v171.84a14.45 14.45 0 0 0 14.43 14.43h205a14.45 14.45 0 0 0 14.43-14.43v-171.84a14.441 14.441 0 0 0 -14.43-14.43z" fill="#ffb400"/><rect fill="#f04e2300" height="186.7" rx="7.43" width="219.9" x="12.96" y="13"/><path d="m62.91 114.73h12v56.52h-12z" fill="#ffb400"/><path d="m62.91 101.56h12v13.17h-12z" fill="#fff"/><path d="m85.57 96.29h12v74.96h-12z" fill="#ffb400"/><path d="m85.57 68.53h12v27.76h-12z" fill="#fff"/><path d="m108.22 123.95h12v47.3h-12z" fill="#ffb400"/><path d="m108.22 86.97h12v36.98h-12z" fill="#fff"/><path d="m130.88 142.4h12v28.86h-12z" fill="#ffb400"/><path d="m130.88 114.64h12v27.76h-12z" fill="#fff"/><path d="m153.54 87.07h12v84.19h-12z" fill="#ffb400"/><path d="m153.54 50.08h12v36.98h-12z" fill="#fff"/><path d="m176.2 59.4h12v111.85h-12z" fill="#ffb400"/><g fill="#fff"><path d="m176.2 43.63h12v15.77h-12z"/><path d="m204.04 175.25h-163.31v-131.62h8v123.62h155.31z"/></g></svg></g><!--ITEM: Illustration component 6--><g transform="translate(2832.5 377.5) rotate(0.0 -785.0 680.0) translate(-642.5 122.5) scale(-6.385747986659074 6.393982134461684)"><svg width="120.9725159235669" height="169.69080882352938" viewBox="100.61468152866243 19.15863970588235 120.9725159235669 169.69080882352938"><path d="m225.43 212.7h-205a20.449 20.449 0 0 1 -20.43-20.43v-171.84a20.449 20.449 0 0 1 20.43-20.43h205a20.449 20.449 0 0 1 20.43 20.43v171.84a20.449 20.449 0 0 1 -20.43 20.43zm-205-206.7a14.44 14.44 0 0 0 -14.43 14.43v171.84a14.45 14.45 0 0 0 14.43 14.43h205a14.45 14.45 0 0 0 14.43-14.43v-171.84a14.441 14.441 0 0 0 -14.43-14.43z" fill="#ffb400"/><rect fill="#f04e2300" height="186.7" rx="7.43" width="219.9" x="12.96" y="13"/><path d="m62.91 114.73h12v56.52h-12z" fill="#ffb400"/><path d="m62.91 101.56h12v13.17h-12z" fill="#fff"/><path d="m85.57 96.29h12v74.96h-12z" fill="#ffb400"/><path d="m85.57 68.53h12v27.76h-12z" fill="#fff"/><path d="m108.22 123.95h12v47.3h-12z" fill="#ffb400"/><path d="m108.22 86.97h12v36.98h-12z" fill="#fff"/><path d="m130.88 142.4h12v28.86h-12z" fill="#ffb400"/><path d="m130.88 114.64h12v27.76h-12z" fill="#fff"/><path d="m153.54 87.07h12v84.19h-12z" fill="#ffb400"/><path d="m153.54 50.08h12v36.98h-12z" fill="#fff"/><path d="m176.2 59.4h12v111.85h-12z" fill="#ffb400"/><g fill="#fff"><path d="m176.2 43.63h12v15.77h-12z"/><path d="m204.04 175.25h-163.31v-131.62h8v123.62h155.31z"/></g></svg></g><!--ITEM: Illustration component 7--><g transform="translate(1617.5 605.0) rotate(0.0 348.75 342.5)  scale(2.79 2.806089008324048)"><svg width="250.0" height="244.112" viewBox="0.0 0.0 250.0 244.112"><path d="m250 122c0 67.379-56.006 119.593-125 122-86 3-125-54.621-125-122s45.964-122 115-122c94 0 135 54.621 135 122z" fill="#00aee0"/></svg></g><!--ITEM: Illustration component 8--><g transform="translate(3120.0 -242.5) rotate(0.0 -1120.0 968.75) translate(-962.5 875.0) scale(-9.110876108354347 9.109073812881993)"><svg width="45.00116071428572" height="67.51509677419355" viewBox="105.64296875000001 96.05806451612904 45.00116071428572 67.51509677419355"><path d="m225.43 212.7h-205a20.449 20.449 0 0 1 -20.43-20.43v-171.84a20.449 20.449 0 0 1 20.43-20.43h205a20.449 20.449 0 0 1 20.43 20.43v171.84a20.449 20.449 0 0 1 -20.43 20.43zm-205-206.7a14.44 14.44 0 0 0 -14.43 14.43v171.84a14.45 14.45 0 0 0 14.43 14.43h205a14.45 14.45 0 0 0 14.43-14.43v-171.84a14.441 14.441 0 0 0 -14.43-14.43z" fill="#ffb400"/><rect fill="#f04e2300" height="186.7" rx="7.43" width="219.9" x="12.96" y="13"/><path d="m62.91 114.73h12v56.52h-12z" fill="#ffb400"/><path d="m62.91 101.56h12v13.17h-12z" fill="#fff"/><path d="m85.57 96.29h12v74.96h-12z" fill="#ffb400"/><path d="m85.57 68.53h12v27.76h-12z" fill="#fff"/><path d="m108.22 123.95h12v47.3h-12z" fill="#ffb400"/><path d="m108.22 86.97h12v36.98h-12z" fill="#fff"/><path d="m130.88 142.4h12v28.86h-12z" fill="#ffb400"/><path d="m130.88 114.64h12v27.76h-12z" fill="#fff"/><path d="m153.54 87.07h12v84.19h-12z" fill="#ffb400"/><path d="m153.54 50.08h12v36.98h-12z" fill="#fff"/><path d="m176.2 59.4h12v111.85h-12z" fill="#ffb400"/><g fill="#fff"><path d="m176.2 43.63h12v15.77h-12z"/><path d="m204.04 175.25h-163.31v-131.62h8v123.62h155.31z"/></g></svg></g><!--ITEM: Illustration component 9--><g transform="translate(1587.5 570.0) rotate(0.0 456.25 456.25)  scale(51.88768831676908 51.88768831676908)"><svg width="17.58606" height="17.58606" viewBox="0.0 0.0 17.58606 17.58606"><path d="m7.103 14.206a7.10282 7.10282 0 0 1 -5.02251-12.12547 7.10283 7.10283 0 1 1 10.04492 10.04492 7.05657 7.05657 0 0 1 -5.02241 2.08055zm0-12.706a5.603 5.603 0 0 0 -3.962 9.5649 5.603 5.603 0 1 0 7.92383-7.92383 5.56722 5.56722 0 0 0 -3.96183-1.64107z" fill="#04294f"/><path d="m16.8361 17.58614a.74757.74757 0 0 1 -.53027-.21972l-5.241-5.241a.74992.74992 0 0 1 1.06055-1.06055l5.241 5.241a.75.75 0 0 1 -.53027 1.28027z" fill="#04294f"/></svg></g><!--ITEM: Illustration component 10--><g transform="translate(2737.5 505.0) rotate(0.0 -600.0 606.25) translate(-2.5 720.0) scale(-0.8810824979569899 0.8796137099313285)"><svg width="553.2966562500001" height="559.9048701030927" viewBox="2.8374187500000003 818.5411298969073 553.2966562500001 559.9048701030927"><path d="m1361.32 474.516c8.212-151.219-62.932-305.812-186.06-394.398s-294.91-106.233-431.067-40.284c-70.923 34.353-130.74 88.907-178.714 151.4-54.863 71.469-95.766 155.943-103.754 245.794-9.202 103.507 32.913 194.653 96.649 270.996 6.092 7.297 5.669 18.016-1.052 24.737l-175.344 175.346 88.485 88.485 178.675-178.675c6.482-6.482 16.77-7.178 24.045-1.601 10.783 8.266 21.679 16.228 32.611 23.874 65.364 45.717 141.908 78.85 221.549 80.397 76.019 1.477 150.573-26.043 213.959-67.836 126.28-83.26 211.806-227.016 220.018-378.235z" fill="#04294f"/><path d="m573.839 440.601c6.062-68.188 37.103-132.295 78.739-186.533 36.407-47.426 81.802-88.827 135.625-114.897 103.329-50.049 233.694-36.656 327.136 30.572 93.441 67.227 147.433 184.548 141.2 299.308-6.232 114.76-71.138 223.855-166.97 287.042-48.103 31.717-104.682 52.602-162.373 51.481-60.44-1.174-118.529-26.319-168.133-61.013-100.383-70.212-196.861-175.069-185.224-305.96z" fill="#00aee0"/><path d="m106.063 1370.92c-39.473-26.218-72.319-59.063-98.537-98.537-12.508-19.07-8.747-49.695 6.267-66.032 114.496-123.757 200.661-209.921 324.417-324.417 16.337-15.015 46.964-18.774 66.032-6.267 39.473 26.218 72.319 59.063 98.537 98.537 12.506 19.068 8.749 49.696-6.267 66.032-114.496 123.757-200.661 209.921-324.417 324.417-16.337 15.015-46.964 18.774-66.032 6.267z" fill="#ffb400"/><path d="m487.896 1023.676c-33.809-53.554-79.572-99.317-133.127-133.127-29.877-19.481-10.422-52.77 19.248-56.797 22.124-3.002 43.166 8.504 60.511 20.95 34.716 24.91 65.265 55.615 89.998 90.457 13.506 19.027 27.705 43.396 18.905 67.324-9.549 25.968-38.445 37.406-55.535 11.193z" fill="#ffb400"/><path d="m1104.917 259.002c-3.658 3.073-10.138 2.158-18.799-.752-2.142-.754-4.512-1.549-6.934-2.523-2.488-.908-5.059-1.969-7.823-3.037-5.497-2.171-11.57-4.574-18.228-6.992-1.641-.635-3.384-1.186-5.102-1.816-1.732-.612-3.529-1.181-5.32-1.807-3.647-1.156-7.384-2.379-11.316-3.484-7.813-2.293-16.247-4.35-25.178-6.198-4.487-.878-9.084-1.737-13.817-2.488-4.741-.728-9.588-1.425-14.561-1.995-4.976-.557-10.054-1.059-15.238-1.446-5.175-.369-10.515-.658-15.743-.852-5.238-.135-10.605-.179-15.805-.139-5.215.051-10.332.233-15.352.466-5.019.244-9.921.625-14.719 1.037-4.792.438-9.456.983-14.007 1.558-18.163 2.426-34.208 6.086-47.767 9.988-6.787 1.94-12.978 3.907-18.574 5.695-1.384.465-2.78.86-4.088 1.299-1.313.433-2.603.835-3.867 1.206-1.241.396-2.444.773-3.627 1.109-1.196.337-2.334.657-3.411.961-8.773 2.36-15.277 2.941-18.777-.316-1.727-1.614-2.553-4.078-2.437-7.401.032-.828.111-1.721.271-2.645.165-.919.391-1.889.679-2.909.289-1.019.633-2.095 1.051-3.209.433-1.095.93-2.239 1.49-3.429.557-1.195 1.181-2.432 1.904-3.67.715-1.248 1.488-2.549 2.339-3.876.87-1.3 1.806-2.641 2.808-4.02.997-1.386 2.115-2.729 3.269-4.152 4.667-5.609 10.605-11.47 17.801-17.16 14.353-11.419 33.878-21.908 56.774-28.957 5.722-1.734 11.643-3.309 17.735-4.633 6.091-1.297 12.35-2.421 18.74-3.255 6.389-.823 12.91-1.443 19.526-1.774 6.629-.319 13.275-.403 20.185-.218 6.917.25 13.562.749 20.171 1.489 6.596.758 13.083 1.792 19.424 3.033 6.341 1.254 12.532 2.79 18.542 4.496 6.009 1.731 11.827 3.713 17.433 5.837 22.425 8.628 41.162 20.501 54.635 32.87 6.763 6.161 12.261 12.387 16.524 18.264 2.148 2.921 3.945 5.811 5.508 8.503 1.502 2.763 2.799 5.3 3.746 7.756.485 1.215.911 2.38 1.277 3.495.344 1.137.629 2.221.857 3.253.228 1.031.397 2.009.51 2.933.104.932.137 1.822.122 2.649-.071 3.314-1.024 5.733-2.831 7.256z" fill="#fff"/><g fill="#f04e23"><path d="m135.194 1354.662c-.725.04-1.496-.521-2.275-1.484-.425-.488-.862-1.083-1.322-1.773-.507-.699-.977-1.487-1.573-2.382-2.243-3.562-5.475-8.693-9.696-15.005-2.106-3.153-4.459-6.613-7.02-10.293-2.544-3.643-5.341-7.572-8.313-11.608-5.946-8.087-12.674-16.687-20.293-25.104-7.605-8.423-15.462-15.847-22.994-22.426-7.519-6.577-14.626-12.31-20.599-17.172-5.979-4.863-10.868-8.828-14.119-11.922-3.251-3.089-4.871-5.337-4.253-6.668.606-1.308 3.431-1.559 8.012-.621 4.573.94 10.879 3.089 18.253 6.575 7.371 3.489 15.829 8.262 24.694 14.537 8.852 6.254 18.128 14.138 26.629 23.559 8.511 9.403 15.424 19.273 20.898 28.585 2.745 4.663 5.13 9.166 7.221 13.537 2.067 4.339 3.806 8.475 5.215 12.366 2.82 7.769 4.273 14.552 4.28 19.509.031 1.216-.081 2.354-.197 3.304-.156.976-.367 1.798-.611 2.455-.558 1.341-1.211 1.991-1.937 2.031z"/><path d="m484.025 1018.96c-.725.036-1.501-.584-2.286-1.634-.442-.534-.882-1.181-1.367-1.935-.53-.762-1.025-1.622-1.663-2.598-2.395-3.885-5.946-9.475-10.614-16.324-2.333-3.422-4.934-7.168-7.782-11.155-2.823-3.943-5.939-8.178-9.248-12.535-6.624-8.722-14.148-17.938-22.732-26.881-8.556-8.963-17.442-16.8-25.905-23.737-8.461-6.935-16.399-12.928-23.091-17.931-6.695-5-12.179-8.943-15.934-11.902-3.744-2.956-5.798-5.017-5.349-6.425.431-1.363 3.473-1.907 8.562-1.121 5.075.779 12.082 2.938 20.207 6.566 8.119 3.629 17.41 8.651 27.167 15.217 9.743 6.554 20.038 14.783 29.557 24.756 9.541 9.941 17.336 20.499 23.523 30.47 3.099 4.994 5.819 9.819 8.207 14.506 2.36 4.645 4.366 9.088 6.014 13.258 3.295 8.332 5.105 15.613 5.297 20.969.08 1.313.002 2.545-.087 3.575-.126 1.056-.329 1.953-.555 2.663-.545 1.463-1.196 2.162-1.921 2.198z"/><ellipse cx="327.636" cy="956.68" rx="77.346" ry="10.535" transform="matrix(.7364 -.6766 .6766 .7364 -560.8823 473.8578)"/><ellipse cx="177.775" cy="1097.579" rx="75.986" ry="10.535" transform="matrix(.7459 -.6661 .6661 .7459 -685.8932 397.3213)"/><ellipse cx="238.559" cy="1119.318" rx="163.362" ry="10.535" transform="matrix(.7286 -.685 .685 .7286 -701.9428 467.2138)"/><ellipse cx="248.258" cy="1263.737" rx="80.971" ry="10.535" transform="matrix(.7198 -.6941 .6941 .7198 -807.6536 526.3668)"/><ellipse cx="359.394" cy="1089.911" rx="100.329" ry="10.535" transform="matrix(.7326 -.6807 .6807 .7326 -645.7759 536.1028)"/></g></svg></g><!--ITEM: Illustration component 11--><g transform="translate(777.5 625.0) rotate(0.0 232.5 162.5) translate(0.0 0.0) scale(0.4568143437739152 0.4581898259301606)"><svg width="1017.919" height="180.0563769230769" viewBox="0.0 0.0 1017.919 180.0563769230769"><circle cx="61.182" cy="61.182" fill="#f04e23" r="61.182"/><circle cx="61.182" cy="354.656" fill="#f04e23" r="61.182"/><circle cx="61.182" cy="648.131" fill="#f04e23" r="61.182"/><g fill="#04294f"><path d="m602.492 101.365h-362.678c-22.152 0-40.109-17.957-40.109-40.109s17.957-40.109 40.109-40.109h362.678c22.151 0 40.109 17.957 40.109 40.109s-17.958 40.109-40.109 40.109z"/><path d="m846.546 394.765h-606.732c-22.152 0-40.109-17.957-40.109-40.109s17.957-40.109 40.109-40.109h606.732c22.151 0 40.109 17.957 40.109 40.109s-17.958 40.109-40.109 40.109z"/><path d="m977.811 101.365h-242.11c-22.151 0-40.109-17.957-40.109-40.109s17.958-40.109 40.109-40.109h242.11c22.151 0 40.109 17.957 40.109 40.109s-17.958 40.109-40.109 40.109z"/><path d="m481.923 688.24h-242.109c-22.152 0-40.109-17.957-40.109-40.109s17.957-40.109 40.109-40.109h242.109c22.151 0 40.109 17.957 40.109 40.109s-17.958 40.109-40.109 40.109z"/></g></svg></g><!--ITEM: Illustration component 12--><g transform="translate(747.5 80.0) rotate(0.0 -232.5 162.5) translate(-0.0 92.5) scale(-0.4568143437739152 0.4581898259301606)"><svg width="1017.919" height="321.9189769230769" viewBox="0.0 201.8813923076923 1017.919 321.9189769230769"><circle cx="61.182" cy="61.182" fill="#f04e23" r="61.182"/><circle cx="61.182" cy="354.656" fill="#f04e23" r="61.182"/><circle cx="61.182" cy="648.131" fill="#f04e23" r="61.182"/><g fill="#04294f"><path d="m602.492 101.365h-362.678c-22.152 0-40.109-17.957-40.109-40.109s17.957-40.109 40.109-40.109h362.678c22.151 0 40.109 17.957 40.109 40.109s-17.958 40.109-40.109 40.109z"/><path d="m846.546 394.765h-606.732c-22.152 0-40.109-17.957-40.109-40.109s17.957-40.109 40.109-40.109h606.732c22.151 0 40.109 17.957 40.109 40.109s-17.958 40.109-40.109 40.109z"/><path d="m977.811 101.365h-242.11c-22.151 0-40.109-17.957-40.109-40.109s17.958-40.109 40.109-40.109h242.11c22.151 0 40.109 17.957 40.109 40.109s-17.958 40.109-40.109 40.109z"/><path d="m481.923 688.24h-242.109c-22.152 0-40.109-17.957-40.109-40.109s17.957-40.109 40.109-40.109h242.109c22.151 0 40.109 17.957 40.109 40.109s-17.958 40.109-40.109 40.109z"/></g></svg></g><!--ITEM: Illustration component 13--><g transform="translate(490.0 45.0) rotate(0.0 -232.5 162.5) translate(-0.0 197.5) scale(-0.4568143437739152 0.4581898259301606)"><svg width="1017.919" height="278.2689461538462" viewBox="0.0 431.0440538461538 1017.919 278.2689461538462"><circle cx="61.182" cy="61.182" fill="#f04e23" r="61.182"/><circle cx="61.182" cy="354.656" fill="#f04e23" r="61.182"/><circle cx="61.182" cy="648.131" fill="#f04e23" r="61.182"/><g fill="#04294f"><path d="m602.492 101.365h-362.678c-22.152 0-40.109-17.957-40.109-40.109s17.957-40.109 40.109-40.109h362.678c22.151 0 40.109 17.957 40.109 40.109s-17.958 40.109-40.109 40.109z"/><path d="m846.546 394.765h-606.732c-22.152 0-40.109-17.957-40.109-40.109s17.957-40.109 40.109-40.109h606.732c22.151 0 40.109 17.957 40.109 40.109s-17.958 40.109-40.109 40.109z"/><path d="m977.811 101.365h-242.11c-22.151 0-40.109-17.957-40.109-40.109s17.958-40.109 40.109-40.109h242.11c22.151 0 40.109 17.957 40.109 40.109s-17.958 40.109-40.109 40.109z"/><path d="m481.923 688.24h-242.109c-22.152 0-40.109-17.957-40.109-40.109s17.957-40.109 40.109-40.109h242.109c22.151 0 40.109 17.957 40.109 40.109s-17.958 40.109-40.109 40.109z"/></g></svg></g></svg>