<svg xmlns="http://www.w3.org/2000/svg" version="1.1" viewBox="0 0 2999 1846" width="2999" height="1846">
<defs/><!--ITEM: Illustration component 1--><g transform="translate(505.38461538461536 131.53846153846152) rotate(0.0 1007.3076923076924 777.6923076923076)  scale(2.2815576269709905 2.2873303167420813)"><svg width="883.0" height="680.0" viewBox="0.0 0.0 883.0 680.0"><path d="m825.478 580-782.5-25a28.978 28.978 0 0 1 -28.978-28.978l-14-414.435a65.587 65.587 0 0 1 65.587-65.587h786.413a31 31 0 0 1 31 31v445.478a57.521 57.521 0 0 1 -57.522 57.522z" fill="#00aee0"/><path d="m354.5 0h190.8a13.7 13.7 0 0 1 13.7 13.7v61.3a0 0 0 0 1 0 0h-239a0 0 0 0 1 0 0v-40.5a34.5 34.5 0 0 1 34.5-34.5z" fill="#00aee0"/><path d="m662.739 641h-445.7a25.043 25.043 0 0 0 -25.039 25.043l19-2.043c0 3.692 17.308 7 21 7l426.109 9a19.892 19.892 0 0 0 19.891-19.891v-3.848a15.262 15.262 0 0 0 -15.261-15.261z" fill="#00aee0"/><path d="m521 559h42v105h-42z" fill="#00aee0"/><g fill="#04294f"><rect height="514" rx="28.978" width="858" y="66"/><rect height="81" rx="14.826" width="227" x="320" y="13"/><path d="m320 566h227v94h-227z"/><rect height="25" rx="5.522" width="472" x="192" y="655"/><circle cx="434" cy="40" r="11"/></g><path d="m434 53a13 13 0 1 1 13-13 13.015 13.015 0 0 1 -13 13zm0-22a9 9 0 1 0 9 9 9.01 9.01 0 0 0 -9-9z" fill="#fff"/><circle cx="352.5" cy="39.5" fill="#fff" r="4.5"/><circle cx="390.5" cy="39.5" fill="#fff" r="4.5"/><circle cx="480.5" cy="39.5" fill="#fff" r="4.5"/><path d="m525.174 38.261c0 1.423-4.789 2.576-10.7 2.576s-10.695-1.153-10.695-2.576 4.788-2.576 10.695-2.576 10.7 1.153 10.7 2.576z" fill="#fff"/><rect fill="#00aee0" height="427" rx="16.29" width="762.1" x="48.02" y="110"/></svg></g><!--ITEM: Illustration component 2--><g transform="translate(650.7692307692307 454.6153846153846) rotate(0.0 426.9230769230769 426.9230769230769)  scale(5.569300410572841 5.572280764637402)"><svg width="153.313" height="153.231" viewBox="0.0 0.0 153.313 153.231"><path d="m80.3 74.16 67.94 29.76a76.65 76.65 0 0 0 -67.94-103.92z" fill="#f04e23"/><path d="m72.954 68.35v-68.35a76.367 76.367 0 0 0 -50.92 22.77z" fill="#ffffff"/><path d="m75.154 79.93-.29-.15-.15-.09a3.022 3.022 0 0 1 -.5-.37l-57.08-51.04a76.65 76.65 0 1 0 128.16 82.41z" fill="#10294c"/><path d="m124.294 114.95a4.061 4.061 0 0 0 -2.23-2.53l-37.05-16.22a4 4 0 0 0 -5.54 4.4l6.41 34.48a4 4 0 0 0 3.93 3.27h.35a44.591 44.591 0 0 0 33.63-20 4 4 0 0 0 .5-3.4z" fill="#ffb400"/></svg></g><!--ITEM: Illustration component 3--><g transform="translate(1114.6153846153845 574.6153846153845) rotate(0.0 549.2307692307692 358.8461538461538)  scale(3.423000936291432 3.3922215233365205)"><svg width="320.906" height="211.57" viewBox="0.0 0.0 320.906 211.57"><path d="m240.477 211.57a80.572 80.572 0 0 1 -73.49-47.82l21.94-9.74a56.431 56.431 0 0 0 91 17.46l16.79 17.15a80.827 80.827 0 0 1 -56.24 22.95z" fill="#fff"/><path d="m296.687 188.62-16.787-17.15a56.639 56.639 0 0 0 12.1-63.18 55.993 55.993 0 0 0 -21.52-24.9l12.73-20.35a80.408 80.408 0 0 1 13.53 125.58z" fill="#f04e23"/><path d="m184.4 125.19-23.87-2.56a80.4 80.4 0 0 1 122.63-59.6l-12.68 20.36a56.391 56.391 0 0 0 -86 41.81z" fill="#10294c"/><path d="m167 163.75a80.388 80.388 0 0 1 -6.47-41.11l23.87 2.55a56.335 56.335 0 0 0 4.54 28.81z" fill="#ffb400"/><path d="m7.677 73.85a47.861 47.861 0 0 1 40.18-73.85v12a35.861 35.861 0 0 0 -30.11 55.32z" fill="#10294c"/><path d="m47.857 95.7a47.721 47.721 0 0 1 -40.18-21.85l10.07-6.53a35.85 35.85 0 1 0 30.11-55.32v-12a47.85 47.85 0 0 1 0 95.7z" fill="#ffffff"/><path d="m170.827 78.34a3 3 0 0 1 -2.13-.88l-23.38-23.38h-40.84a3 3 0 0 1 0-6h42.06a3 3 0 0 1 2.12.87l24.29 24.24a3.03 3.03 0 0 1 -2.12 5.15z" fill="#ffffff"/><path d="m256.327 99.98h17.62v30h-17.62z" fill="#ffb400"/><path d="m206.977 99.98h36.3v30h-36.3z" fill="#ffb400"/><g fill="#f04e23"><path d="m35.397 54.41h24.92v16h-24.92z"/><path d="m46.837 31.63h24.92v16h-24.92z"/><path d="m23.947 31.63h12.57v16h-12.57z"/></g></svg></g><!--ITEM: Illustration component 4--><g transform="translate(1686.9230769230767 445.38461538461536) rotate(0.0 171.9230769230769 121.15384615384613)  scale(0.33779323683530205 0.3416089826461552)"><svg width="1017.919" height="709.313" viewBox="0.0 0.0 1017.919 709.313"><circle cx="61.182" cy="61.182" fill="#f04e23" r="61.182"/><circle cx="61.182" cy="354.656" fill="#f04e23" r="61.182"/><circle cx="61.182" cy="648.131" fill="#f04e23" r="61.182"/><g fill="#ffb400"><path d="m602.492 101.365h-362.678c-22.152 0-40.109-17.957-40.109-40.109s17.957-40.109 40.109-40.109h362.678c22.151 0 40.109 17.957 40.109 40.109s-17.958 40.109-40.109 40.109z"/><path d="m846.546 394.765h-606.732c-22.152 0-40.109-17.957-40.109-40.109s17.957-40.109 40.109-40.109h606.732c22.151 0 40.109 17.957 40.109 40.109s-17.958 40.109-40.109 40.109z"/><path d="m977.811 101.365h-242.11c-22.151 0-40.109-17.957-40.109-40.109s17.958-40.109 40.109-40.109h242.11c22.151 0 40.109 17.957 40.109 40.109s-17.958 40.109-40.109 40.109z"/><path d="m481.923 688.24h-242.109c-22.152 0-40.109-17.957-40.109-40.109s17.957-40.109 40.109-40.109h242.109c22.151 0 40.109 17.957 40.109 40.109s-17.958 40.109-40.109 40.109z"/></g></svg></g><!--ITEM: Illustration component 5--><g transform="translate(1760.7692307692307 888.4615384615383) rotate(0.0 175.38461538461536 132.69230769230774) translate(0.0 131.53846153846152) scale(1.8444647047926146 1.8231347877897535)"><svg width="190.17400000000004" height="73.41539130434786" viewBox="0.0 72.14960869565213 190.17400000000004 73.41539130434786"><path d="m105.052 91.476c-.31 3.809-.215 10.155-.182 16.933.017 3.382.143 9.171 4.267 8.963 4.37-.222 3.557-5.6 3.743-10.041.225-5.355.143-11.315.34-15.725.33-7.412.468-12.693-3.255-12.944s-4.365 6.102-4.913 12.814z" fill="#04294f"/><path d="m108.845 80.991c-.485-.062-1.091 1.74-1.526 4.5-.423 2.688-.449 6.025.108 6.02.389 0 1.027-3.29 1.3-5.583.358-2.992.573-4.879.118-4.937z" fill="#04294f"/><path d="m169.291 116.116c2.419-1.32 2.888-4.3.09-5.544-2.643-1.244-5.448-.087-8.247-.554-2.488-.466-2.617-2.2-2.553-4.613.081-3.052 2.108-2.957 3.826-2.928 4.253.075 7.067-.418 7-3.85-.078-4.073-5.91-2.178-9.967-3.144-1.5-.356-.9-5.118-.53-6.749 1.02-4.447 5.792-1.9 9.951-2.371 2.848-.322 3.575-2.755 2.331-4.932s-4.509-2.488-6.686-2.643c-12.964-.846-14.005 4.083-13.625 29.178 0 3.42 1.3 6.749 4.414 8.3 3.267 1.559 11.305 1.32 13.996-.15z" fill="#04294f"/><path d="m158.48 80.98c-1.431.085-2.842.852-4.079 3.207-1.045 1.985-1.773 5.816-1.156 6.646.368.5.712-2.6 2.06-5.45 1.485-3.146 3.746-4.436 3.175-4.403z" fill="#04294f"/><path d="m161.777 97.606c3.109 1.9 6.809-.525 4.743-.5-.1 0-.227-.014-.365-.012l-.879.029c-1.894.027-2.7-.152-3.663-.138-.272.007-.213.415.164.621z" fill="#04294f"/><path d="m79.3 90.926c-.34 3.887-1.321 12.045-.5 18.4.541 4.177.979 8.856 11.876 8.666 7.944-.14 10.375-3.017 9.713-5.6-.895-2.848-3.859-2.227-6.8-1.986-3.209.264-6.393.075-6.846-5.547-.41-4.272.175-9.226.678-13.7.782-6.986 1.362-12.818-2.337-13.117s-5.184 6.035-5.784 12.884z" fill="#04294f"/><path d="m83.553 80.544c-.5-.095-1.237 1.729-1.861 4.553-.607 2.749-.844 6.2-.269 6.226.4.02 1.269-3.334 1.7-5.685.555-3.069.894-5.006.43-5.094z" fill="#04294f"/><path d="m90.562 112.41c-.113-.529 4.556-.546 5.1-.521 1.3.059 1.275.4.263.74-2.27.644-5.267.228-5.363-.219z" fill="#04294f"/><path d="m123.147 117.466c2.853.3 4.074-2.512 3.9-5.411a89.091 89.091 0 0 1 .079-12.007c.2-2.5.923-3.119 2.12-.54 1.749 3.762 5.567 11.472 7.1 13.921s2.939 3.7 5.131 3.584c2.109-.11 2.762-2.955 3.045-5.169.3-2.349 1.176-18.366 1.006-24.479-.168-6.068-.669-8.637-3.315-8.761-3.877-.181-4.5 3.12-4.5 6.279 0 4.313-.185 9.265-.338 11.379-.191 2.641-.742 2.25-1.821.092-1.56-3.119-4.708-10.341-5.884-12.835-1.5-3.187-2.6-5.138-4.941-4.965-3.029.224-4.107 2.75-4.387 7.9s-1.068 15.9-.677 24.266c.172 3.764.802 6.467 3.482 6.746z" fill="#04294f"/><path d="m123.738 81.265c-.488-.033-.986 1.8-1.256 4.583-.263 2.709-.089 6.042.466 6 .389-.027.829-3.345.966-5.651.179-3.005.279-4.897-.176-4.932z" fill="#04294f"/><path d="m142.924 80.271c.328.227-.175.317-.9.621a3.73 3.73 0 0 0 -2.048 2 7.489 7.489 0 0 0 -.626 1.677c-.116.457-.562-1.8.347-3.244a2.458 2.458 0 0 1 3.227-1.054z" fill="#04294f"/><path d="m50.4 117.466c2.854.3 4.074-2.512 3.9-5.411a89.12 89.12 0 0 1 .078-12.007c.2-2.5.923-3.119 2.121-.54 1.748 3.762 5.567 11.472 7.1 13.921s2.94 3.7 5.131 3.584c2.109-.11 2.762-2.955 3.045-5.169.3-2.349 1.176-18.366 1.007-24.479-.169-6.068-.67-8.637-3.316-8.761-3.877-.181-4.5 3.12-4.5 6.279 0 4.313-.185 9.265-.338 11.379-.191 2.641-.741 2.25-1.821.092-1.56-3.119-4.708-10.341-5.884-12.835-1.5-3.187-2.6-5.138-4.941-4.965-3.029.224-4.106 2.75-4.387 7.9s-1.068 15.9-.677 24.266c.168 3.764.798 6.467 3.482 6.746z" fill="#04294f"/><path d="m50.987 81.265c-.488-.033-.986 1.8-1.256 4.583-.262 2.709-.089 6.042.466 6 .389-.027.829-3.345.966-5.651.179-3.005.279-4.897-.176-4.932z" fill="#04294f"/><path d="m70.173 80.271c.328.227-.175.317-.9.621a3.734 3.734 0 0 0 -2.049 2 7.538 7.538 0 0 0 -.626 1.677c-.115.457-.561-1.8.348-3.244a2.457 2.457 0 0 1 3.227-1.054z" fill="#04294f"/><path d="m31.841 78.828c-8.613-.328-13.441 8.731-13.441 19.088-.005 8.809 2.443 19.421 12.222 19.3 9.039-.116 11.937-10.578 12.491-19.114.74-11.45-3.664-18.984-11.272-19.274zm3.82 18.456c-.095 4.619-.54 12.1-4.605 12.1-4.461 0-4.652-6.977-4.614-11.133.046-4.968 1.561-11.82 5.152-11.572 3.561.245 4.167 5.661 4.067 10.605z" fill="#04294f"/><path d="m30.793 111.756c-.267-.3.191-.107 1.383-.409a4.686 4.686 0 0 0 2.721-1.713c.331-.436.492-.778.717-1.083.28-.379.462 1.9-1.043 3.046a3.172 3.172 0 0 1 -3.778.159z" fill="#04294f"/><path d="m23.143 88.292a8.651 8.651 0 0 1 2.62-5.1 6.642 6.642 0 0 1 5.333-2.3c2.125.21-1.756.622-4.431 3.476-2.702 2.879-3.686 5.015-3.522 3.924z" fill="#04294f"/><path d="m76.252 54.949c-1.065-2.284-2.638-3.491-.246-6.124 2.01-2.212 4.076-5.454 3.929-11.348-.155-6.21-5.321-9.748-11.386-9.906-5.255-.137-7.812 1.542-9.4 7.363-1.422 5.207-1.912 14.059-1.61 22.5.255 7.1.987 10.417 4.4 10.455s3.219-6.034 3.142-8.443.106-3.269 1.723-3.554 1.905.078 2.719 2c.892 2.11 5.2 10.262 9.309 8.065 4.081-2.184-1.515-8.725-2.58-11.008zm-3.687-14.569c-.581 4.4-4.378 8.862-6.8 8.07-1.389-.454-1.718-3.885-.9-7.759.9-4.254 1.75-6.1 3.592-6.312 2.005-.23 4.743 1.186 4.108 6.001z" fill="#04294f"/><path d="m67.8 29.782c-.949-.471-3.347.267-4.7 2.557-1.577 2.671-1.942 5.847-1.383 6.716.335.519.654-2.715 2.206-5.463 1.984-3.522 4.429-3.533 3.877-3.81z" fill="#04294f"/><path d="m66.784 50.534c-.487-.239 1.387-.321 2.743-1.173 2.044-1.286 2.76-3.695 2.874-2.974a3.825 3.825 0 0 1 -1.965 3.765 4.242 4.242 0 0 1 -3.652.382z" fill="#04294f"/><path d="m158.323 55.62c-1.064-2.283-2.638-3.491-.246-6.124 2.01-2.212 4.076-5.453 3.93-11.347-.155-6.21-5.321-9.749-11.387-9.906-5.254-.137-7.812 1.541-9.4 7.362-1.423 5.208-1.912 14.059-1.61 22.5.254 7.1.651 9.28 4.06 9.318s3.553-4.9 3.476-7.3.106-3.27 1.723-3.554 1.906.077 2.719 2c.893 2.11 5.2 10.262 9.31 8.065 4.087-2.19-1.51-8.734-2.575-11.014zm-3.686-14.569c-.581 4.4-4.379 8.862-6.8 8.07-1.389-.454-1.718-3.885-.9-7.758.9-4.255 1.751-6.1 3.592-6.313 2.005-.229 4.744 1.186 4.108 6.001z" fill="#04294f"/><path d="m149.868 30.453c-.949-.471-3.348.267-4.7 2.557-1.577 2.671-1.942 5.848-1.382 6.716.334.519.653-2.715 2.205-5.463 1.988-3.522 4.433-3.533 3.877-3.81z" fill="#04294f"/><path d="m148.855 51.205c-.487-.239 1.388-.321 2.744-1.173 2.044-1.285 2.76-3.695 2.874-2.974a3.826 3.826 0 0 1 -1.965 3.765 4.241 4.241 0 0 1 -3.653.382z" fill="#04294f"/><path d="m133.249 65.839c2.42-1.32 2.889-4.3.091-5.544-2.644-1.244-5.449-.087-8.247-.554-2.488-.466-2.617-2.2-2.553-4.613.08-3.052 2.108-2.957 3.826-2.928 4.253.075 7.067-.418 7-3.85-.078-4.073-5.91-2.178-9.967-3.144-1.5-.356-.9-5.118-.53-6.749 1.02-4.447 5.792-1.9 9.951-2.371 2.848-.322 3.574-2.755 2.331-4.932s-4.51-2.488-6.686-2.643c-12.964-.846-14.006 4.083-13.625 29.178 0 3.42 1.3 6.749 4.414 8.3 3.267 1.559 11.304 1.32 13.995-.15z" fill="#04294f"/><path d="m122.439 30.7c-1.431.085-2.842.852-4.08 3.207-1.044 1.985-1.772 5.816-1.156 6.646.368.5.712-2.6 2.06-5.45 1.485-3.143 3.747-4.433 3.176-4.403z" fill="#04294f"/><path d="m125.736 47.329c3.109 1.9 6.809-.525 4.742-.5-.1 0-.226-.014-.364-.012l-.879.029c-1.9.026-2.7-.152-3.663-.138-.272.007-.214.413.164.621z" fill="#04294f"/><path d="m91.939 27.747c-4.174.3-5.92 2.9-5.983 11.84-.095 13.676-1.582 24.7 3.356 26.653 6.925 2.739 20.365-3.8 20.359-20.755-.005-16.569-13.559-18.032-17.732-17.738zm1.82 30.685c-1.561-.194-.779-4.4-.6-10.934.212-7.625-.558-12.291 3.2-10.755 2.161.883 5.683 3.617 5.683 10.111-.001 6.946-5.81 11.883-8.283 11.578z" fill="#04294f"/><path d="m93.055 29.592a4.259 4.259 0 0 0 -4.677 2.5c-.978 2.484-.838 6.685-.172 7.475.4.472.492-2.433 1.028-5.543a4.653 4.653 0 0 1 2.409-3.388c1.495-.781 2.776-.759 1.412-1.044z" fill="#04294f"/><path d="m41.248 28.539c-8.614-.327-13.44 8.731-13.445 19.087-.005 8.81 2.442 19.422 12.222 19.3 9.039-.116 11.936-10.578 12.491-19.113.744-11.45-3.66-18.985-11.268-19.274zm3.819 18.455c-.094 4.619-.539 12.1-4.6 12.1-4.46 0-4.651-6.978-4.613-11.134.046-4.967 1.556-11.818 5.146-11.571 3.562.246 4.168 5.662 4.067 10.605z" fill="#04294f"/><g fill="#04294f"><path d="m40.2 61.467c-.268-.3.191-.108 1.382-.41a4.685 4.685 0 0 0 2.718-1.713c.331-.435.492-.778.717-1.083.28-.379.462 1.9-1.043 3.047a3.174 3.174 0 0 1 -3.774.159z"/><path d="m32.55 38a8.647 8.647 0 0 1 2.619-5.1 6.641 6.641 0 0 1 5.331-2.3c2.124.209-1.757.622-4.431 3.475-2.699 2.882-3.683 5.019-3.519 3.925z"/></g></svg></g><!--ITEM: Illustration component 6--><g transform="translate(1197.6923076923076 687.6923076923076) rotate(0.0 91.15384615384608 107.30769230769232) translate(0.0 0.0) scale(1.087106096050639 1.1068354028642837)"><svg width="167.7" height="89.65268817204301" viewBox="0.0 0.0 167.7 89.65268817204301"><path d="m114 11.9c0 5.8 4 10.8 10.1 10.8 6.2 0 10.9-5.1 10.9-10.8s-4.6-9.9-10.1-9.9-10.9 4.1-10.9 9.9z" fill="#04294f" transform="translate(-.253051 -2.01684)"/><path d="m99.2-20.9c0 5.8 4 10.8 10.1 10.8 6.2 0 10.9-5.1 10.9-10.8s-4.6-9.9-10.1-9.9-10.9 4.1-10.9 9.9z" fill="#04294f" transform="translate(43.218 94.3227)"/><path d="m130.5 40c-13 15.6-28.3 36.6-20.1 43.2 8.1 6.6 23.9-15.3 36.9-32 13.2-17 25.6-34.2 18.7-39.6-7.5-5.8-21.3 11.4-35.5 28.4z" fill="#04294f" transform="translate(-.253051 -2.01684)"/><path d="m82.6.9c-16.7-.3-27.4 18.2-27.7 42.4-.2 16.5 3 41.5 24.9 41.7 20.5.2 24.8-25.6 25.6-42.5.9-21.5-5-41.2-22.8-41.6zm7 42.9c-.4 10.4-1.4 26.4-9.7 26.1-8.6-.4-9.1-14.2-8.9-25.5.2-8.9 2.4-26.3 11-25.6 7 .5 7.9 14.6 7.6 25z" fill="#04294f"/><path d="m31.9 107.2c-16.8-.3-27.4 18.1-27.8 42.3-.2 16.5 3 41.5 24.9 41.7 20.5.2 24.8-25.6 25.6-42.5 1-21.4-4.9-41.2-22.7-41.5zm6.9 42.9c-.4 10.4-1.4 26.4-9.7 26.1-8.6-.4-9.1-14.2-8.9-25.5.2-8.9 2.4-26.3 11-25.6 7 .5 8 14.6 7.6 25z" fill="#ffb400"/><path d="m31 181.5c-.8-.9 2.7.8 5.2-1 2.4-1.7 2.9-4.1 3.4-4.3 1-.3.7 4.1-1.8 5.7-2.5 1.7-5.3 1.2-6.8-.4z" fill="#ffffff00" transform="translate(-1.46263 -1.92859)"/><path d="m6091.1 408.4c-.3 1.8-1 6.3-5.7 11.1-3.4 3.4-7.4 5.4-11.6 5-4.6-.5 3.8-1.4 9.6-7.5 5.9-6.3 8-11 7.7-8.6z" fill="#ffffff00" transform="matrix(-1 0 0 -1 6104.4 535.133)"/><path d="m75.3 193.9c5.7.2 8.4-4.7 7.8-12.4s-1.1-15-1-18.5c.1-7.2 5.4-7.4 10.7-7.6 6.2-.2 8.8-4.3 8.9-7.9.1-4.3-3.2-6.7-8.3-6.8-8.7 0-10.4-2.7-10.9-7-.3-3 .2-6.8 2-9.1 1.4-1.8 4.4-3.2 9.8-2.9s11.7-1.1 12.3-7.5c.6-6.2-6.1-9.1-18.9-8.8-11.7.3-19.1 6.3-20.5 16.9-1.6 12-1.8 47.4-1.1 58.2.4 8.6 2.9 13.2 9.2 13.4z" fill="#04294f"/><path d="m51.3 194.8c5.4-.3 7.4-5.8 7.5-12.4 0-5.8 0-9.7.1-13.2.1-7.2 5.4-7.8 10.7-7.9 6.2-.2 8.8-4.3 8.7-7.8-.1-5-4.6-7.3-9.7-7.2-8 .1-9-3.9-9.3-7.9-.3-3.9-.2-9.7 1.2-12.3 1.4-2.7 4.4-3.7 9.8-3.4s10.9-1.6 11.2-7.9c.3-5.3-5-8.6-17.9-8.3-11.7.3-18.8 8.2-20.2 18.7-1.5 12-2 45.6-1.3 56.4.4 8.3 2.9 13.6 9.2 13.2z" fill="#00aee0" transform="translate(70.5061 -2.64075)"/><g fill="#ffffff00"><path d="m42-469.1c.8-1.8 1.2-3.2 2.6-6.9 1.3-3.7 2.2-8.4 9-12.2 3.2-1.8 6.7-3 4.3-3s-9.6 1.5-12.4 5.1-3.4 9.7-3.7 12.8c-.5 3-.5 5.8.2 4.2z" transform="matrix(.989391 -.14528 .14528 .989391 98.5134 603.84)"/><path d="m-44.4-19.3c1.1 2.1 1.3-2.9 2-7.5 1.3-7.8 2.8-14.2 7.2-19.6 2.4-3 5.5-4 3.2-4-2.2 0-5.4 1.1-8 4.1-2.6 3.1-4.7 6-5 16 0 2.8-.1 9.7.6 11z" transform="translate(162.34 158.407)"/><path d="m63.3 30.8c1.2-3.4 3.9-10.2 7.6-15.5 3.6-5.3 5.7-7.1 10.1-10.1 3.7-2.5-7.4-.2-13.1 8.3-6.4 9.6-5.6 20.2-4.6 17.3z"/><path d="m90.8 67.6c-.7-.5-1.1 2.5-3.6 4.8-2.9 2.7-4.3 1.9-4.1 2.8.1.4 3.6 1.7 6.1-1.2 2.7-3 2.2-6 1.6-6.4z" transform="translate(-.034567 -2.26088)"/><path d="m118.3 16c.9.5.1-3.1 3-6.1 3.4-3.6 5.2-2.7 4.9-3.8-.1-.5-4.6-1.8-7.6 1.9-3 3.9-1 7.5-.3 8z" transform="translate(-.034567 -2.26088)"/><path d="m147.2 79.6c.9.6.1-3.1 3-6.1 3.4-3.6 5.2-2.7 4.9-3.8-.1-.5-4.6-1.8-7.6 1.9-3.1 3.9-1.1 7.6-.3 8z" transform="translate(-.034567 -2.26088)"/><path d="m-1640.7 941.4c0 13-3.7 33.9-7.4 71.1-1.1 9.1-5.5 35.7-9.4 37.1-8.9-.5-7.5-74.5 9.1-105.5 4-8 7.5-11.7 7.7-2.7z" transform="matrix(.196305 .137253 -.137088 .19607 611.911 54.4192)"/></g><path clip-rule="evenodd" d="m10.5 535.9c1 5.9 7.2 6.5 12.2 6.5s9.1 4.6 9.1 10.1-3.8 9.7-10.6 9.7c-3.6 0-6.5-1-8.6-3.1-2.8-2.9-7.5-2.8-10.3.1-2.5 2.5-3.2 7-.3 11.1 3.4 4.9 10.7 8.3 18.7 8.3 14.1 0 27.2-12.3 27.2-28.2 0-9-3.8-14.7-7.8-18.1-2.8-2.4-8.5-4.2-3.3-10.4 1.8-2.2 5.8-7.5 7.3-9.4 6.2-8 5.1-19-9.7-19-8.4 0-16.6.1-21.2.1-5.1 0-10.5 3.7-10.5 8.7s3.3 7.4 8.4 7.4c13.1 0 16.8-.5 9 8.8-6.6 7.7-10.9 10.2-9.6 17.4z" fill="#04294f" fill-rule="evenodd" transform="translate(0 -492.016)"/><path d="m-2067.3 1390.6c-4.1-16.3-3.7-46.9-5.4-50.4-4.3-9.2-14 19.1-4.8 45.2 2.9 8.5 13.7 19.2 10.2 5.2z" fill="#ffffff00" transform="matrix(.196305 .137253 -.137088 .19607 611.911 54.4192)"/><path d="m11.7 70.5c1 .6-2.6.3-4.4 2.9-1.7 2.4-1.6 4.5-2.1 4.9-.8.6-2-3.7-.2-6 1.8-2.4 4.7-2.9 6.7-1.8z" fill="#ffffff00" transform="translate(-1.46263 -1.92859)"/><path d="m15.5 7.2c1 .6-2.6.3-4.4 2.9-1.8 2.4-1.7 4.5-2.1 4.9-.8.6-2-3.7-.2-6 1.9-2.4 4.7-2.8 6.7-1.8z" fill="#ffffff00" transform="translate(-1.46263 -1.92859)"/></svg></g><!--ITEM: Illustration component 7--><g transform="translate(2942.307692307692 869.9999999999999) rotate(0.0 -415.38461538461524 -338.07692307692304) translate(-0.0 -0.0) scale(-3.534661777051207 -3.5049859322066332)"><svg width="235.03500000000003" height="192.912" viewBox="0.0 0.0 235.03500000000003 192.912"><g fill="#10294c"><path d="m63.635 178.16a3 3 0 0 1 -2.92-2.32l-11.56-49.89-35.32-7.79a3 3 0 1 1 1.29-5.86l37.13 8.17a3 3 0 0 1 2.27 2.25l11.39 48.95 47.24-8.78a3 3 0 1 1 1.1 5.9l-50.1 9.37a2.51 2.51 0 0 1 -.52-0z"/><rect height="22.52" rx="5.82" transform="matrix(.98947534 -.1447016 .1447016 .98947534 -16.283 2.929)" width="22.52" x=".731" y="102.138"/><rect height="19.19" rx="5.82" transform="matrix(.78304256 -.62196812 .62196812 .78304256 -77.28 107.907)" width="19.19" x="106.438" y="155.131"/><rect height="27.29" rx="5.82" transform="matrix(.29787474 -.95460496 .95460496 .29787474 -80.669 135.297)" width="27.29" x="37.995" y="108.841"/></g><rect fill="#00aee0" height="34.7" rx="5.82" transform="matrix(.91830825 -.39586608 .39586608 .91830825 -62.866 39.236)" width="34.7" x="46.284" y="154.588"/><path d="m230.616 89h-42.7a4 4 0 1 1 0-8h38.72l.4-77a4 4 0 0 1 4-4 4 4 0 0 1 4 4l-.419 80.93a4 4 0 0 1 -3.931 4.07z" fill="#ffb400"/><rect fill="#ffb400" height="81.86" rx="7.43" width="146.9" x="52.025" y="46.65"/><path d="m181.9 64h-39.92a3 3 0 0 1 0-6h39.92a3 3 0 0 1 0 6z" fill="#10294c"/><path d="m127.155 64h-57.7a3 3 0 1 1 0-6h57.7a3 3 0 0 1 0 6z" fill="#10294c"/><path d="m181.9 103.28h-20.214a3 3 0 0 1 0-6h20.214a3 3 0 0 1 0 6z" fill="#fff"/><path d="m152.255 103.28h-30.28a3 3 0 0 1 0-6h30.28a3 3 0 0 1 0 6z" fill="#10294c"/><path d="m107.155 103.28h-37.7a3 3 0 0 1 0-6h37.7a3 3 0 0 1 0 6z" fill="#10294c"/><path d="m181.9 77.1h-22.54a3 3 0 0 1 0-6h22.54a3 3 0 0 1 0 6z" fill="#10294c"/><path d="m143.265 77.1h-40.18a3 3 0 0 1 0-6h40.18a3 3 0 0 1 0 6z" fill="#fff"/><path d="m87.056 77.1h-17.581a3 3 0 0 1 0-6h17.581a3 3 0 1 1 0 6z" fill="#10294c"/><path d="m166.465 90.16h-97a3 3 0 0 1 0-6h97a3 3 0 0 1 0 6z" fill="#10294c"/><path d="m146.755 116.38h-77.28a3 3 0 0 1 0-6h77.28a3 3 0 0 1 0 6z" fill="#10294c"/></svg></g><!--ITEM: Illustration component 8--><g transform="translate(89.99999999999999 214.61538461538458) rotate(0.0 754.6153846153845 498.46153846153845) translate(0.0 0.0) scale(4.703030698181926 4.712024752673238)"><svg width="99.6084373088685" height="105.78499999999998" viewBox="0.0 0.0 99.6084373088685 105.78499999999998"><path d="m240.477 211.57a80.572 80.572 0 0 1 -73.49-47.82l21.94-9.74a56.431 56.431 0 0 0 91 17.46l16.79 17.15a80.827 80.827 0 0 1 -56.24 22.95z" fill="#fff"/><path d="m296.687 188.62-16.787-17.15a56.639 56.639 0 0 0 12.1-63.18 55.993 55.993 0 0 0 -21.52-24.9l12.73-20.35a80.408 80.408 0 0 1 13.53 125.58z" fill="#f04e23"/><path d="m184.4 125.19-23.87-2.56a80.4 80.4 0 0 1 122.63-59.6l-12.68 20.36a56.391 56.391 0 0 0 -86 41.81z" fill="#10294c"/><path d="m167 163.75a80.388 80.388 0 0 1 -6.47-41.11l23.87 2.55a56.335 56.335 0 0 0 4.54 28.81z" fill="#ffb400"/><path d="m7.677 73.85a47.861 47.861 0 0 1 40.18-73.85v12a35.861 35.861 0 0 0 -30.11 55.32z" fill="#10294c"/><path d="m47.857 95.7a47.721 47.721 0 0 1 -40.18-21.85l10.07-6.53a35.85 35.85 0 1 0 30.11-55.32v-12a47.85 47.85 0 0 1 0 95.7z" fill="#00aee0"/><path d="m170.827 78.34a3 3 0 0 1 -2.13-.88l-23.38-23.38h-40.84a3 3 0 0 1 0-6h42.06a3 3 0 0 1 2.12.87l24.29 24.24a3.03 3.03 0 0 1 -2.12 5.15z" fill="#00aee0"/><path d="m256.327 99.98h17.62v30h-17.62z" fill="#ffb400"/><path d="m206.977 99.98h36.3v30h-36.3z" fill="#ffb400"/><g fill="#f04e23"><path d="m35.397 54.41h24.92v16h-24.92z"/><path d="m46.837 31.63h24.92v16h-24.92z"/><path d="m23.947 31.63h12.57v16h-12.57z"/></g></svg></g><!--ITEM: Illustration component 9--><g transform="translate(126.9230769230769 200.76923076923075) rotate(0.0 704.9999999999999 465.0) translate(433.8461538461538 0.0) scale(4.393810025365682 4.3957082762206365)"><svg width="77.7317315875614" height="79.79811414392059" viewBox="98.74030769230771 0.0 77.7317315875614 79.79811414392059"><path d="m240.477 211.57a80.572 80.572 0 0 1 -73.49-47.82l21.94-9.74a56.431 56.431 0 0 0 91 17.46l16.79 17.15a80.827 80.827 0 0 1 -56.24 22.95z" fill="#fff"/><path d="m296.687 188.62-16.787-17.15a56.639 56.639 0 0 0 12.1-63.18 55.993 55.993 0 0 0 -21.52-24.9l12.73-20.35a80.408 80.408 0 0 1 13.53 125.58z" fill="#f04e23"/><path d="m184.4 125.19-23.87-2.56a80.4 80.4 0 0 1 122.63-59.6l-12.68 20.36a56.391 56.391 0 0 0 -86 41.81z" fill="#10294c"/><path d="m167 163.75a80.388 80.388 0 0 1 -6.47-41.11l23.87 2.55a56.335 56.335 0 0 0 4.54 28.81z" fill="#ffb400"/><path d="m7.677 73.85a47.861 47.861 0 0 1 40.18-73.85v12a35.861 35.861 0 0 0 -30.11 55.32z" fill="#10294c"/><path d="m47.857 95.7a47.721 47.721 0 0 1 -40.18-21.85l10.07-6.53a35.85 35.85 0 1 0 30.11-55.32v-12a47.85 47.85 0 0 1 0 95.7z" fill="#f04e23"/><path d="m170.827 78.34a3 3 0 0 1 -2.13-.88l-23.38-23.38h-40.84a3 3 0 0 1 0-6h42.06a3 3 0 0 1 2.12.87l24.29 24.24a3.03 3.03 0 0 1 -2.12 5.15z" fill="#f04e23"/><path d="m256.327 99.98h17.62v30h-17.62z" fill="#ffb400"/><path d="m206.977 99.98h36.3v30h-36.3z" fill="#ffb400"/><g fill="#f04e23"><path d="m35.397 54.41h24.92v16h-24.92z"/><path d="m46.837 31.63h24.92v16h-24.92z"/><path d="m23.947 31.63h12.57v16h-12.57z"/></g></svg></g><!--ITEM: Illustration component 10--><g transform="translate(-939.2307692307692 618.4615384615385) rotate(0.0 740.7692307692307 415.3846153846153) translate(1001.5384615384614 0.0) scale(1.9440210753686673 1.9455953882183386)"><svg width="229.10482866043628" height="427.0" viewBox="515.1890965732088 0.0 229.10482866043628 427.0"><path d="m762.1 16.29v394.42a16.286 16.286 0 0 1 -16.29 16.29h-729.52a16.281 16.281 0 0 1 -16.17-14.34 15.707 15.707 0 0 1 -.12-1.95v-394.42a16.286 16.286 0 0 1 16.29-16.29h729.52a16.286 16.286 0 0 1 16.29 16.29z" fill="#00aee000"/><rect fill="#00aee000" height="382" rx="20.652" width="199" x="532.1" y="22"/><path d="m252.1 0h242.12v214h-242.12z" fill="#00aee000"/><path d="m252.1 214v213h-236.13c-8.52 0-15.48-6.36-15.85-14.34-.01-.22-.02-.45-.02-.68v-197.98h58.03a11.422 11.422 0 0 0 2.21.22h131.86a11.5 11.5 0 0 0 2.21-.22z" fill="#00aee000"/><g fill="#04294f"><rect height="13" rx="6.5" width="69" x="555.1" y="45"/><rect height="13" rx="6.5" width="69" x="632.1" y="45"/><rect height="13" rx="6.5" width="84" x="555.1" y="74"/><rect height="13" rx="6.5" width="45" x="656.1" y="74"/><rect height="13" rx="6.5" width="115" x="555.1" y="123"/><rect height="13" rx="6.5" width="146" x="555.1" y="239"/></g><path d="m194.41 214a11.5 11.5 0 0 1 -2.21.22h-131.86a11.422 11.422 0 0 1 -2.21-.22z" fill="#00aee000"/><path d="m203.17 195.77v7.56a10.931 10.931 0 0 1 -8.76 10.67h-136.28a10.921 10.921 0 0 1 -8.76-10.67v-7.56c0-38.52 31.47-69.75 70.3-69.75h13.2c38.82-0 70.3 31.23 70.3 69.75z" fill="#04294f"/><path d="m189 98.29-15.325-44.62a41.139 41.139 0 0 0 -38.965-27.67h-18.661a41.142 41.142 0 0 0 -38.966 27.67l-15.321 44.62a6.42 6.42 0 0 0 2.7 7.55q30.459 18.813 60.918-2.864 30.461 21.678 60.919 2.864a6.421 6.421 0 0 0 2.701-7.55z" fill="#00aee000"/><ellipse cx="126.267" cy="85.272" fill="#04294f" rx="37.67" ry="45.958"/><ellipse cx="126.267" cy="107.909" fill="#ffb400" rx="11.462" ry="2.484"/><ellipse cx="110.918" cy="83.183" fill="#ffb400" rx="3.887" ry="7.552"/><ellipse cx="141.617" cy="83.183" fill="#ffb400" rx="3.887" ry="7.552"/><path d="m130.383 134.993 2.6 31.611a6.734 6.734 0 0 1 -13.423 1.085 7.145 7.145 0 0 1 0-1.085l2.6-31.611a4.132 4.132 0 0 1 8.231 0z" fill="#f04e23"/><path d="m152.167 37.312-25.973-3.526-25.973 3.526-10.602 11.978 2.985 15.5c3.376-8.237 10.028-10.821 13.663-10.821 8.114 0 7.2 7.578 19.927 7.578s11.812-7.578 19.927-7.578c3.634 0 10.286 2.583 13.662 10.821l2.985-15.5z" fill="#00aee000"/><path d="m380.238 131.489h-12.29a65.356 65.356 0 0 0 -65.464 65.248v7.081a10.2 10.2 0 0 0 10.216 10.182h122.785a10.2 10.2 0 0 0 10.215-10.182v-7.081a65.356 65.356 0 0 0 -65.462-65.248z" fill="#04294f"/><path d="m334.051 83.623c-4.982-9.161-4.58-20.589-.66-30.25s11.021-17.74 18.927-24.558c2.34-2.018 4.884-4 7.912-4.642s6.648.491 7.92 3.3c1.092 2.413.221 5.289.947 7.835.811 2.842 3.518 4.809 6.359 5.653s5.86.778 8.822.879c6.807.233 13.7 1.437 19.725 4.6s11.122 8.466 13 14.99c2.472 8.565-1.028 18.132-7.419 24.366s-15.247 9.464-24.115 10.61c-9.751 1.26-20.335.778-30.1.722-8.778-.047-17.218-5.966-21.318-13.505z" fill="#00aee000"/><ellipse cx="374.093" cy="95.238" fill="#04294f" rx="35.078" ry="42.995"/><ellipse cx="374.093" cy="116.416" fill="#ffb400" rx="10.673" ry="2.324"/><ellipse cx="359.799" cy="93.284" fill="#ffb400" rx="3.62" ry="7.065"/><ellipse cx="388.386" cy="93.284" fill="#ffb400" rx="3.62" ry="7.065"/><path d="m334.4 79.626c.882-3.127 1.889-7.689 6.45-9.114 3.774-1.178 7.83.1 11.513 1.534s7.6 3 11.476 2.2c3.5-.72 6.207-3.209 8.852-5.43a27.056 27.056 0 0 1 10.131-5.616c3.6-.966 6.947-.289 9.5 2.451 2.155 2.311 3.563 5.185 5.076 7.923.356.645 3.7.422 5.3.267a3.5 3.5 0 0 0 3.065-3.339 9.936 9.936 0 0 0 -2.455-6.837 20.83 20.83 0 0 0 -5.816-4.594c-8.746-5.031-17.327-10.242-27.392-11.071-5.128-.422-11.919 2.6-16.963 3.619a25.584 25.584 0 0 0 -13.511 6.941c-3.556 3.706-5.6 9.011-4.722 14.064z" fill="#00aee000"/><path d="m379.3 141.606 3.283 40.157a8.514 8.514 0 0 1 -16.973 1.378 9.321 9.321 0 0 1 0-1.378l3.283-40.157a5.222 5.222 0 0 1 10.407 0z" fill="#f04e23"/><path d="m447.7 410.74v7.08a10.184 10.184 0 0 1 -5.79 9.18h-131.64a10.2 10.2 0 0 1 -5.79-9.18v-7.08a65.357 65.357 0 0 1 65.47-65.25h12.29a65.355 65.355 0 0 1 65.46 65.25z" fill="#04294f"/><path d="m372.1 274c43 0 55.317 14.858 50 38-5 21.762-21.386 38.233-49 38.233s-42-14.471-49-39.233c-6.459-22.85 11.945-37 48-37z" fill="#04294f"/><ellipse cx="374.933" cy="327.22" fill="#ffb400" rx="9.833" ry="1.22"/><ellipse cx="355.055" cy="303.989" fill="#ffb400" rx="4.301" ry="8.394" transform="matrix(.54419983 -.83895563 .83895563 .54419983 -93.2 436.43)"/><ellipse cx="391.224" cy="304.038" fill="#ffb400" rx="7.842" ry="4.018" transform="matrix(.85719427 -.51499319 .51499319 .85719427 -100.708 244.892)"/><path d="m381.3 353.606 3.283 40.157a8.514 8.514 0 0 1 -16.973 1.378 9.321 9.321 0 0 1 0-1.378l3.283-40.157a5.222 5.222 0 0 1 10.407 0z" fill="#f04e23"/><path d="m192.1 410.74v7.08a10.381 10.381 0 0 1 -5.09 9.18h-115.82a10.381 10.381 0 0 1 -5.09-9.18v-7.08c0-36.04 25.79-65.25 57.59-65.25h10.82c31.8 0 57.59 29.21 57.59 65.25z" fill="#04294f"/><ellipse cx="129.093" cy="288.116" fill="#04294f" rx="35.078" ry="63.116"/><ellipse cx="129.093" cy="329.416" fill="#ffb400" rx="10.673" ry="2.324"/><ellipse cx="111.365" cy="291.675" fill="#ffb400" rx="6.265" ry="17.675" transform="matrix(.96938538 -.24554426 .24554426 .96938538 -68.21 36.275)"/><ellipse cx="148.836" cy="291.675" fill="#ffb400" rx="17.675" ry="6.265" transform="matrix(.19392617 -.98101613 .98101613 .19392617 -166.165 381.12)"/><path d="m134.3 354.606 3.283 40.157a8.514 8.514 0 0 1 -16.973 1.378 9.321 9.321 0 0 1 0-1.378l3.283-40.157a5.222 5.222 0 0 1 10.407 0z" fill="#f04e23"/><ellipse cx="374.6" cy="317" fill="#ffb400" rx="4.5" ry="2"/><path d="m328.372 287.788 1.651-25.6a2.544 2.544 0 0 1 3.95-1.953l22.295 14.865a2.544 2.544 0 0 1 -.37 4.438l-23.947 10.735a2.544 2.544 0 0 1 -3.579-2.485z" fill="#04294f"/><path d="m416.828 286.788-1.651-25.6a2.544 2.544 0 0 0 -3.95-1.953l-22.295 14.865a2.544 2.544 0 0 0 .37 4.438l23.947 10.735a2.544 2.544 0 0 0 3.579-2.485z" fill="#04294f"/></svg></g></svg>