<?xml version="1.0" encoding="utf-8"?>
<!-- Generator: Adobe Illustrator 27.5.0, SVG Export Plug-In . SVG Version: 6.00 Build 0)  -->
<svg version="1.1" id="Capa_2" xmlns="http://www.w3.org/2000/svg" xmlns:xlink="http://www.w3.org/1999/xlink" x="0px" y="0px"
	 viewBox="0 0 2122 2122" style="enable-background:new 0 0 2122 2122;" xml:space="preserve">
<path style="fill:#E9444D;" d="M1832.909,550.478c-79.503-103.121-214.06-145.219-340.441-140.502
	c-163.095,6.088-320.642,86.35-431.808,211.086C949.495,496.326,791.948,416.064,628.853,409.976
	c-126.381-4.718-260.939,37.381-340.441,140.502c-81.026,105.097-90.599,256.927-49.652,385.069
	c40.947,128.141,125.85,235.842,219.093,329.139c178.44,178.542,391.116,314.038,602.8,447.003v0.01l0.007-0.005l0.008,0.005v-0.01
	c211.684-132.965,424.36-268.461,602.8-447.003c93.243-93.297,178.146-200.998,219.093-329.139
	C1923.508,807.405,1913.935,655.575,1832.909,550.478z"/>
<path style="fill:#D22132;" d="M1906.172,778.734c-0.027-2.123-0.068-4.246-0.124-6.367c-0.111-4.243-0.28-8.48-0.507-12.712
	c-0.06-1.126-0.126-2.251-0.194-3.375c-0.185-3.026-0.4-6.048-0.645-9.066c-0.091-1.13-0.187-2.26-0.287-3.388
	c-0.374-4.21-0.806-8.411-1.299-12.599c-0.635-5.402-1.371-10.784-2.206-16.142c-0.436-2.798-0.9-5.589-1.391-8.373
	c-0.209-1.187-0.422-2.372-0.641-3.556c-0.382-2.063-0.78-4.12-1.193-6.174c-0.291-1.448-0.59-2.893-0.897-4.336
	c-0.307-1.443-0.621-2.883-0.943-4.322c-0.498-2.226-1.012-4.446-1.547-6.66c-0.245-1.015-0.494-2.028-0.747-3.041
	c-0.305-1.223-0.619-2.444-0.936-3.662c-0.47-1.809-0.951-3.614-1.446-5.414c-0.276-1.004-0.557-2.007-0.841-3.008
	c-0.503-1.774-1.022-3.542-1.55-5.306c-0.438-1.463-0.885-2.922-1.34-4.379c-0.545-1.746-1.101-3.488-1.671-5.224
	c-1.296-3.945-2.656-7.864-4.08-11.755c-1.282-3.502-2.618-6.979-4.005-10.434c-1.428-3.558-2.912-7.089-4.452-10.594
	c-1.119-2.547-2.266-5.08-3.444-7.598c-0.438-0.934-0.88-1.867-1.326-2.797c-0.594-1.239-1.198-2.472-1.807-3.703
	c-1.219-2.467-2.465-4.921-3.744-7.357c-0.958-1.826-1.934-3.643-2.926-5.45c-0.676-1.231-1.362-2.456-2.053-3.678
	c-0.832-1.47-1.671-2.935-2.526-4.392c-0.846-1.444-1.706-2.88-2.574-4.31c-2.877-4.74-5.874-9.411-8.999-14.004
	c-1.162-1.708-2.341-3.406-3.538-5.092c-1.196-1.687-2.41-3.363-3.641-5.027c-1.231-1.665-2.48-3.318-3.746-4.961
	c-0.602-0.78-1.207-1.557-1.816-2.331l-0.569-0.717c-0.414-0.524-0.829-1.048-1.246-1.568l-0.773-0.958l-1.069-1.318l-0.833-1.013
	l-1.025-1.24l-0.882-1.054l-0.992-1.177l-0.904-1.06l-1.01-1.175l-0.896-1.032l-1.015-1.159l-0.918-1.04l-1.006-1.126l-0.959-1.066
	l-0.968-1.064l-0.99-1.082l-1.003-1.081l-0.969-1.041l-0.996-1.054l-1.005-1.059l-0.915-0.951l-1.113-1.152l-0.022-0.023
	c-1.109-1.138-2.226-2.266-3.35-3.386l-0.577-0.577c-0.465-0.46-0.932-0.918-1.399-1.376l-0.623-0.611l-1.324-1.281l-0.765-0.736
	l-1.304-1.239l-0.745-0.704c-0.453-0.426-0.908-0.851-1.363-1.275l-0.715-0.663c-0.462-0.427-0.925-0.852-1.388-1.275l-0.697-0.635
	c-0.469-0.426-0.939-0.85-1.409-1.273l-0.71-0.635c-0.479-0.428-0.96-0.855-1.441-1.28l-0.612-0.538
	c-0.517-0.455-1.036-0.907-1.556-1.358l-0.509-0.44c-0.559-0.482-1.118-0.964-1.68-1.442l-0.268-0.227
	c-0.836-0.71-1.676-1.414-2.519-2.116l-0.838-0.697c-0.691-0.572-1.385-1.141-2.081-1.707c-0.45-0.367-0.902-0.733-1.354-1.097
	l-0.737-0.59c-0.856-0.685-1.715-1.366-2.577-2.043l-0.606-0.474c-1.029-0.803-2.062-1.601-3.1-2.392l-0.164-0.125
	c-1.28-0.974-2.563-1.943-3.856-2.899c-0.796-0.588-1.594-1.173-2.394-1.754c-3.202-2.325-6.443-4.593-9.72-6.806
	c-2.458-1.66-4.937-3.288-7.436-4.885c-5.831-3.726-11.77-7.283-17.807-10.672c-0.862-0.484-1.727-0.965-2.593-1.442
	c-2.031-1.119-4.075-2.218-6.128-3.299c-10.824-5.704-21.939-10.889-33.288-15.566c-1.187-0.489-2.375-0.974-3.567-1.453
	c-5.531-2.219-11.117-4.319-16.749-6.301c-4.694-1.652-9.42-3.223-14.175-4.713c-0.951-0.298-1.904-0.593-2.857-0.884
	c-5.72-1.749-11.48-3.382-17.275-4.9c-0.966-0.254-1.933-0.503-2.9-0.75c-1.935-0.493-3.874-0.974-5.817-1.442
	c-1.943-0.468-3.888-0.923-5.838-1.366c-0.974-0.221-1.95-0.44-2.926-0.655c-1.952-0.43-3.907-0.848-5.865-1.253
	c-1.958-0.405-3.919-0.798-5.883-1.178c-1.134-0.219-2.27-0.434-3.406-0.645c-1.813-0.338-3.629-0.665-5.447-0.982
	c-0.985-0.172-1.971-0.34-2.958-0.505c-1.973-0.33-3.948-0.649-5.925-0.954c-2.965-0.459-5.934-0.89-8.907-1.294
	c-1.115-0.151-2.233-0.298-3.35-0.442c-1.858-0.24-3.717-0.469-5.577-0.686c-1.986-0.233-3.973-0.454-5.961-0.661
	c-1.491-0.157-2.982-0.306-4.474-0.449c-1.492-0.143-2.984-0.279-4.477-0.408c-0.995-0.086-1.99-0.169-2.985-0.249
	c-1.99-0.16-3.981-0.308-5.972-0.445c-1.991-0.136-3.982-0.261-5.973-0.374c-1.991-0.113-3.983-0.214-5.973-0.302
	c-0.995-0.044-1.991-0.086-2.986-0.125c-1.99-0.077-3.981-0.142-5.97-0.196c-0.995-0.026-1.989-0.051-2.984-0.072
	c-3.977-0.084-7.952-0.12-11.92-0.111c-5.954,0.014-11.896,0.132-17.82,0.353c-1.127,0.042-2.253,0.089-3.379,0.138l-0.925,0.041
	c-0.999,0.045-1.998,0.093-2.996,0.144l-0.439,0.021c-1.125,0.058-2.25,0.121-3.374,0.186l-0.866,0.051
	c-0.94,0.056-1.88,0.114-2.82,0.176l-0.658,0.042c-1.105,0.073-2.21,0.15-3.314,0.23l-0.941,0.07
	c-0.856,0.063-1.712,0.129-2.568,0.196l-0.936,0.073c-1.099,0.088-2.197,0.18-3.295,0.275l-0.688,0.06
	c-0.939,0.083-1.878,0.168-2.817,0.255l-0.833,0.078c-1.112,0.105-2.223,0.213-3.333,0.325l-0.613,0.063
	c-0.922,0.094-1.844,0.191-2.767,0.289l-1.048,0.113c-1.026,0.112-2.052,0.225-3.078,0.343l-0.253,0.029
	c-1.104,0.127-2.207,0.259-3.31,0.392l-1.017,0.125c-0.846,0.104-1.692,0.211-2.538,0.319l-0.875,0.111
	c-1.062,0.138-2.123,0.279-3.183,0.423l-1.025,0.14c-0.838,0.115-1.674,0.232-2.511,0.351l-0.921,0.13
	c-1.048,0.15-2.096,0.304-3.143,0.461l-1.136,0.172c-0.75,0.113-1.5,0.228-2.25,0.345l-1.146,0.179
	c-1.027,0.162-2.054,0.326-3.081,0.494l-1.093,0.181c-0.746,0.124-1.491,0.248-2.237,0.375l-1.261,0.215
	c-0.937,0.161-1.874,0.325-2.81,0.49l-1.29,0.232c-0.701,0.126-1.402,0.253-2.103,0.381c-0.517,0.095-1.033,0.191-1.549,0.287
	c-0.63,0.117-1.259,0.236-1.888,0.356c-0.672,0.128-1.344,0.256-2.015,0.386c-0.727,0.141-1.454,0.283-2.181,0.427
	c-0.485,0.096-0.971,0.193-1.457,0.29c-0.611,0.122-1.221,0.246-1.832,0.371c-0.589,0.12-1.178,0.241-1.767,0.362
	c-0.835,0.173-1.67,0.348-2.504,0.525c-0.515,0.109-1.03,0.22-1.545,0.33c-0.531,0.114-1.062,0.229-1.594,0.345
	c-0.56,0.122-1.12,0.243-1.68,0.367c-0.894,0.198-1.787,0.397-2.68,0.599c-0.539,0.122-1.078,0.246-1.617,0.369
	c-0.539,0.123-1.077,0.247-1.615,0.372c-0.54,0.125-1.081,0.251-1.621,0.378c-0.757,0.178-1.514,0.358-2.271,0.539
	c-0.683,0.163-1.366,0.329-2.048,0.494c-0.504,0.123-1.008,0.245-1.512,0.37c-0.604,0.149-1.207,0.297-1.81,0.448l-1.211,0.304
	c-1.043,0.262-2.084,0.528-3.125,0.796c-0.456,0.118-0.913,0.236-1.369,0.354c-0.593,0.154-1.185,0.309-1.778,0.465l-1.328,0.353
	c-1.094,0.291-2.187,0.585-3.279,0.883l-1.023,0.279c-0.671,0.184-1.34,0.37-2.01,0.556l-1.008,0.282
	c-1.285,0.359-2.568,0.723-3.851,1.093l-0.605,0.173c-0.659,0.19-1.318,0.383-1.976,0.575l-1.122,0.329
	c-2.164,0.637-4.325,1.287-6.483,1.95l-0.839,0.258c-0.701,0.216-1.402,0.433-2.102,0.652l-0.451,0.142
	c-1.386,0.435-2.77,0.875-4.154,1.32l-0.69,0.222c-0.723,0.234-1.446,0.469-2.169,0.705l-0.625,0.205
	c-1.296,0.426-2.591,0.856-3.884,1.291l-0.788,0.265c-0.721,0.244-1.441,0.488-2.162,0.735l-0.51,0.176
	c-0.711,0.244-1.422,0.488-2.133,0.735l0.011,0.003c57.016,12.284,111.829,33.157,162.896,69.452
	c126.839,90.148,206.381,238.37,213.368,393.774c7.023,156.209-67.323,298.136-191.961,390.592
	c-111.048,82.375-251.433,102.929-385.371,78.537c-215.966-39.33-409.222-173.957-559.467-336.872
	c0.847,12.97-1.494,25.301-10,35.264c-17.649,20.673-51.829,14.313-74.72-0.023c-26.207-16.412-46.706-40.279-64.501-65.354
	c-40.237-56.698-68.698-121.548-83.155-189.472c-6.338-29.779-8.176-59.955-5.888-89.827c1.295-16.915,3.915-33.733,7.788-50.325
	c-14.44-48.159-20.888-97.907-14.742-147.93c0.775-6.314,1.805-12.503,3.039-18.585c-11.508,10.591-22.346,22.041-32.351,34.43
	l-0.046,0.057c-0.625,0.773-1.244,1.551-1.861,2.331l-0.324,0.409c-0.684,0.867-1.364,1.738-2.039,2.615
	c-1.266,1.642-2.515,3.296-3.746,4.961c-1.231,1.664-2.446,3.34-3.642,5.027c-1.196,1.687-2.376,3.384-3.538,5.092
	c-3.486,5.125-6.818,10.345-9.996,15.653c-1.06,1.77-2.102,3.549-3.128,5.338c-1.026,1.789-2.034,3.587-3.027,5.394
	c-1.984,3.615-3.901,7.267-5.751,10.954c-0.925,1.844-1.833,3.696-2.725,5.556c-0.446,0.93-0.888,1.863-1.326,2.797
	c-6.128,13.083-11.445,26.574-15.981,40.381c-0.324,0.986-0.644,1.974-0.96,2.964c-0.948,2.968-1.86,5.95-2.736,8.946
	c-0.877,2.995-1.717,6.004-2.523,9.025c-0.537,2.014-1.058,4.034-1.565,6.059c-0.252,1.012-0.502,2.026-0.747,3.041
	c-1.225,5.075-2.354,10.182-3.386,15.317c-0.413,2.054-0.81,4.112-1.192,6.174c-1.72,9.281-3.131,18.646-4.239,28.071
	c-0.492,4.189-0.926,8.389-1.299,12.599c-0.467,5.263-0.842,10.54-1.126,15.829c-0.852,15.866-0.883,31.83-0.129,47.778
	c0.151,3.189,0.333,6.379,0.546,9.566c0.782,11.687,1.984,23.354,3.591,34.956c0.292,2.109,0.598,4.217,0.917,6.322
	c0.806,5.316,1.699,10.617,2.675,15.899l0.088,0.472c0.193,1.039,0.39,2.078,0.589,3.116l0.144,0.753
	c0.232,1.198,0.467,2.395,0.707,3.591l0.046,0.231c0.141,0.699,0.283,1.398,0.428,2.097l0.115,0.555
	c0.415,2.003,0.843,4.001,1.281,5.997l0.221,1.002c0.119,0.535,0.238,1.069,0.359,1.603l0.253,1.113
	c0.121,0.53,0.242,1.06,0.364,1.59l0.31,1.327c0.187,0.798,0.376,1.594,0.566,2.391c0.113,0.473,0.227,0.946,0.342,1.42l0.319,1.306
	c0.127,0.518,0.255,1.036,0.384,1.555l0.291,1.17l0,0.002c0.215,0.855,0.432,1.708,0.651,2.561l0.004,0.013l0.151,0.582l0.054,0.209
	l0.012,0.048c0.167,0.644,0.334,1.287,0.503,1.93l0.001,0.003l0.28,1.058c0.153,0.575,0.306,1.151,0.461,1.725l0.295,1.096
	c0.238,0.874,0.477,1.747,0.718,2.619l0.118,0.42c0.216,0.775,0.434,1.548,0.653,2.321l0.266,0.934
	c0.188,0.659,0.378,1.318,0.569,1.975l0.22,0.756c0.267,0.914,0.535,1.827,0.808,2.739l0.099,0.327
	c0.238,0.797,0.479,1.592,0.72,2.387l0.269,0.879c0.205,0.669,0.412,1.336,0.62,2.004l0.244,0.783
	c0.283,0.906,0.569,1.81,0.857,2.714c11.196,35.039,25.679,68.549,42.721,100.654c1.948,3.669,3.928,7.32,5.942,10.952
	c1.51,2.725,3.038,5.439,4.584,8.143c1.031,1.803,2.069,3.601,3.115,5.395c2.616,4.485,5.28,8.941,7.99,13.37
	c2.168,3.543,4.366,7.069,6.592,10.576c3.34,5.262,6.743,10.484,10.208,15.668c1.154,1.728,2.316,3.451,3.484,5.171
	c0.584,0.86,1.17,1.718,1.757,2.575c2.349,3.429,4.724,6.843,7.125,10.239c0.6,0.849,1.202,1.696,1.804,2.543
	c1.206,1.694,2.419,3.383,3.638,5.068c0.609,0.843,1.22,1.685,1.832,2.525c3.061,4.203,6.16,8.38,9.294,12.53
	c3.761,4.981,7.572,9.924,11.431,14.832c3.215,4.089,6.463,8.153,9.743,12.192c1.967,2.424,3.945,4.838,5.934,7.243
	c3.315,4.009,6.658,7.994,10.03,11.954c2.022,2.376,4.055,4.743,6.097,7.102c8.167,9.434,16.483,18.728,24.919,27.888
	c8.436,9.16,16.992,18.186,25.638,27.081c1.441,1.483,2.885,2.962,4.33,4.437c3.615,3.689,7.245,7.355,10.887,10.999
	c41.822,41.846,85.524,81.327,130.654,118.965c3.008,2.509,6.024,5.01,9.045,7.503c13.595,11.218,27.316,22.274,41.151,33.182
	c3.074,2.424,6.154,4.84,9.24,7.249c15.427,12.046,30.99,23.913,46.674,35.62c4.705,3.512,9.421,7.009,14.147,10.493
	c1.576,1.161,3.152,2.321,4.73,3.479c4.733,3.474,9.476,6.935,14.229,10.382c1.584,1.149,3.169,2.297,4.756,3.443
	c4.76,3.438,9.529,6.864,14.307,10.277c1.593,1.137,3.187,2.274,4.781,3.409c3.189,2.27,6.383,4.534,9.58,6.793
	c3.198,2.26,6.398,4.513,9.603,6.762c3.205,2.248,6.413,4.492,9.626,6.73c3.212,2.238,6.428,4.472,9.647,6.7
	c4.829,3.343,9.666,6.674,14.509,9.996c3.229,2.214,6.462,4.424,9.698,6.628c1.618,1.103,3.237,2.204,4.856,3.304
	c3.238,2.201,6.48,4.397,9.725,6.589c3.245,2.192,6.492,4.38,9.743,6.564c3.25,2.183,6.504,4.363,9.76,6.539
	c4.884,3.263,9.773,6.518,14.669,9.764c3.264,2.164,6.53,4.324,9.798,6.481c6.536,4.313,13.082,8.613,19.636,12.9
	c8.193,5.358,16.398,10.696,24.613,16.016c4.93,3.193,9.863,6.377,14.799,9.557c8.228,5.299,16.465,10.582,24.71,15.851
	c4.947,3.161,9.896,6.318,14.848,9.47c4.952,3.152,9.905,6.299,14.86,9.442c3.304,2.096,6.608,4.189,9.913,6.282
	c8.263,5.23,16.529,10.45,24.797,15.663c4.961,3.128,9.923,6.252,14.885,9.374c8.27,5.204,16.54,10.402,24.809,15.596v0.01
	l0.008-0.005l0.007,0.005v-0.01c8.269-5.194,16.54-10.392,24.81-15.596c4.962-3.122,9.923-6.247,14.884-9.374
	c8.269-5.213,16.535-10.432,24.797-15.663c3.305-2.092,6.609-4.186,9.913-6.282c3.304-2.095,6.607-4.193,9.908-6.292
	c6.604-4.199,13.204-8.405,19.8-12.62c8.245-5.269,16.482-10.552,24.71-15.851c4.937-3.18,9.87-6.365,14.799-9.557
	c8.216-5.32,16.421-10.657,24.613-16.016c3.277-2.143,6.552-4.29,9.824-6.44c6.546-4.299,13.082-8.613,19.609-12.941
	c8.159-5.411,16.302-10.844,24.428-16.303c3.25-2.184,6.498-4.372,9.743-6.564c3.245-2.192,6.487-4.388,9.726-6.589
	c9.716-6.602,19.405-13.243,29.063-19.929c3.219-2.228,6.435-4.462,9.647-6.7c3.212-2.239,6.421-4.482,9.626-6.73
	c3.205-2.249,6.406-4.503,9.603-6.762c4.797-3.389,9.583-6.789,14.361-10.202c4.778-3.413,9.547-6.839,14.307-10.277
	c1.586-1.146,3.172-2.294,4.756-3.443c4.753-3.447,9.496-6.908,14.229-10.382c1.972-1.448,3.942-2.898,5.911-4.35
	c3.937-2.905,7.867-5.819,11.79-8.744c1.961-1.462,3.92-2.927,5.878-4.394c1.566-1.174,3.131-2.349,4.694-3.527
	c4.691-3.531,9.369-7.078,14.038-10.639c7.779-5.935,15.528-11.914,23.241-17.938c3.085-2.409,6.165-4.825,9.239-7.249
	c3.075-2.424,6.144-4.855,9.206-7.293c3.063-2.439,6.121-4.885,9.172-7.339c3.051-2.454,6.097-4.915,9.136-7.384
	c4.559-3.704,9.105-7.425,13.636-11.165c4.532-3.739,9.05-7.497,13.553-11.273c3.002-2.518,5.998-5.043,8.987-7.577
	c2.989-2.534,5.972-5.077,8.948-7.628c2.976-2.551,5.945-5.111,8.908-7.679c2.963-2.568,5.918-5.146,8.868-7.732
	c2.949-2.586,5.89-5.181,8.826-7.785c1.467-1.302,2.933-2.606,4.397-3.912c2.928-2.613,5.848-5.236,8.761-7.867
	c7.283-6.578,14.521-13.215,21.711-19.912c2.876-2.679,5.744-5.367,8.605-8.065c8.582-8.095,17.094-16.278,25.532-24.553
	c2.813-2.758,5.618-5.527,8.415-8.307c1.398-1.39,2.794-2.782,4.188-4.177c8.013-8.017,15.964-16.141,23.832-24.376
	c1.43-1.497,2.858-2.998,4.282-4.502c12.822-13.54,25.408-27.377,37.659-41.528c2.042-2.359,4.074-4.726,6.097-7.102
	c3.371-3.96,6.715-7.945,10.029-11.954c1.989-2.405,3.967-4.819,5.934-7.243c3.934-4.847,7.825-9.729,11.668-14.649
	c1.281-1.64,2.556-3.284,3.827-4.932c1.27-1.648,2.535-3.3,3.794-4.956c3.778-4.969,7.505-9.974,11.178-15.017
	c1.225-1.681,2.443-3.367,3.656-5.056c1.818-2.534,3.623-5.078,5.414-7.631c3.582-5.107,7.106-10.251,10.57-15.434
	c1.732-2.592,3.449-5.194,5.151-7.804c0.567-0.87,1.132-1.742,1.696-2.614c1.691-2.618,3.366-5.245,5.025-7.883
	c1.105-1.759,2.205-3.521,3.296-5.288c2.729-4.418,5.411-8.863,8.046-13.336c1.054-1.79,2.1-3.583,3.139-5.381
	c2.596-4.496,5.143-9.019,7.64-13.572c0.998-1.821,1.989-3.646,2.971-5.476c0.982-1.83,1.956-3.665,2.922-5.504
	c2.413-4.598,4.774-9.225,7.08-13.88c1.845-3.724,3.655-7.468,5.429-11.23c0.887-1.881,1.765-3.767,2.633-5.658
	c0.869-1.89,1.728-3.785,2.578-5.686c0.85-1.9,1.691-3.805,2.522-5.714c0.832-1.909,1.654-3.824,2.466-5.742
	c3.25-7.677,6.346-15.429,9.281-23.26c0.734-1.958,1.457-3.92,2.17-5.888c0.713-1.968,1.416-3.94,2.109-5.917
	c1.731-4.944,3.398-9.918,4.997-14.923c2.559-8.009,4.921-16.111,7.081-24.287c0.539-2.044,1.067-4.093,1.581-6.146
	c3.859-15.4,7.001-31.05,9.393-46.836c0.319-2.105,0.625-4.212,0.917-6.322c0.73-5.274,1.377-10.561,1.939-15.857
	c0.225-2.118,0.436-4.238,0.633-6.359c0.395-4.242,0.735-8.49,1.02-12.74c0.213-3.188,0.395-6.377,0.546-9.566
	c0.201-4.253,0.346-8.507,0.435-12.76c0.044-2.126,0.074-4.253,0.09-6.378c0.008-1.063,0.012-2.126,0.013-3.188
	C1906.211,782.982,1906.199,780.858,1906.172,778.734z"/>
<path style="fill:#B81824;" d="M1906.172,778.734c-0.027-2.123-0.068-4.246-0.124-6.367c-0.111-4.243-0.28-8.48-0.507-12.712
	c-0.06-1.126-0.126-2.251-0.194-3.375c-0.185-3.026-0.4-6.048-0.645-9.066c-0.091-1.13-0.187-2.26-0.287-3.388
	c-0.374-4.21-0.806-8.411-1.299-12.599c-0.635-5.402-1.371-10.784-2.206-16.142c-0.436-2.798-0.9-5.589-1.391-8.373
	c-0.209-1.187-0.422-2.372-0.641-3.556c-0.382-2.063-0.78-4.12-1.193-6.174c-0.291-1.448-0.59-2.893-0.897-4.336
	c-0.307-1.443-0.621-2.883-0.943-4.322c-0.498-2.226-1.012-4.446-1.547-6.66c-0.245-1.015-0.494-2.028-0.747-3.041
	c-0.305-1.223-0.619-2.444-0.936-3.662c-0.47-1.809-0.951-3.614-1.446-5.414c-0.276-1.004-0.557-2.007-0.841-3.008
	c-0.503-1.774-1.022-3.542-1.55-5.306c-0.438-1.463-0.885-2.922-1.34-4.379c-0.545-1.746-1.101-3.488-1.671-5.224
	c-1.296-3.945-2.656-7.864-4.08-11.755c-1.282-3.502-2.618-6.979-4.005-10.434c-1.428-3.558-2.912-7.089-4.452-10.594
	c-1.119-2.547-2.266-5.08-3.444-7.598c-0.438-0.934-0.88-1.867-1.326-2.797c-0.594-1.239-1.198-2.472-1.807-3.703
	c-1.219-2.467-2.465-4.921-3.744-7.357c-0.958-1.826-1.934-3.643-2.926-5.45c-0.676-1.231-1.362-2.456-2.053-3.678
	c-0.832-1.47-1.671-2.935-2.526-4.392c-0.846-1.444-1.706-2.88-2.574-4.31c-2.877-4.74-5.874-9.411-8.999-14.004
	c-1.162-1.708-2.341-3.406-3.538-5.092c-1.196-1.687-2.41-3.363-3.641-5.027c-1.231-1.665-2.48-3.318-3.746-4.961
	c-0.602-0.78-1.207-1.557-1.816-2.331l-0.569-0.717c-0.414-0.524-0.829-1.048-1.246-1.568l-0.773-0.958l-1.069-1.318l-0.833-1.013
	l-1.025-1.24l-0.882-1.054l-0.992-1.177l-0.904-1.06l-1.01-1.175l-0.896-1.032l-1.015-1.159l-0.918-1.04l-1.006-1.126l-0.959-1.066
	l-0.968-1.064l-0.99-1.082l-1.003-1.081l-0.969-1.041l-0.996-1.054l-1.005-1.059l-0.915-0.951l-1.113-1.152l-0.022-0.023
	c-1.109-1.138-2.226-2.266-3.35-3.386l-0.577-0.577c-0.465-0.46-0.932-0.918-1.399-1.376l-0.623-0.611l-1.324-1.281l-0.765-0.736
	l-1.304-1.239l-0.745-0.704c-0.453-0.426-0.908-0.851-1.363-1.275l-0.715-0.663c-0.462-0.427-0.925-0.852-1.388-1.275l-0.697-0.635
	c-0.469-0.426-0.939-0.85-1.409-1.273l-0.71-0.635c-0.479-0.428-0.96-0.855-1.441-1.28l-0.612-0.538
	c-0.517-0.455-1.036-0.907-1.556-1.358l-0.509-0.44c-0.559-0.482-1.118-0.964-1.68-1.442l-0.268-0.227
	c-0.836-0.71-1.676-1.414-2.519-2.116l-0.838-0.697c-0.691-0.572-1.385-1.141-2.081-1.707c-0.45-0.367-0.902-0.733-1.354-1.097
	l-0.737-0.59c-0.856-0.685-1.715-1.366-2.577-2.043l-0.606-0.474c-1.029-0.803-2.062-1.601-3.1-2.392l-0.164-0.125
	c-71.121-54.15-162.668-79.484-252.437-81.017c95.131,31.287,176.695,89.638,223.461,186.478
	c70.698,146.396,53.394,325.308-3.039,473.402c-45.052,118.228-120.028,225.016-224.663,297.634
	c-196.928,136.669-456.032,124.534-671.544,41.983c-227.588-87.177-432.6-260.019-532.496-485.05
	c-30.009-67.599-49.167-140.123-61.672-212.9c-4.296-25.001-7.47-50.555-8.774-76.158c-28.323,74.156-32.851,158.888-18.063,239.061
	l0.088,0.472c0.193,1.039,0.39,2.078,0.589,3.116l0.144,0.753c0.232,1.198,0.467,2.395,0.707,3.591l0.046,0.231
	c0.141,0.699,0.283,1.398,0.428,2.097l0.115,0.555c0.415,2.003,0.843,4.001,1.281,5.997l0.221,1.002
	c0.119,0.535,0.238,1.069,0.359,1.603l0.253,1.113c0.121,0.53,0.242,1.06,0.364,1.59l0.31,1.327
	c0.187,0.798,0.376,1.594,0.566,2.391c0.113,0.473,0.227,0.946,0.342,1.42l0.319,1.306c0.127,0.518,0.255,1.036,0.384,1.555
	l0.291,1.17l0,0.002c0.215,0.855,0.432,1.708,0.651,2.561l0.004,0.013l0.151,0.582l0.054,0.209l0.012,0.048
	c0.167,0.644,0.334,1.287,0.503,1.93l0.001,0.003l0.28,1.058c0.153,0.575,0.306,1.151,0.461,1.725l0.295,1.096
	c0.238,0.874,0.477,1.747,0.718,2.619l0.118,0.42c0.216,0.775,0.434,1.548,0.653,2.321l0.266,0.934
	c0.188,0.659,0.378,1.318,0.569,1.975l0.22,0.756c0.267,0.914,0.535,1.827,0.808,2.739l0.099,0.327
	c0.238,0.797,0.479,1.592,0.72,2.387l0.269,0.879c0.205,0.669,0.412,1.336,0.62,2.004l0.244,0.783
	c0.283,0.906,0.569,1.81,0.857,2.714c11.196,35.039,25.679,68.549,42.721,100.654c1.948,3.669,3.928,7.32,5.942,10.952
	c1.51,2.725,3.038,5.439,4.584,8.143c1.031,1.803,2.069,3.601,3.115,5.395c2.616,4.485,5.28,8.941,7.99,13.37
	c2.168,3.543,4.366,7.069,6.592,10.576c3.34,5.262,6.743,10.484,10.208,15.668c1.154,1.728,2.316,3.451,3.484,5.171
	c0.584,0.86,1.17,1.718,1.757,2.575c2.349,3.429,4.724,6.843,7.125,10.239c0.6,0.849,1.202,1.696,1.804,2.543
	c1.206,1.694,2.419,3.383,3.638,5.068c0.609,0.843,1.22,1.685,1.832,2.525c3.061,4.203,6.16,8.38,9.294,12.53
	c3.761,4.981,7.572,9.924,11.431,14.832c3.215,4.089,6.463,8.153,9.743,12.192c1.967,2.424,3.945,4.838,5.934,7.243
	c3.315,4.009,6.658,7.994,10.03,11.954c2.022,2.376,4.055,4.743,6.097,7.102c8.167,9.434,16.483,18.728,24.919,27.888
	c8.436,9.16,16.992,18.186,25.638,27.081c1.441,1.483,2.885,2.962,4.33,4.437c3.615,3.689,7.245,7.355,10.887,10.999
	c41.822,41.846,85.524,81.327,130.654,118.965c3.008,2.509,6.024,5.01,9.045,7.503c13.595,11.218,27.316,22.274,41.151,33.182
	c3.074,2.424,6.154,4.84,9.24,7.249c15.427,12.046,30.99,23.913,46.674,35.62c4.705,3.512,9.421,7.009,14.147,10.493
	c1.576,1.161,3.152,2.321,4.73,3.479c4.733,3.474,9.476,6.935,14.229,10.382c1.584,1.149,3.169,2.297,4.756,3.443
	c4.76,3.438,9.529,6.864,14.307,10.277c1.593,1.137,3.187,2.274,4.781,3.409c3.189,2.27,6.383,4.534,9.58,6.793
	c3.198,2.26,6.398,4.513,9.603,6.762c3.205,2.248,6.413,4.492,9.626,6.73c3.212,2.238,6.428,4.472,9.647,6.7
	c4.829,3.343,9.666,6.674,14.509,9.996c3.229,2.214,6.462,4.424,9.698,6.628c1.618,1.103,3.237,2.204,4.856,3.304
	c3.238,2.201,6.48,4.397,9.725,6.589c3.245,2.192,6.492,4.38,9.743,6.564c3.25,2.183,6.504,4.363,9.76,6.539
	c4.884,3.263,9.773,6.518,14.669,9.764c3.264,2.164,6.53,4.324,9.798,6.481c6.536,4.313,13.082,8.613,19.636,12.9
	c8.193,5.358,16.398,10.696,24.613,16.016c4.93,3.193,9.863,6.377,14.799,9.557c8.228,5.299,16.465,10.582,24.71,15.851
	c4.947,3.161,9.896,6.318,14.848,9.47c4.952,3.152,9.905,6.299,14.86,9.442c3.304,2.096,6.608,4.189,9.913,6.282
	c8.263,5.23,16.529,10.45,24.797,15.663c4.961,3.128,9.923,6.252,14.885,9.374c8.27,5.204,16.54,10.402,24.809,15.596v0.01
	l0.008-0.005l0.007,0.005v-0.01c8.269-5.194,16.54-10.392,24.81-15.596c4.962-3.122,9.923-6.247,14.884-9.374
	c8.269-5.213,16.535-10.432,24.797-15.663c3.305-2.092,6.609-4.186,9.913-6.282c3.304-2.095,6.607-4.193,9.908-6.292
	c6.604-4.199,13.204-8.405,19.8-12.62c8.245-5.269,16.482-10.552,24.71-15.851c4.937-3.18,9.87-6.365,14.799-9.557
	c8.216-5.32,16.421-10.657,24.613-16.016c3.277-2.143,6.552-4.29,9.824-6.44c6.546-4.299,13.082-8.613,19.609-12.941
	c8.159-5.411,16.302-10.844,24.428-16.303c3.25-2.184,6.498-4.372,9.743-6.564c3.245-2.192,6.487-4.388,9.726-6.589
	c9.716-6.602,19.405-13.243,29.063-19.929c3.219-2.228,6.435-4.462,9.647-6.7c3.212-2.239,6.421-4.482,9.626-6.73
	c3.205-2.249,6.406-4.503,9.603-6.762c4.797-3.389,9.583-6.789,14.361-10.202c4.778-3.413,9.547-6.839,14.307-10.277
	c1.586-1.146,3.172-2.294,4.756-3.443c4.753-3.447,9.496-6.908,14.229-10.382c1.972-1.448,3.942-2.898,5.911-4.35
	c3.937-2.905,7.867-5.819,11.79-8.744c1.961-1.462,3.92-2.927,5.878-4.394c1.566-1.174,3.131-2.349,4.694-3.527
	c4.691-3.531,9.369-7.078,14.038-10.639c7.779-5.935,15.528-11.914,23.241-17.938c3.085-2.409,6.165-4.825,9.239-7.249
	c3.075-2.424,6.144-4.855,9.206-7.293c3.063-2.439,6.121-4.885,9.172-7.339c3.051-2.454,6.097-4.915,9.136-7.384
	c4.559-3.704,9.105-7.425,13.636-11.165c4.532-3.739,9.05-7.497,13.553-11.273c3.002-2.518,5.998-5.043,8.987-7.577
	c2.989-2.534,5.972-5.077,8.948-7.628c2.976-2.551,5.945-5.111,8.908-7.679c2.963-2.568,5.918-5.146,8.868-7.732
	c2.949-2.586,5.89-5.181,8.826-7.785c1.467-1.302,2.933-2.606,4.397-3.912c2.928-2.613,5.848-5.236,8.761-7.867
	c7.283-6.578,14.521-13.215,21.711-19.912c2.876-2.679,5.744-5.367,8.605-8.065c8.582-8.095,17.094-16.278,25.532-24.553
	c2.813-2.758,5.618-5.527,8.415-8.307c1.398-1.39,2.794-2.782,4.188-4.177c8.013-8.017,15.964-16.141,23.832-24.376
	c1.43-1.497,2.858-2.998,4.282-4.502c12.822-13.54,25.408-27.377,37.659-41.528c2.042-2.359,4.074-4.726,6.097-7.102
	c3.371-3.96,6.715-7.945,10.029-11.954c1.989-2.405,3.967-4.819,5.934-7.243c3.934-4.847,7.825-9.729,11.668-14.649
	c1.281-1.64,2.556-3.284,3.827-4.932c1.27-1.648,2.535-3.3,3.794-4.956c3.778-4.969,7.505-9.974,11.178-15.017
	c1.225-1.681,2.443-3.367,3.656-5.056c1.818-2.534,3.623-5.078,5.414-7.631c3.582-5.107,7.106-10.251,10.57-15.434
	c1.732-2.592,3.449-5.194,5.151-7.804c0.567-0.87,1.132-1.742,1.696-2.614c1.691-2.618,3.366-5.245,5.025-7.883
	c1.105-1.759,2.205-3.521,3.296-5.288c2.729-4.418,5.411-8.863,8.046-13.336c1.054-1.79,2.1-3.583,3.139-5.381
	c2.596-4.496,5.143-9.019,7.64-13.572c0.998-1.821,1.989-3.646,2.971-5.476c0.982-1.83,1.956-3.665,2.922-5.504
	c2.413-4.598,4.774-9.225,7.08-13.88c1.845-3.724,3.655-7.468,5.429-11.23c0.887-1.881,1.765-3.767,2.633-5.658
	c0.869-1.89,1.728-3.785,2.578-5.686c0.85-1.9,1.691-3.805,2.522-5.714c0.832-1.909,1.654-3.824,2.466-5.742
	c3.25-7.677,6.346-15.429,9.281-23.26c0.734-1.958,1.457-3.92,2.17-5.888c0.713-1.968,1.416-3.94,2.109-5.917
	c1.731-4.944,3.398-9.918,4.997-14.923c2.559-8.009,4.921-16.111,7.081-24.287c0.539-2.044,1.067-4.093,1.581-6.146
	c3.859-15.4,7.001-31.05,9.393-46.836c0.319-2.105,0.625-4.212,0.917-6.322c0.73-5.274,1.377-10.561,1.939-15.857
	c0.225-2.118,0.436-4.238,0.633-6.359c0.395-4.242,0.735-8.49,1.02-12.74c0.213-3.188,0.395-6.377,0.546-9.566
	c0.201-4.253,0.346-8.507,0.435-12.76c0.044-2.126,0.074-4.253,0.09-6.378c0.008-1.063,0.012-2.126,0.013-3.188
	C1906.211,782.982,1906.199,780.858,1906.172,778.734z"/>
<path style="fill:#FFFFFF;" d="M526.09,861.963c-0.313-69.892,22.87-124.733,47.951-188.386
	c15.655-39.731,24.159-87.066,1.784-123.438c-23.419-38.07-76.113-51.266-118.57-37.296c-42.457,13.971-74.754,50.055-94.219,90.29
	c-11.535,23.842-20.381,48.667-26.299,74.018c-3.873,16.592-6.493,33.41-7.788,50.325c-2.288,29.872-0.45,60.048,5.888,89.827
	c14.456,67.924,42.917,132.774,83.155,189.472c17.795,25.074,38.293,48.942,64.501,65.354c22.892,14.336,57.071,20.697,74.72,0.023
	c8.505-9.963,10.847-22.294,10-35.264c-1.399-21.42-11.497-44.586-16.901-61.717C538.692,938.338,526.265,901.072,526.09,861.963z"
	/>
</svg>
