<?xml version="1.0" encoding="utf-8"?>
<!-- Generator: Adobe Illustrator 24.3.0, SVG Export Plug-In . SVG Version: 6.00 Build 0)  -->
<svg version="1.1" id="Layer_1" xmlns="http://www.w3.org/2000/svg" xmlns:xlink="http://www.w3.org/1999/xlink" x="0px" y="0px"
	 viewBox="0 0 4000 4000" style="enable-background:new 0 0 4000 4000;" xml:space="preserve">
<style type="text/css">
	.st0{fill:#FFFFFF;}
	.st1{fill:#02DAFF;}
	.st2{fill:#E68917;}
	.st3{fill:#555555;}
	.st4{fill:#FFA42C;}
	.st5{fill:#000072;}
	.st6{opacity:0.5;}
	.st7{fill:#E0E0E0;}
	.st8{fill:#C0C0C0;}
	.st9{fill:#C6C6C6;}
	.st10{fill:#8A8A8A;}
	.st11{opacity:0.3;}
	.st12{fill:#F3EFE7;}
	.st13{opacity:0.2;}
	.st14{fill:#4DD0E1;}
	.st15{fill:#FF3600;}
	.st16{opacity:0.6;}
	.st17{fill:#CBCBCA;}
	.st18{fill:#BFC9CA;}
	.st19{opacity:0.4;}
	.st20{opacity:0.4;clip-path:url(#SVGID_2_);}
	.st21{fill:#FFC107;}
</style>
<g>
	
	<g>
		<g>
			<g>
				<circle class="st1" cx="1959.87" cy="2156.33" r="1220.1"/>
			</g>
		</g>
		<g>
			<g>
				<path class="st2" d="M2800.93,2028.69c0,0,166.24,86.45,113.05,432.23c0,0-79.8,372.39-492.08,412.29
					C2421.89,2873.21,2209.1,2314.63,2800.93,2028.69z"/>
				<path class="st3" d="M2421.89,2884.94c-4.82,0-9.21-2.97-10.95-7.55c-0.56-1.47-13.8-36.55-24.57-93.75
					c-9.92-52.66-19.45-134.76-8.54-226.84c12.29-103.73,47.45-198.65,104.52-282.14c71.15-104.1,176.62-190.4,313.48-256.53
					c3.33-1.61,7.23-1.55,10.51,0.15c1.83,0.95,45.18,24.05,81.39,91.29c20.93,38.86,35.27,84.71,42.64,136.27
					c9.13,63.88,7.51,136.84-4.8,216.86c-0.03,0.23-0.08,0.45-0.12,0.67c-0.83,3.9-21.3,96.67-93.42,195.63
					c-42.4,58.18-93.92,106.26-153.13,142.92c-73.93,45.77-160.02,73.68-255.86,82.95
					C2422.64,2884.92,2422.26,2884.94,2421.89,2884.94z M2800.3,2042.04c-237.69,116.55-371.94,290.33-399.07,516.59
					c-10.68,89.09-1.54,168.68,8.01,219.76c7.41,39.61,16.2,68.68,20.67,82.21c162.81-17.9,291.49-90.08,382.58-214.62
					c67.5-92.29,88.61-181.37,89.94-187.21c26.88-175.18-4.39-280.53-35.37-338.06C2841.09,2072.44,2811.64,2049.57,2800.3,2042.04z
					"/>
			</g>
			<g>
				<path class="st4" d="M2800.93,2028.69c0,0,166.24,86.45,113.05,432.23c0,0-79.8,372.39-492.08,412.29
					C2421.89,2873.21,2209.1,2314.63,2800.93,2028.69z"/>
				<path class="st5" d="M2421.89,2884.94c-4.82,0-9.21-2.97-10.95-7.55c-0.56-1.47-13.8-36.55-24.57-93.75
					c-9.92-52.66-19.45-134.76-8.54-226.84c12.29-103.73,47.45-198.65,104.52-282.14c71.15-104.1,176.62-190.4,313.48-256.53
					c3.33-1.61,7.23-1.55,10.51,0.15c1.83,0.95,45.18,24.05,81.39,91.29c20.93,38.86,35.27,84.71,42.64,136.27
					c9.13,63.88,7.51,136.84-4.8,216.86c-0.03,0.23-0.08,0.45-0.12,0.67c-0.83,3.9-21.3,96.67-93.42,195.63
					c-42.4,58.18-93.92,106.26-153.13,142.92c-73.93,45.77-160.02,73.68-255.86,82.95
					C2422.64,2884.92,2422.26,2884.94,2421.89,2884.94z M2800.3,2042.04c-237.69,116.55-371.94,290.33-399.07,516.59
					c-10.68,89.09-1.54,168.68,8.01,219.76c7.41,39.61,16.2,68.68,20.67,82.21c162.81-17.9,291.49-90.08,382.58-214.62
					c67.5-92.29,88.61-181.37,89.94-187.21c26.88-175.18-4.39-280.53-35.37-338.06C2841.09,2072.44,2811.64,2049.57,2800.3,2042.04z
					"/>
			</g>
			<g class="st6">
				<path class="st0" d="M2868.02,2122.47c-25.99-49.05-56.23-72.67-67.76-80.41c-196.37,96.3-322.06,231.71-375.14,403.47
					c57.72-158.48,180.22-284.34,365.76-375.33c11.52,7.74,41.77,31.35,67.76,80.41c30.43,57.45,61.1,162.42,34.42,336.29
					c-0.31,1.36-1.72,7.33-4.54,16.79c9.36-25.57,13.37-42.5,13.92-44.93C2929.12,2284.89,2898.46,2179.92,2868.02,2122.47z"/>
			</g>
			<g>
				<path class="st7" d="M2846.38,2063.59c0,0,89.43,188.83-56.99,475.01c-107.88,182.67-209.4,283.92-311.73,314.65
					C2477.65,2853.25,2762.83,2085.18,2846.38,2063.59z"/>
				<path class="st5" d="M2477.65,2860.29c-1.92,0-3.78-0.78-5.13-2.22c-1.83-1.95-2.39-4.76-1.46-7.26
					c0.71-1.92,72.28-194.38,153.14-387.01c47.53-113.22,88.93-204.37,123.06-270.92c58.78-114.63,83.72-132.57,97.36-136.1
					c3.27-0.85,6.67,0.75,8.12,3.8c0.94,1.98,23.01,49.44,27.08,132.86c2.38,48.78-1.95,99.81-12.87,151.66
					c-13.63,64.69-37.62,130.88-71.3,196.71c-0.06,0.13-0.13,0.25-0.21,0.37c-54.52,92.31-106.53,162.87-159.01,215.68
					c-52.46,52.8-103.74,86.21-156.76,102.13C2479.01,2860.19,2478.33,2860.29,2477.65,2860.29z M2842.68,2073
					c-12.22,7.99-36.66,36.13-82.9,126.29c-33.97,66.23-75.22,157.06-122.61,269.95c-68.29,162.69-129.95,325.25-147.77,372.69
					c96.55-35.21,192.83-135.77,293.82-306.73c74.85-146.36,86.2-266.26,82.55-341.08C2862.66,2130.61,2848.62,2088.33,2842.68,2073
					z"/>
			</g>
			<g>
				<g>
					<path class="st7" d="M2924.38,2338.02c0.19-23.86-0.79-46.07-2.79-66.62c-21.27,231.07-168.65,399.32-298.94,547.82
						c13.73-6.55,26.71-13.61,39.23-20.96C2855.82,2621.41,2911.06,2447.41,2924.38,2338.02z"/>
					<path class="st5" d="M2622.64,2826.25c-2.15,0-4.25-0.99-5.61-2.79c-2.02-2.66-1.88-6.38,0.32-8.89
						c129.43-147.51,276.13-314.71,297.23-543.82c0.33-3.61,3.36-6.38,6.99-6.39c0.01,0,0.01,0,0.01,0c3.63,0,6.66,2.75,7.01,6.35
						c2.07,21.16,3.02,43.82,2.83,67.36c0,0.27-0.02,0.53-0.05,0.79c-8.43,69.21-30.03,138.9-64.21,207.13
						c-45.66,91.14-113.13,177.76-200.54,257.47c-0.36,0.33-0.76,0.62-1.18,0.87c-13.95,8.18-26.95,15.13-39.76,21.24
						C2624.7,2826.03,2623.66,2826.25,2622.64,2826.25z M2914.21,2359.5c-41.89,175.79-154.3,313.22-261.28,435.81
						c1.57-0.9,3.15-1.81,4.74-2.75C2835.37,2630.31,2895.97,2471.11,2914.21,2359.5z"/>
				</g>
			</g>
			<g>
				<path class="st8" d="M2834.18,2048.64c0,0-25.68-153.15-264.37-234.4c51.35,21.06-20.4,130,51.58,540.29
					c0,0-86.45,312.54-405.64,432.23c0,0-34.98,14.37-86.24,26.98c28.75,33.15,65.71,60.57,112.84,79.42
					c0,0,259.5,77.85,483.74-317.53c4.83-8.52,9.86-16.95,15.08-25.23C2770.9,2503.22,2886.54,2298.84,2834.18,2048.64z"/>
				<path class="st5" d="M2297.85,2911.1L2297.85,2911.1c-36.09,0-57.96-6.44-58.87-6.71c-0.33-0.1-0.66-0.22-0.99-0.34
					c-46.41-18.57-85.89-46.36-117.34-82.63c-2.68-3.09-3.55-7.34-2.32-11.23c1.24-3.89,4.41-6.86,8.38-7.84
					c49.83-12.26,84.24-26.3,84.59-26.44c0.11-0.05,0.22-0.09,0.34-0.13c161.6-60.6,261.24-172.54,316.38-255.78
					c54.02-81.55,77.13-152.31,81.35-166.16c-40.33-231.17-35.24-364.89-32.19-444.9c2.2-57.8,2.25-78.08-11.82-83.85
					c-5.86-2.4-8.76-9.03-6.53-14.97s8.76-9.03,14.76-6.99c55.54,18.9,104.34,43.29,145.06,72.47
					c32.8,23.51,60.48,50.18,82.25,79.27c36.33,48.54,44.09,87.57,44.81,91.54c22.62,108.22,17.24,220.1-15.99,332.55
					c-26.57,89.92-63.83,154.21-78.61,177.68c-5.04,8-10.02,16.33-14.81,24.77c-71.5,126.08-154.1,217.77-245.5,272.52
					C2411.93,2901.18,2342.34,2911.1,2297.85,2911.1z M2246.13,2882.05c2.99,0.81,21.97,5.6,51.71,5.61
					c88.81,0,261.21-41.29,418.04-317.8c4.96-8.75,10.13-17.4,15.36-25.7c34.28-54.4,142.17-250.75,91.45-493.1
					c-0.03-0.15-0.06-0.31-0.09-0.46c-0.06-0.33-6.78-37.1-41.46-82.93c-28.98-38.28-83.38-90.14-181.48-129.81
					c0.2,1.07,0.37,2.11,0.52,3.12c2.42,16.21,1.58,38.3,0.42,68.87c-3.03,79.4-8.09,212.29,32.33,442.67
					c0.3,1.71,0.22,3.47-0.25,5.15c-0.9,3.26-22.82,81-84.64,174.57c-36.3,54.94-78.88,103.84-126.56,145.35
					c-59.62,51.9-127.41,92.32-201.46,120.11c-2.69,1.09-28.91,11.63-68.53,22.46C2177.95,2846.61,2209.71,2867.39,2246.13,2882.05z
					"/>
			</g>
			<g>
				<path class="st9" d="M2545.32,1807.8c3.19,0.5,6.37,0.85,9.57,1.46C2554.89,1809.25,2551.45,1808.5,2545.32,1807.8z"/>
				<path class="st3" d="M2554.9,1820.98c-0.72,0-1.45-0.07-2.18-0.2c-1.75-0.33-3.59-0.59-5.52-0.86
					c-1.23-0.17-2.45-0.34-3.68-0.53c-6.31-0.98-10.67-6.83-9.81-13.16c0.85-6.33,6.6-10.81,12.95-10.08
					c6.53,0.75,10.34,1.56,10.75,1.65c6.26,1.37,10.26,7.52,8.98,13.8C2565.25,1817.14,2560.37,1820.98,2554.9,1820.98z"/>
			</g>
			<g>
				<path class="st10" d="M2554.89,1809.25c5.11,1.61,9.99,3.31,14.92,4.99C2560.69,1810.51,2554.89,1809.25,2554.89,1809.25z"/>
				<path class="st3" d="M2569.8,1825.97c-1.25,0-2.53-0.2-3.78-0.63l-2.92-1c-3.82-1.31-7.77-2.66-11.75-3.91
					c-5.97-1.89-9.41-8.14-7.8-14.19c1.61-6.06,7.69-9.78,13.81-8.45c0.7,0.15,7.1,1.59,16.89,5.6c5.86,2.4,8.76,9.03,6.53,14.97
					C2579.02,1823.05,2574.56,1825.97,2569.8,1825.97z"/>
			</g>
			<g>
				<path class="st8" d="M2570.83,2475.41c58.06-95.67,91.92-204.1,102.15-315.54c22.06-240.31-60.05-327.94-103.17-345.63
					c-4.93-1.68-9.8-3.38-14.92-4.99c-3.19-0.6-6.38-0.96-9.57-1.46c-48.34-5.53-273.71-7.53-462.57,393.79
					c0,0-127.33,411.43,46.76,612.15c51.26-12.61,86.24-26.98,86.24-26.98C2391.3,2720.93,2504.5,2584.7,2570.83,2475.41z"/>
				<path class="st5" d="M2129.51,2825.47c-3.35,0-6.6-1.44-8.86-4.04c-41.09-47.38-69.15-109.9-83.42-185.85
					c-11.29-60.12-14.01-128.79-8.08-204.1c10.06-127.77,42.07-232.31,42.39-233.35c0.16-0.52,0.36-1.03,0.59-1.53
					c170.61-362.55,372.45-401.69,451.31-401.69c8.2,0,16,0.42,23.2,1.24c0.16,0.02,0.32,0.04,0.48,0.06
					c1.1,0.17,2.21,0.33,3.31,0.48c2.12,0.3,4.32,0.6,6.62,1.04c0.46,0.09,0.91,0.2,1.36,0.34c4.24,1.34,8.32,2.73,12.27,4.08
					l2.89,0.99c0.23,0.08,0.45,0.16,0.67,0.25c9.73,3.99,24.84,12.53,41.56,30.54c15.99,17.23,29.72,39.11,40.8,65.02
					c28.46,66.54,37.89,154.68,28.04,261.98c-5.23,56.98-16.55,112.9-33.65,166.2c-17.5,54.57-41.11,106.5-70.15,154.36
					c-40.26,66.34-86.86,125.01-138.5,174.36c-66.73,63.79-141.54,111.5-222.32,141.83c-3.09,1.26-37.53,15.09-87.71,27.44
					C2131.38,2825.36,2130.44,2825.47,2129.51,2825.47z M2093.73,2205.81c-2.88,9.6-31.86,108.38-41.22,227.96
					c-8.79,112.3-1.59,266.13,81.24,366.82c45.89-11.78,77.22-24.53,77.55-24.67c0.11-0.04,0.22-0.09,0.33-0.13
					c174.6-65.48,286.25-202.79,349.17-306.46c55.49-91.43,90.24-198.81,100.5-310.53c9.49-103.38,0.66-187.69-26.25-250.61
					c-25.96-60.71-59.29-78.74-69.39-82.97l-2.56-0.87c-3.6-1.23-7.31-2.5-11.05-3.69c-1.55-0.27-3.16-0.5-4.86-0.74
					c-1.14-0.16-2.29-0.32-3.43-0.5c-6.25-0.7-13.08-1.06-20.3-1.06c-32.98,0-100.08,7.97-178.88,61.38
					C2249.84,1943.94,2165.44,2053.65,2093.73,2205.81z"/>
			</g>
			<g class="st6">
				<path class="st0" d="M2098.8,2234.03c187.41-397.6,410-394.16,453.41-389.25c1.15,0.18,2.3,0.34,3.45,0.5
					c1.64,0.23,3.27,0.46,4.9,0.74c3.84,1.22,7.55,2.49,11.26,3.76l2.47,0.84c22.52,9.38,51.27,36.54,72.18,88.61
					c-20.78-68.95-54.91-103.33-80.76-114.09l-2.45-0.84c-3.69-1.26-7.37-2.52-11.18-3.73c-1.62-0.29-3.25-0.51-4.87-0.74
					c-1.14-0.16-2.28-0.32-3.42-0.5c-43.1-4.87-264.08-8.28-450.13,386.44c-4.4,14.72-68.58,235.22-33.28,425.15
					C2036.57,2447.49,2094.6,2248.05,2098.8,2234.03z"/>
			</g>
			<g class="st6">
				<path class="st0" d="M2554.15,2136.33c-5.12-71.9-32.67-122.48-77.56-142.43c-44.88-19.94-100.88-6.48-157.67,37.92
					c-55.11,43.09-104.91,110.58-140.21,190.05c-35.3,79.47-52.01,161.66-47.03,231.44c5.12,71.9,32.67,122.48,77.56,142.42
					c13.55,6.02,28.11,8.99,43.4,8.99c35.36,0,74.62-15.92,114.27-46.91c55.11-43.09,104.91-110.58,140.21-190.04
					C2542.42,2288.3,2559.12,2206.11,2554.15,2136.33z"/>
			</g>
			<g>
				
					<ellipse transform="matrix(0.406 -0.9139 0.9139 0.406 -719.4168 3482.8035)" class="st8" cx="2319.46" cy="2294.82" rx="319.89" ry="170.3"/>
				<path class="st5" d="M2229.02,2604.67c-15.34,0-29.89-3.01-43.25-8.94c-44.89-19.94-72.43-70.52-77.56-142.42
					c-4.97-69.78,11.73-151.97,47.04-231.44c61.97-139.48,166.68-236.9,254.64-236.9c15.34,0,29.9,3.01,43.25,8.94
					c44.89,19.94,72.43,70.52,77.56,142.42c4.97,69.78-11.73,151.97-47.04,231.44C2421.69,2507.25,2316.98,2604.67,2229.02,2604.67z
					 M2409.89,2003.73c-37.75,0-81.94,21.78-124.43,61.33c-44,40.96-84.15,99.35-113.07,164.43
					c-34.08,76.71-50.23,155.72-45.47,222.49c4.61,64.65,28.21,109.61,66.46,126.61c10.94,4.86,22.93,7.33,35.63,7.33
					c37.75,0,81.94-21.78,124.43-61.33c44-40.96,84.15-99.35,113.07-164.43c34.08-76.71,50.23-155.72,45.47-222.49
					c-4.61-64.65-28.21-109.61-66.46-126.61C2434.58,2006.19,2422.6,2003.73,2409.89,2003.73z"/>
			</g>
			<g>
				<g>
					<path class="st8" d="M2475.09,2363.96c45.2-101.73,57.27-203.55,38.56-274.56c-19.82,12.76-276.41,184.32-238.05,491.23
						c0,0,38.26-17.51,86.22-51.1C2404.65,2489.06,2444.86,2432.01,2475.09,2363.96z"/>
					<path class="st5" d="M2275.6,2590c-1.58,0-3.15-0.4-4.57-1.19c-2.61-1.46-4.37-4.07-4.74-7.03
						c-8.95-71.61-2.7-141.74,18.59-208.45c17.21-53.92,44.26-105.81,80.4-154.24c61.99-83.06,130.24-129.19,143.29-137.59
						c2.52-1.62,5.68-1.94,8.48-0.86c2.8,1.09,4.91,3.45,5.67,6.35c19.97,75.8,5.37,180.76-39.06,280.76
						c-29.83,67.14-69.74,125.43-115.4,168.57c-0.33,0.31-0.69,0.6-1.06,0.86c-48.11,33.7-86.1,51.22-87.7,51.95
						C2278.26,2589.72,2276.93,2590,2275.6,2590z M2507.6,2104.9c-23.48,16.75-77.98,59.37-127.28,125.43
						c-76.27,102.19-108.83,215.14-96.89,335.94c14.65-7.58,41.57-22.46,72.44-44.03c43.67-41.4,81.92-97.43,110.65-162.08
						C2506.73,2269.64,2521.7,2175.52,2507.6,2104.9z"/>
				</g>
			</g>
			<g class="st11">
				<path class="st5" d="M2480.71,2025.23c-2.57-1.45-5.21-2.78-7.92-3.99c-85.95-38.19-213.78,61.74-285.51,223.2
					c-61.79,139.08-61.74,278.36-5.62,338.73c-0.08-0.04-0.15-0.09-0.22-0.14c2.64,1.5,5.35,2.89,8.14,4.13
					c85.95,38.19,213.78-61.74,285.51-223.2C2536.88,2224.88,2536.83,2085.6,2480.71,2025.23z"/>
			</g>
			<g class="st11">
				<path class="st5" d="M2475.09,2363.96c45.2-101.73,57.27-203.55,38.56-274.56c-19.82,12.76-276.41,184.32-238.05,491.23
					c0,0,38.26-17.51,86.22-51.1C2404.65,2489.06,2444.86,2432.01,2475.09,2363.96z"/>
			</g>
			<g>
				<path class="st8" d="M1198.34,1995.44c0,0,172.89-172.89,359.09-133c0,0,345.03,72.68,604.72,450.82
					c0,0,159.46,214.13,93.5,420.3c0,0-53.2,212.79-186.19,252.69C2069.45,2986.26,859.2,2214.89,1198.34,1995.44z"/>
				<path class="st5" d="M2069.46,2997.99c-2.21,0-4.4-0.62-6.3-1.84c-2.33-1.49-235.7-150.65-466.15-333.87
					c-135.58-107.79-243.72-206.17-321.42-292.41c-46.43-51.53-82.45-99.34-107.06-142.1c-27.65-48.04-41.73-91.22-41.86-128.36
					c-0.16-47.01,21.47-85.07,64.29-113.15c5.96-5.82,39.62-37.84,90.99-70.23c32.71-20.62,65.81-37.06,98.4-48.88
					c41.03-14.87,81.38-22.42,119.91-22.42c20.26,0,40.32,2.1,59.64,6.24c3.55,0.75,89.3,19.28,208.18,84.8
					c69.66,38.39,136.19,85.05,197.74,138.67c76.85,66.95,146.12,145,205.89,232c3.07,4.16,41.63,57.06,72.83,135.31
					c18.74,47,30.85,93.37,35.99,137.81c6.45,55.8,1.88,108.69-13.58,157.22c-1.35,5.31-14.87,56.73-44.08,113.52
					c-17.86,34.73-37.91,64.2-59.6,87.6c-27.64,29.82-58.07,49.87-90.43,59.58C2071.72,2997.82,2070.58,2997.99,2069.46,2997.99z
					 M1500.24,1868.2c-81.37,0-156.82,36.8-205.8,67.68c-53.38,33.65-87.48,67.52-87.82,67.86c-0.58,0.58-1.23,1.1-1.92,1.55
					c-36.87,23.86-54.73,54.62-54.6,94.05c0.4,116.56,159.98,304.88,461.49,544.59c211.63,168.26,425.67,307.63,459.55,329.48
					c61.91-21.16,105.09-83.84,130.64-133.4c29.05-56.35,42.36-108.76,42.49-109.28c0.06-0.24,0.13-0.49,0.21-0.73
					c32.95-102.99,6.48-208.55-21.52-278.98c-30.66-77.11-69.83-130.22-70.23-130.75c-0.09-0.12-0.17-0.24-0.26-0.36
					c-132.85-193.44-288.53-304.49-395.74-363.58c-115.85-63.85-200.89-82.22-201.73-82.4
					C1537.26,1870.12,1518.85,1868.2,1500.24,1868.2z"/>
			</g>
			<g class="st6">
				<path class="st0" d="M2152.73,2320.27c-132.84-193.42-288.16-304.37-395.12-363.46c-116.01-64.09-201.77-82.71-202.62-82.89
					c-18.24-3.91-36.43-5.67-54.31-5.67c-156.35,0-292.55,133.97-294.07,135.48c-0.58,0.58-1.23,1.1-1.91,1.55
					c-22.04,14.26-37.24,31.02-45.91,50.59c7.5-8.08,16.51-15.56,27.15-22.45c0.69-0.44,1.33-0.97,1.91-1.55
					c1.52-1.51,137.72-135.48,294.07-135.48c17.89,0,36.07,1.75,54.31,5.67c0.85,0.18,86.61,18.8,202.62,82.89
					c106.95,59.09,262.28,170.04,395.12,363.46c1.56,2.1,155.05,211.83,91.75,409.72c-0.08,0.24-0.15,0.49-0.21,0.73
					c-0.3,1.2-18.32,71.41-58.13,137.14c52.97-72.01,76.55-163.9,76.9-165.28c0.06-0.24,0.13-0.49,0.21-0.73
					C2307.79,2532.11,2154.29,2322.37,2152.73,2320.27z"/>
			</g>
			<g>
				<path class="st7" d="M1284.88,2042.58c10.99-38.6,49.04-63.01,89.08-60.21c113.66,7.94,382.37,64.44,635.65,398.77
					c0,0,192.84,246.04,166.24,445.53c0,0-13.3,172.89-159.59,186.19l-678.28-744.77
					C1337.98,2268.08,1254.86,2148.02,1284.88,2042.58z"/>
				<path class="st5" d="M2016.26,3019.89c-1.97,0-3.86-0.83-5.2-2.3l-678.28-744.77c-0.21-0.23-0.41-0.48-0.58-0.73
					c-0.87-1.25-21.44-31.18-38.57-74.64c-15.93-40.42-31.56-100.44-15.52-156.8c10.99-38.59,47.84-65.54,89.61-65.54
					c2.23,0,4.5,0.08,6.72,0.23c60.26,4.21,155.69,21.11,268.14,77.72c136.55,68.74,261.91,177.67,372.6,323.77
					c1.66,2.13,49.65,64.04,93.76,149c26.28,50.62,46.11,99.45,58.92,145.14c16.09,57.38,21.13,110.01,14.98,156.42
					c-0.31,3.72-4.2,45.97-25.6,90.42c-29.41,61.08-77.94,96.36-140.36,102.04C2016.68,3019.88,2016.47,3019.89,2016.26,3019.89z
					 M1343.52,2263.72l675.56,741.79c56.17-6.19,98.32-37.6,125.32-93.41c20.9-43.2,24.41-85.55,24.44-85.97
					c0.01-0.13,0.02-0.26,0.04-0.39c13.5-101.23-31.93-215.43-72.42-293.41c-44.07-84.88-91.91-146.25-92.39-146.86
					c-0.02-0.03-0.05-0.06-0.07-0.09c-254.09-335.4-525.6-388.66-630.53-396c-1.9-0.13-3.84-0.2-5.74-0.2
					c-35.52,0-66.81,22.75-76.08,55.32C1263.67,2142.77,1338.58,2256.39,1343.52,2263.72z"/>
			</g>
			<g class="st6">
				<g>
					<path class="st12" d="M2139.17,2742.22c1.19,11.81,1.04,17.47,1.13,29c0.05,7.34-0.76,24.32-1.13,31.52l31.72-37.3
						c-0.91-17.33-4.89-41.88-8.45-60.46C2153.32,2713.86,2147.2,2734.7,2139.17,2742.22z"/>
				</g>
			</g>
			<g class="st11">
				<path class="st3" d="M2175.85,2775.46c0,0-13.3,172.89-159.59,186.19l-678.28-744.77c0,0-48.48-70.1-57.99-150.21
					c-12.98,98.81,57.99,201.42,57.99,201.42l678.28,744.77c146.29-13.3,159.59-186.19,159.59-186.19
					c2.85-21.38,3.17-43.3,1.48-65.39C2176.94,2766.02,2176.48,2770.76,2175.85,2775.46z"/>
			</g>
			<g>
				<path class="st4" d="M1390.1,2016.48c130.08,27.42,507.3,144.71,709.16,604.02c21.54,49.02,33.66,101.88,34.05,155.42
					c0.5,67.56-16.65,150.83-88.67,209.48c-40.48,31.48-73.06,50.1-166.81,51.96c-75.32-4.54-201.76-18.91-247.26-64.4
					c0,0-765.73-382.87-315.67-929.82C1333.11,2021.01,1362.05,2010.57,1390.1,2016.48z"/>
				<path class="st5" d="M1877.82,3049.09c-0.23,0-0.47-0.01-0.7-0.02c-89.91-5.42-206.41-21.36-253.48-66.48
					c-13.36-6.9-104-54.84-200.25-134.6c-61.06-50.6-112.51-103.99-152.94-158.67c-50.83-68.77-84.29-139.83-99.45-211.21
					c-31.21-146.9,14.16-295.75,134.84-442.41c17.03-20.7,42.04-32.57,68.61-32.57c6.05,0,12.13,0.63,18.06,1.88
					c64.7,13.64,193.82,50.19,331.73,141.76c76.27,50.64,145.65,111.8,206.21,181.77c71.86,83.04,132.27,179.68,179.54,287.24
					c22.85,52,34.64,105.85,35.04,160.05c0.3,40.84-5.7,78.58-17.84,112.16c-15.4,42.6-40.68,78.43-75.15,106.5
					c-0.07,0.06-0.14,0.11-0.21,0.16c-40.63,31.6-74.68,52.46-173.78,54.43C1877.98,3049.09,1877.9,3049.09,1877.82,3049.09z
					 M1374.46,2026.58c-19.54,0-37.94,8.75-50.5,24.02c-115.92,140.87-159.66,283.07-130.01,422.64
					c32.85,154.63,151.04,279.32,244.41,356.7c101.7,84.28,196.51,132.07,197.46,132.54c1.13,0.56,2.16,1.31,3.05,2.2
					c43.01,43.01,168.11,56.65,239.2,60.96c91.63-1.88,121.36-19.93,159.27-49.4c56.54-46.1,84.89-113.46,84.25-200.22
					c-0.38-50.99-11.5-101.73-33.06-150.79c-196.51-447.13-555.58-566.63-700.84-597.26
					C1383.34,2027.04,1378.89,2026.58,1374.46,2026.58z"/>
			</g>
			<g class="st13">
				<path class="st5" d="M1749.65,1939.15c-112.09-59.81-192.23-76.7-192.23-76.7c-186.19-39.9-359.09,132.99-359.09,132.99
					c-83.12,53.78-73.13,140.73-10.74,241.34l122.34-100.09C1397.4,1874.3,1700.91,1925.85,1749.65,1939.15z"/>
			</g>
			<g class="st6">
				<path class="st0" d="M2121.58,2776.01c-0.38-51-11.5-101.73-33.06-150.79c-34.69-78.94-74.47-147.64-117.22-207.47
					c-38.64-54.07-79.72-100.89-121.73-141.4c-99.52-95.96-204.19-156.59-293.69-194.75c-0.01,0-0.02-0.01-0.03-0.01
					c-6.73-2.87-13.37-5.61-19.93-8.23c-0.17-0.07-0.35-0.14-0.52-0.21c-6.42-2.56-12.74-5.01-18.97-7.35
					c-0.32-0.12-0.64-0.24-0.97-0.36c-6.13-2.29-12.17-4.48-18.1-6.57c-0.33-0.12-0.65-0.22-0.98-0.34
					c-42.68-14.92-79.91-24.51-108.71-30.58c-4.43-0.93-8.9-1.39-13.32-1.39c-19.22,0-37.72,8.62-50.41,24.03
					c-28.02,34.06-51.79,68.19-71.36,102.35c16.58-26.33,35.68-52.63,57.29-78.89c12.68-15.42,31.19-24.03,50.41-24.03
					c4.42,0,8.88,0.46,13.32,1.39c21.33,4.5,47.27,10.91,76.63,20c14.99,4.64,24.64,19.25,23.06,34.86l-32.07,317.39l79.28,8.01
					l27.82-275.32c2.32-22.92,26.86-36.61,47.45-26.29c77.56,38.86,162.64,94.55,244.08,174.05c0.71,21.34,13.02,49.15,34.8,74.16
					c21.98,25.25,48.11,41.33,69.26,44.76c47.82,63.99,92.27,138.57,130.54,225.64c21.57,49.06,32.69,99.79,33.06,150.79
					c0.37,50.56-9.17,94.49-28.3,131.48C2107.74,2889.58,2122.04,2837.73,2121.58,2776.01z"/>
			</g>
			<g>
				<g>
					<path class="st14" d="M2827.74,2026.83c2.47-22.95,36.02-246.6-72.25-553.3C2594.96,987.5,2225.93,645.8,1861.24,645
						c-835.79,0-942.19,1137.65-376.96,1609.79c0,0-292.54-305.99-228.76-889.15c0,0,54.67-619.61,494.75-494
						c0,0,646.58,116.44,792.08,935.85c8.08,0.77,12.54,1.77,12.54,1.77C2750.38,1870.99,2810.51,1980.42,2827.74,2026.83z"/>
					<path class="st5" d="M1484.27,2266.51c-2.66,0-5.33-0.9-7.51-2.73c-80.45-67.2-149.61-149.4-205.58-244.33
						c-53.17-90.19-93.17-189.54-118.87-295.3c-25.09-103.25-35.67-208.69-31.43-313.41c4.28-105.7,23.49-206.29,57.11-298.96
						c25.17-69.4,58.19-133.26,98.13-189.78c41.69-59,90.98-110.08,146.53-151.83c58.36-43.86,124.02-77.71,195.17-100.59
						c74.9-24.09,156.8-36.3,243.43-36.3c91.26,0.2,184.05,21.22,275.82,62.48c89.15,40.08,175.22,98.27,255.84,172.95
						c80.45,74.53,153.25,163.42,216.37,264.21c64.68,103.28,117.61,216.6,157.33,336.82c43.99,124.65,70.08,250.26,77.55,373.32
						c3.9,64.29,2.46,125.21-4.28,181.08c-0.2,1.67-0.36,3-0.46,3.95c-0.58,5.41-4.81,9.71-10.21,10.38
						c-5.39,0.67-10.55-2.46-12.45-7.56c-16-43.1-73.81-149.81-264.82-210.3c-1.17-0.23-4.88-0.91-10.68-1.46
						c-5.25-0.5-9.52-4.43-10.44-9.62c-74.48-419.45-283.64-649.04-445.98-767.79c-91.83-67.17-178.69-106.76-235.39-128.14
						c-61.18-23.07-100.85-30.36-101.24-30.43c-0.38-0.07-0.76-0.16-1.14-0.26c-38.03-10.85-74.62-16.36-108.75-16.36
						c-134.87,0-238.24,83.51-307.21,248.21c-52.18,124.58-63.78,250.65-63.89,251.91c-0.01,0.08-0.01,0.16-0.02,0.24
						c-32.67,298.68,30.67,522.3,89.55,657.3c61.41,140.79,130.4,216.43,135.7,222.13c2.21,2.13,3.59,5.13,3.59,8.45
						c0,6.45-5.21,11.69-11.65,11.73C1484.34,2266.51,1484.3,2266.51,1484.27,2266.51z M1861.21,656.73
						c-313.45,0-554.45,168.78-661.18,463.05c-124.28,342.66-39.43,762.56,195.46,1031.56c-19.26-32.27-40.09-71.52-60.26-117.75
						c-38.22-87.62-65.96-182.19-82.44-281.07c-20.58-123.44-23.59-254-8.94-388.04c0.62-6.97,12.42-131.78,65.61-258.77
						c31.71-75.7,71.61-136.15,118.6-179.67c59.43-55.03,130.17-82.94,210.25-82.94c36.15,0,74.72,5.75,114.65,17.1
						c5.5,1.04,44.97,8.91,104.76,31.45c58.06,21.9,147,62.43,240.96,131.16c105.58,77.23,195.88,173.59,268.4,286.41
						c89.14,138.69,151.46,302.72,185.29,487.66c3.05,0.47,4.8,0.85,5.1,0.92c0.32,0.07,0.64,0.16,0.96,0.26
						c86.52,27.32,156.49,66.81,207.96,117.35c24.59,24.15,41.78,47.7,53.76,68.31c6.78-94.83,4.48-279.15-75.71-506.3
						c-0.03-0.07-0.05-0.15-0.08-0.23c-77.02-233.18-207.5-443.17-367.4-591.3C2217.82,738.5,2034.66,657.11,1861.21,656.73z"/>
				</g>
			</g>
			<g class="st6">
				<path class="st0" d="M2744.43,1477.43c-77.09-233.4-207.57-443.4-367.48-591.52c-159.13-147.41-342.29-228.8-515.74-229.18
					c-313.45,0-554.45,168.78-661.18,463.05c-38.77,106.89-57.18,221.29-57.05,336.28c0,0.41,0,0.81,0,1.21
					c0.01,2.57,0.05,5.14,0.08,7.71c1.81-108.59,20.25-216.3,56.89-317.31c106.75-294.31,347.78-463.11,661.26-463.11
					c173.48,0.38,356.66,81.78,515.8,229.2c159.92,148.13,290.4,358.14,367.5,591.56c60.09,170.22,76.42,316.29,77.99,418.78
					C2823.56,1821.17,2810.19,1663.72,2744.43,1477.43z"/>
			</g>
			<g class="st6">
				<path class="st0" d="M1335.31,2061.48c5.37,12.31,10.79,24.08,16.21,35.4c1.2,1.61,2.42,3.22,3.63,4.82
					c4.47,5.9,9.02,11.73,13.62,17.52c3.18,4,6.4,7.98,9.64,11.92c4.01,4.87,8.07,9.69,12.17,14.47c1.64,1.91,3.25,3.83,4.91,5.73
					c-19.26-32.27-40.1-71.52-60.26-117.76c-47.06-107.88-96.9-271.22-100.23-483.14
					C1234.17,1775.93,1286.22,1948.93,1335.31,2061.48z"/>
			</g>
			<g>
				<path class="st7" d="M1402.95,2184.99c9.68-10.12,25.69-10.61,36.48-1.7c18.42,15.22,56.85,40.03,131.29,64.84
					c0,0,167.62,55.87,310.9,263.59c12.42,18,23.24,37.08,32.49,56.89c41.81,89.55,127.78,326.72-97.35,391.04
					C1816.76,2959.66,1346.63,3169.78,1402.95,2184.99z"/>
				<path class="st5" d="M1717.25,2985.49c-31.36,0-61.43-5.46-89.39-16.21c-34.53-13.29-65.95-34.75-93.38-63.8
					c-50.95-53.95-88.84-134.66-112.64-239.9c-28.3-125.16-37.02-286.99-25.92-480.98c0.1-1.67,0.78-3.25,1.94-4.46
					c6.28-6.56,14.82-10.18,24.04-10.18c8,0,15.82,2.81,22,7.92c19.06,15.74,56.91,39.55,129.03,63.59
					c1.75,0.58,43.49,14.73,103.4,54.72c55.09,36.78,136.42,103.33,211.07,211.54c12.4,17.97,23.52,37.45,33.07,57.91
					c14.62,31.32,34.25,79.77,44.76,132.75c12.68,63.9,9.01,118.43-10.89,162.06c-23.33,51.16-68.83,86.77-135.21,105.84
					C1814.04,2968.51,1772.92,2985.49,1717.25,2985.49z M1409.82,2188.22c-10.77,191.43-2.11,350.98,25.76,474.25
					c23.23,102.75,59.95,181.26,109.14,233.35c47.38,50.17,105.43,75.61,172.54,75.61c55.12,0,96.23-18.01,96.64-18.19
					c0.3-0.13,0.62-0.25,0.93-0.34c62.5-17.86,105.14-50.92,126.73-98.28c42.26-92.67-3.05-217.1-33.82-283.02
					c-9.22-19.75-19.96-38.55-31.91-55.87c-73.22-106.14-152.87-171.42-206.79-207.49c-58.46-39.1-100.14-53.28-100.55-53.42
					c-74.18-24.73-113.56-49.59-133.54-66.09c-3.67-3.03-8.3-4.7-13.04-4.7C1417.4,2184.02,1413.19,2185.49,1409.82,2188.22z"/>
			</g>
			<g>
				<g>
					<path class="st15" d="M1158.44,1513.34l87.82-23.06c1.78-47.11,5.64-96.24,12.2-147.65l-86.73,11.11
						C1168.38,1401.72,1155.55,1463.89,1158.44,1513.34z"/>
					<path class="st5" d="M1158.44,1522.72c-1.96,0-3.89-0.61-5.51-1.79c-2.28-1.65-3.69-4.24-3.85-7.04
						c-1.92-32.88,2.81-70.28,7.38-106.46c2.45-19.38,4.76-37.69,5.93-54.34c0.31-4.46,3.73-8.08,8.17-8.65l86.73-11.11
						c2.88-0.37,5.77,0.62,7.82,2.67c2.05,2.05,3.04,4.94,2.67,7.82c-6.22,48.71-10.3,98.1-12.13,146.82
						c-0.16,4.13-3,7.67-6.99,8.72l-87.82,23.06C1160.03,1522.62,1159.23,1522.72,1158.44,1522.72z M1180.49,1362.08
						c-1.29,14.99-3.31,30.95-5.43,47.7c-3.93,31.06-7.97,63.05-7.65,91.5l69.75-18.31c1.8-43,5.33-86.47,10.5-129.5
						L1180.49,1362.08z"/>
				</g>
			</g>
			<g>
				<path class="st4" d="M1803.46,2959.66c282.17-364.09-345.79-731.47-345.79-731.47c-16.82-15.29-32.44-31.59-47.04-48.66
					c-239.47-279.91-191.57-777.44-191.57-777.44c22.14-553.6,364.18-703.27,478.15-737.88
					c-1177.59,311.11-585.33,1577.28-585.33,1577.28c18.35,55.04,24.04,154.38,25.8,210.72c1.02,32.45,6.15,64.69,16.08,95.6
					c106.15,330.35,370.4,438.45,370.4,438.45c168.44,58.24,249.58,1.55,272.35-19.45
					C1801.19,2962.5,1803.46,2959.66,1803.46,2959.66z"/>
				<path class="st5" d="M1660.3,3025.87C1660.29,3025.87,1660.3,3025.87,1660.3,3025.87c-42.88,0-90.23-8.85-140.72-26.31
					c-0.25-0.08-0.49-0.18-0.73-0.27c-2.78-1.14-69.1-28.69-149.25-97.71c-46.94-40.43-88.89-86.79-124.69-137.81
					c-44.72-63.74-79.89-134.95-104.54-211.65c-10.02-31.19-15.66-64.66-16.75-99.47c-1.69-53.94-7.17-152.21-24.85-205.99
					c-5.63-12.28-74.29-164.54-116.4-369.23c-25.71-124.95-36.71-244.87-32.69-356.41c5.04-139.92,33.86-267.02,85.66-377.77
					c112.87-241.32,334.34-407.07,658.27-492.65c7.41-1.96,15.04,2.38,17.13,9.76c2.09,7.38-2.11,15.08-9.45,17.31
					c-104.29,31.67-446.28,177.56-468.18,724.98c-0.01,0.26-0.03,0.52-0.05,0.79c-0.12,1.23-11.64,125.23,6.03,281.42
					c16.2,143.26,60.97,343.79,182.23,485.52c14.34,16.76,29.39,32.38,44.75,46.43c11.9,7.07,96.69,58.43,188.38,139.5
					c57.03,50.42,104.67,101.82,141.62,152.76c46.64,64.31,76.34,128.2,88.27,189.87c18.42,95.23-5.05,185.85-69.76,269.34
					c-0.04,0.06-0.09,0.11-0.13,0.17c-0.3,0.38-3.09,3.82-8.39,8.71C1790.19,2991.8,1744.19,3025.87,1660.3,3025.87z
					 M1529.19,2973.1c47.37,16.34,91.48,24.62,131.1,24.63c73.97,0,113.24-28.85,126.69-41.26c3.33-3.07,5.15-5.19,5.49-5.59
					c59.42-76.75,81.04-159.7,64.25-246.55c-25.33-131.05-133.89-249.93-220.5-326.59c-94.79-83.89-184.75-136.89-185.65-137.41
					c-0.84-0.49-1.63-1.07-2.36-1.73c-16.59-15.08-32.83-31.88-48.27-49.92c-55.79-65.21-100.74-147.37-133.59-244.19
					c-26.14-77.05-44.74-163.54-55.28-257.07c-17.39-154.38-6.79-278.05-6.04-286.26c5.22-129.66,28.44-246.83,69.01-348.28
					c34.21-85.53,81.09-160.87,139.35-223.91c32.07-34.7,65.23-63.21,97.52-86.57c-213.43,91.35-364.4,229.65-450.05,412.77
					c-113.85,243.41-90.52,524.03-50.9,716.58c43.06,209.28,113.98,362.25,114.69,363.77c0.23,0.49,0.43,1,0.6,1.51
					c19.01,57.02,24.77,159.01,26.52,214.73c1.01,32.18,6.19,63.05,15.41,91.74c53.83,167.53,149.78,275.6,220.79,336.75
					C1461.91,2943.93,1524.22,2971,1529.19,2973.1z"/>
			</g>
			<g class="st6">
				<path class="st0" d="M1667.71,2967.34c8.32-3.67,16.29-8.26,23.29-14.06c51-42.31,61.35-110.32,61.72-156.61
					c0.22-27.64-4.41-55.21-12.76-81.56c-116.11-366.74-449.38-358.29-449.38-358.29c-132.79-11.02-199.7-241.67-199.7-241.67
					c-1.39,9.45-2.45,18.62-3.55,27.83c21.15,57.68,36.98,91.84,37.31,92.56l0.6,1.51c19.01,57,24.78,159,26.53,214.73
					c1.01,32.18,6.19,63.04,15.41,91.74c101.34,315.38,351.73,425.23,362.02,429.6c9.48,3.27,18.64,6.13,27.54,8.67
					C1607.24,2989.13,1647.24,2976.37,1667.71,2967.34z"/>
			</g>
			<g class="st16">
				<path class="st3" d="M1827.27,2956.45c1.28-0.42,2.52-0.85,3.78-1.28C1829.78,2955.59,1828.55,2956.03,1827.27,2956.45z"/>
			</g>
			<g class="st16">
				<path class="st3" d="M1837.2,2953.02c1.55-0.57,3.07-1.15,4.59-1.73C1840.27,2951.87,1838.75,2952.45,1837.2,2953.02z"/>
			</g>
			<g class="st16">
				<path class="st3" d="M1846.52,2949.41c1.71-0.7,3.4-1.4,5.07-2.12C1849.93,2948.01,1848.23,2948.72,1846.52,2949.41z"/>
			</g>
			<g class="st16">
				<path class="st3" d="M1855.12,2945.72c1.9-0.85,3.79-1.71,5.63-2.6C1858.91,2944.01,1857.02,2944.87,1855.12,2945.72z"/>
			</g>
			<g class="st16">
				<g>
					<path class="st12" d="M1536.25,2977.68c-4.83-1.94-70.84-29.21-149.14-95.4c74.35,63.96,136.55,91.12,141.21,93.1
						c64.85,22.38,116.08,27.13,155.58,23.61C1645.66,3001.91,1597,2997.31,1536.25,2977.68z"/>
				</g>
			</g>
			<g>
				<g>
					<path class="st8" d="M2501.69,1117.68C1983.01,479.3,1462.86,912.56,1462.86,912.56l0,0c0.04-0.02,0.07-0.03,0.11-0.05
						c4.17-1.81,8.32-3.55,12.47-5.24c123.07-50.14,261.12-48.75,384.77-0.04c74.41,29.31,176.47,79.62,279.01,161.98
						c120.21,99.12,242.86,245.72,326.61,461.03c5.3,14.68,76.52,177.09,76.52,277.24c8.08,0.77,12.54,1.77,12.54,1.77
						c128.17,40.47,198.15,101.45,236.01,151.73l0,0C2820.88,1470.89,2501.69,1117.68,2501.69,1117.68z"/>
					<path class="st5" d="M2790.89,1970.36c-2.9,0-5.69-1.34-7.5-3.74c-33.93-45.06-101.52-107.34-230.89-148.28
						c-1.1-0.22-4.95-0.94-11.04-1.52c-4.82-0.46-8.5-4.5-8.5-9.34c0-57.68-24.11-146.26-71.67-263.28
						c-2.14-5.27-3.57-8.78-4.25-10.66c-72.26-185.71-181.19-339.49-323.76-457.06c-104.2-83.68-207.88-133.48-276.52-160.52
						c-61.3-24.15-125.39-36.4-190.49-36.4c-65,0-128.01,12.25-187.3,36.4c-4.06,1.65-8.19,3.39-12.28,5.16
						c-0.07,0.03-0.16,0.07-0.24,0.1c-4.23,1.76-9.14,0.2-11.57-3.72c-2.47-3.98-1.63-9.16,1.97-12.16
						c1.8-1.5,44.84-37.05,118.79-73.05c43.38-21.11,88.4-37.94,133.81-50.01c56.82-15.1,114.42-22.76,171.19-22.76
						c102.48,0,203.42,24.85,300.03,73.85c115.2,58.43,225.6,152.02,328.15,278.21c4.32,4.84,83.06,94.16,157.07,239.71
						c44.47,87.46,78.64,177.92,101.55,268.87c28.67,113.78,39.7,228.64,32.81,341.39c-0.24,3.92-2.9,7.28-6.66,8.41
						C2792.7,1970.23,2791.79,1970.36,2790.89,1970.36z M2551.58,1799.15c3.37,0.5,5.24,0.92,5.37,0.95
						c0.26,0.06,0.51,0.13,0.77,0.21c59.29,18.72,111.24,43.43,154.4,73.43c27.07,18.82,50.74,39.73,70.62,62.37
						c9.04-240.31-66.79-444.85-133.28-575.77c-74.61-146.9-153.93-235.49-154.72-236.37c-0.11-0.12-0.22-0.25-0.32-0.37
						c-186.16-229.12-392.66-345.29-613.76-345.29c-124.94,0-230.36,38.54-296.79,70.88c-21.33,10.38-40.08,20.78-55.93,30.29
						c44.69-12.4,91.02-18.66,138.35-18.66c67.46,0,133.87,12.68,197.37,37.7c69.86,27.52,175.39,78.21,281.45,163.39
						c0.03,0.03,0.06,0.05,0.09,0.08c145.13,119.66,255.95,276.07,329.39,464.87c0.03,0.07,0.06,0.14,0.08,0.22
						c0.54,1.49,2.08,5.28,4.03,10.08c7.91,19.46,26.43,65.04,42.58,115.96C2540.07,1712.36,2550.25,1761.43,2551.58,1799.15z"/>
				</g>
			</g>
			<g class="st13">
				<path class="st3" d="M2731.2,1550.36c0,0,17.33,214.4-192.32,225.15l3.05,25.77c0,0,173.45,39.7,242.33,152.38
					C2784.27,1953.66,2796.87,1653.56,2731.2,1550.36z"/>
			</g>
			<g class="st6">
				<path class="st0" d="M2585.86,1800.3c-0.25-0.08-0.51-0.15-0.77-0.21c-0.13-0.03-2-0.44-5.37-0.95
					c-0.64-18.27-3.39-39.16-8.16-62.55l190.05-55.9c-0.93-4.64-1.89-9.24-2.87-13.83l-190.17,55.93
					c-11.65-51.05-32.26-113.1-61.76-185.68c-2.03-5-3.44-8.46-4.1-10.28c-73.44-188.8-184.26-345.21-329.48-464.95
					c-106.06-85.18-211.59-135.87-281.45-163.39c-68.9-27.15-140.89-39.67-212.02-37.66c61.9,1.59,124.05,14.09,183.88,37.66
					c69.86,27.52,175.39,78.21,281.45,163.39c145.22,119.74,256.04,276.15,329.48,464.95c0.66,1.83,2.07,5.28,4.1,10.28
					c31.02,76.32,52.2,140.98,63.47,193.46l0,0c1.01,4.72,1.94,9.33,2.79,13.84c3.81,20.22,6.07,38.53,6.64,54.72
					c3.37,0.5,5.24,0.92,5.37,0.95c0.26,0.06,0.51,0.13,0.76,0.21c116.99,36.95,185.69,91.21,225.02,135.84
					C2783.08,1926.78,2679.29,1829.81,2585.86,1800.3z"/>
			</g>
			<g>
				<path class="st5" d="M2530.21,1734.4c-3.04,0-5.85-1.99-6.75-5.05c-1.1-3.73,1.04-7.64,4.76-8.74l237.42-69.83
					c3.73-1.1,7.64,1.04,8.74,4.76s-1.04,7.64-4.76,8.74l-237.42,69.83C2531.53,1734.3,2530.87,1734.4,2530.21,1734.4z"/>
			</g>
			<g>
				<g>
					<path class="st15" d="M2772.73,1529.21c-11.22-38.81-24.45-78.8-40.13-119.61l-42.3,15.23c16.06,36.62,31.35,76,44.99,117.86
						L2772.73,1529.21z"/>
					<path class="st5" d="M2735.28,1552.07c-1.42,0-2.83-0.32-4.12-0.95c-2.28-1.12-4.01-3.11-4.8-5.52
						c-12.78-39.19-27.8-78.56-44.66-117c-1.04-2.38-1.05-5.09-0.03-7.47c1.03-2.39,3-4.24,5.44-5.12l42.3-15.23
						c4.8-1.73,10.11,0.7,11.94,5.46c14.98,39.01,28.57,79.5,40.39,120.37c1.37,4.75-1.18,9.76-5.83,11.43l-37.44,13.48
						C2737.43,1551.89,2736.36,1552.07,2735.28,1552.07z M2702.88,1430.26c14.2,33.06,27.05,66.73,38.29,100.33l20.08-7.23
						c-10.2-34.5-21.65-68.68-34.14-101.83L2702.88,1430.26z"/>
				</g>
				<g>
					<path class="st17" d="M2690.29,1424.83l-233.06,83.9c2.91,7.1,5.78,14.26,8.6,21.52c2.48,6.87,19.41,46.14,36.72,96.23
						l232.73-83.78C2721.64,1500.83,2706.35,1461.45,2690.29,1424.83z"/>
					<path class="st3" d="M2502.55,1635.85c-1.39,0-2.77-0.31-4.05-0.92c-2.26-1.08-4-3.03-4.82-5.4
						c-13.02-37.69-25.62-68.68-32.38-85.33c-2.14-5.27-3.57-8.78-4.25-10.66c-2.62-6.75-5.41-13.7-8.5-21.26
						c-0.97-2.37-0.93-5.03,0.11-7.37c1.04-2.34,2.99-4.15,5.39-5.02l233.06-83.9c4.64-1.67,9.79,0.54,11.77,5.06
						c17.11,39,32.36,78.95,45.32,118.72c1.57,4.82-0.97,10.02-5.74,11.73l-232.73,83.78
						C2504.7,1635.67,2503.62,1635.85,2502.55,1635.85z M2469.59,1514.25c1.74,4.33,3.39,8.5,4.98,12.6
						c0.03,0.07,0.05,0.14,0.08,0.22c0.54,1.49,2.08,5.28,4.03,10.08c5.84,14.37,17.5,43.05,29.6,77.3l215.23-77.48
						c-11.23-33.6-24.09-67.27-38.32-100.32L2469.59,1514.25z"/>
				</g>
				<g>
					<path class="st15" d="M2690.29,1424.83l-233.06,83.9c2.91,7.1,5.78,14.26,8.6,21.52c2.48,6.87,19.41,46.14,36.72,96.23
						l232.73-83.78C2721.64,1500.83,2706.35,1461.45,2690.29,1424.83z"/>
					<path class="st5" d="M2502.55,1635.85c-1.39,0-2.77-0.31-4.05-0.92c-2.26-1.08-4-3.03-4.82-5.4
						c-13.02-37.69-25.62-68.68-32.38-85.33c-2.14-5.27-3.57-8.78-4.25-10.66c-2.62-6.75-5.41-13.7-8.5-21.26
						c-0.97-2.37-0.93-5.03,0.11-7.37c1.04-2.34,2.99-4.15,5.39-5.02l233.06-83.9c4.64-1.67,9.79,0.54,11.77,5.06
						c17.11,39,32.36,78.95,45.32,118.72c1.57,4.82-0.97,10.02-5.74,11.73l-232.73,83.78
						C2504.7,1635.67,2503.62,1635.85,2502.55,1635.85z M2469.59,1514.25c1.74,4.33,3.39,8.5,4.98,12.6
						c0.03,0.07,0.05,0.14,0.08,0.22c0.54,1.49,2.08,5.28,4.03,10.08c5.84,14.37,17.5,43.05,29.6,77.3l215.23-77.48
						c-11.23-33.6-24.09-67.27-38.32-100.32L2469.59,1514.25z"/>
				</g>
				<g class="st6">
					<g>
						<polygon class="st17" points="2516.25,1611.64 2600.04,1581.48 2600.04,1467.21 2516.25,1497.38 						"/>
					</g>
					<g class="st16">
						<path class="st12" d="M2600.04,1581.48l-83.8,30.17v-114.27l83.8-30.17V1581.48z"/>
					</g>
				</g>
				<g>
					<g>
						<polygon class="st5" points="2646.59,1480.63 2530.21,1522.53 2536.71,1539.84 2652.95,1497.57 						"/>
						<path class="st5" d="M2536.71,1544.54c-1.9,0-3.69-1.16-4.39-3.04l-6.5-17.32c-0.44-1.17-0.39-2.48,0.13-3.62
							c0.53-1.14,1.49-2.02,2.67-2.44l116.38-41.9c2.42-0.87,5.08,0.36,5.98,2.77l6.35,16.95c0.44,1.17,0.39,2.47-0.13,3.61
							c-0.52,1.14-1.48,2.02-2.66,2.45l-116.24,42.27C2537.78,1544.44,2537.24,1544.54,2536.71,1544.54z M2536.27,1525.33l3.19,8.52
							l107.43-39.06l-3.07-8.18L2536.27,1525.33z"/>
					</g>
					<g>
						<g>
							<polygon class="st14" points="2652.95,1497.57 2611.46,1512.66 2616.34,1524.85 2579.09,1538.82 2574.82,1525.99 
								2536.71,1539.84 2561.27,1605.33 2677.65,1563.44 							"/>
							<path class="st5" d="M2561.27,1610.03c-1.9,0-3.69-1.16-4.39-3.04l-24.56-65.49c-0.44-1.17-0.39-2.47,0.13-3.61
								c0.52-1.14,1.48-2.02,2.66-2.45l38.11-13.86c1.19-0.43,2.5-0.37,3.64,0.18c1.14,0.55,2.01,1.54,2.41,2.74l2.74,8.22
								l28.2-10.57l-3.1-7.74c-0.47-1.18-0.44-2.5,0.07-3.66c0.52-1.16,1.48-2.06,2.68-2.49l41.49-15.09c2.42-0.88,5.09,0.35,6,2.76
								l24.7,65.86c0.44,1.17,0.39,2.48-0.13,3.62c-0.53,1.14-1.49,2.02-2.67,2.44l-116.38,41.9
								C2562.33,1609.94,2561.79,1610.03,2561.27,1610.03z M2542.76,1542.63l21.27,56.72l107.56-38.72l-21.4-57.06l-32.58,11.85
								l3.08,7.7c0.47,1.17,0.45,2.48-0.06,3.64c-0.51,1.15-1.46,2.05-2.64,2.5l-37.24,13.97c-1.19,0.45-2.52,0.39-3.67-0.16
								c-1.15-0.55-2.03-1.54-2.43-2.75l-2.75-8.26L2542.76,1542.63z"/>
						</g>
						<g class="st6">
							<polygon class="st0" points="2552.14,1547.32 2574.3,1539.27 2571.89,1532.04 2542.76,1542.63 2564.03,1599.35 
								2570.75,1596.94 							"/>
						</g>
						<g class="st6">
							<path class="st0" d="M2620.63,1526.75c-0.51,1.15-1.47,2.05-2.64,2.5l-34.85,13.07l0.89,2.68c0.4,1.21,1.28,2.2,2.43,2.75
								c1.15,0.55,2.46,0.6,3.67,0.16l37.25-13.97c1.18-0.44,2.13-1.34,2.64-2.5c0.51-1.15,0.53-2.47,0.06-3.64l-3.08-7.7l25.87-9.4
								l-2.67-7.13l-32.58,11.84l3.08,7.7C2621.16,1524.28,2621.14,1525.6,2620.63,1526.75z"/>
						</g>
						<g>
							<polygon class="st5" points="2616.34,1524.85 2611.46,1512.66 2574.82,1525.99 2579.09,1538.82 							"/>
							<path class="st5" d="M2579.09,1543.51c-0.69,0-1.38-0.15-2.02-0.46c-1.15-0.55-2.03-1.54-2.43-2.75l-4.28-12.83
								c-0.8-2.41,0.46-5.02,2.85-5.89l36.64-13.32c2.38-0.87,5.02,0.31,5.96,2.67l4.88,12.19c0.47,1.17,0.45,2.48-0.06,3.64
								s-1.46,2.05-2.64,2.5l-37.24,13.97C2580.21,1543.41,2579.65,1543.51,2579.09,1543.51z M2580.71,1528.83l1.29,3.88l28.2-10.57
								l-1.41-3.52L2580.71,1528.83z"/>
						</g>
					</g>
				</g>
				<g class="st13">
					<path class="st5" d="M2676.16,1431.62c0,0,3.44,123.43-184.18,170.34l9.38,23.45l232.34-80.96l-40.02-116.05L2676.16,1431.62z"
						/>
				</g>
				<g class="st13">
					<path class="st3" d="M2726.51,1414.33c0,0,4.69,46.91-18.76,42.22l32.83,79.74l30.57-10.2L2726.51,1414.33z"/>
				</g>
			</g>
			<g>
				
					<ellipse transform="matrix(0.7563 -0.6543 0.6543 0.7563 -1403.8147 1604.8236)" class="st4" cx="1452.05" cy="2686.58" rx="206.92" ry="321.28"/>
				<path class="st5" d="M1559.75,2974.16c-43.42,0-91.25-13.23-138.32-38.26c-48.08-25.56-94.06-62.84-132.95-107.8
					c-57.31-66.25-94.6-143.06-105-216.28c-10.61-74.73,7.94-136.99,52.24-175.31c28.36-24.54,65.93-37.51,108.65-37.51
					c43.42,0,91.25,13.23,138.32,38.26c48.08,25.56,94.06,62.84,132.96,107.8c57.31,66.25,94.6,143.06,105,216.28
					c10.61,74.73-7.94,136.99-52.24,175.31C1640.03,2961.19,1602.46,2974.16,1559.75,2974.16z M1344.36,2417.77
					c-38.14,0-71.47,11.39-96.37,32.93c-39.3,34-55.62,90.29-45.94,158.48c9.9,69.7,45.62,143.09,100.61,206.64
					c74.48,86.09,172.99,139.57,257.09,139.57c38.14,0,71.47-11.39,96.37-32.93c39.3-34,55.62-90.29,45.94-158.48
					c-9.9-69.7-45.63-143.09-100.61-206.64C1526.97,2471.25,1428.46,2417.77,1344.36,2417.77z"/>
			</g>
			<g class="st11">
				<path class="st0" d="M1206.74,2632.63c-9.68-68.19,6.63-124.48,45.94-158.48c25.91-22.41,59.34-33.05,96.52-33.05
					c81.03,0,179.81,50.53,256.94,139.68c47.38,54.77,80.41,116.83,94.99,177.55c-10.98-68.01-46.18-139.15-99.68-201
					c-77.13-89.16-175.91-139.68-256.94-139.68c-37.18,0-70.61,10.63-96.52,33.05c-39.3,34-55.62,90.29-45.94,158.48
					c1.37,9.64,3.28,19.36,5.62,29.1C1207.37,2636.4,1207.01,2634.51,1206.74,2632.63z"/>
			</g>
			<g class="st13">
				<path class="st5" d="M1608.54,2551.2c-11.71-13.54-23.93-26.15-36.49-37.9c4.46,4.77,8.88,9.61,13.21,14.62
					c116.09,134.19,140.14,303.59,53.72,378.36c-77.71,67.23-218.25,35.02-330.2-69.7c115.05,122.96,270.28,164.95,353.48,92.98
					C1748.68,2854.79,1724.63,2685.39,1608.54,2551.2z"/>
			</g>
			<g class="st16">
				<path class="st18" d="M1883.19,2930.69c-2.22,1.41-4.5,2.8-6.82,4.15C1878.7,2933.48,1880.97,2932.1,1883.19,2930.69z"/>
				<path class="st3" d="M1876.37,2941.88c-2.42,0-4.78-1.25-6.09-3.49c-1.96-3.36-0.82-7.66,2.54-9.62l0,0l0,0c0,0,0,0,0,0
					c2.22-1.3,4.44-2.65,6.58-4.01c0,0,0,0,0,0l0,0c3.28-2.08,7.63-1.11,9.71,2.16c2.08,3.28,1.12,7.63-2.16,9.71
					c-2.31,1.47-4.68,2.91-7.06,4.3C1878.79,2941.57,1877.58,2941.88,1876.37,2941.88z"/>
			</g>
			<g class="st16">
				<path class="st18" d="M1883.27,2930.64c-0.01,0-0.01,0-0.02,0.01c-0.02,0.01-0.04,0.03-0.07,0.04
					C1883.22,2930.67,1883.24,2930.65,1883.27,2930.64z"/>
				<path class="st3" d="M1883.2,2937.72c-2.3,0-4.56-1.13-5.91-3.2c-2.11-3.24-1.21-7.57,2.01-9.7c0.06-0.04,0.15-0.1,0.2-0.13
					c0.33-0.21,0.68-0.39,1.05-0.54c0.06-0.02,0.12-0.05,0.18-0.07c3.34-1.29,7.13,0.13,8.79,3.33c1.69,3.26,0.59,7.26-2.52,9.2
					c-0.03,0.02-0.08,0.05-0.12,0.07C1885.73,2937.39,1884.46,2937.72,1883.2,2937.72z"/>
			</g>
			<g class="st16">
				<path class="st3" d="M1883.27,2930.64c-0.01,0-0.01,0-0.02,0.01c-0.02,0.01-0.04,0.03-0.07,0.04
					C1883.22,2930.67,1883.24,2930.65,1883.27,2930.64z"/>
			</g>
			<g class="st19">
				<path class="st0" d="M1450.57,2240.33l-1.27-0.74l-1.09-0.99c-16.58-15.07-32.82-31.87-48.27-49.92
					c-126.02-147.3-172.27-353.89-188.88-501.26c-5.37-47.67-8.07-92.4-9.22-131.72c-0.04-1.28-0.07-2.55-0.11-3.82
					c-0.06-2.34-0.12-4.66-0.17-6.96c-0.03-1.21-0.06-2.43-0.08-3.63c-0.07-3.19-0.12-6.35-0.17-9.46
					c-0.01-1.01-0.02-1.99-0.04-2.99c-0.03-2.3-0.06-4.59-0.08-6.84c-0.01-1.21-0.02-2.41-0.03-3.61c-0.01-2.3-0.02-4.57-0.03-6.82
					c0-0.87-0.01-1.75-0.01-2.61c0-2.87,0-5.68,0.01-8.45c0-1.16,0.01-2.3,0.02-3.44c0.01-1.86,0.03-3.7,0.05-5.52
					c0.01-1.09,0.02-2.19,0.03-3.26c0.03-2.59,0.07-5.15,0.11-7.65c0.02-0.91,0.03-1.78,0.05-2.67c0.03-1.8,0.07-3.59,0.11-5.33
					c0.02-1.03,0.05-2.05,0.07-3.06c0.04-1.7,0.08-3.37,0.13-5.01c0.02-0.83,0.04-1.68,0.07-2.5c0.06-2.23,0.13-4.4,0.2-6.53
					c0.03-0.91,0.06-1.79,0.09-2.68c0.05-1.4,0.1-2.78,0.15-4.13c0.03-0.87,0.07-1.75,0.1-2.61c0.07-1.69,0.14-3.33,0.21-4.94
					c0.04-0.92,0.08-1.8,0.12-2.69c0.06-1.32,0.12-2.63,0.18-3.88c0.04-0.73,0.07-1.45,0.11-2.16c0.06-1.17,0.12-2.3,0.18-3.41
					c0.03-0.63,0.07-1.28,0.1-1.9c0.08-1.48,0.16-2.9,0.24-4.26c0.04-0.7,0.08-1.36,0.12-2.03c0.05-0.81,0.1-1.6,0.14-2.36
					c0.04-0.63,0.08-1.26,0.12-1.86c0.06-0.85,0.11-1.65,0.16-2.44c0.05-0.74,0.1-1.45,0.15-2.13c0.05-0.69,0.1-1.38,0.14-2.01
					c0.03-0.45,0.07-0.88,0.1-1.3c0.04-0.56,0.08-1.08,0.12-1.58c0.03-0.33,0.05-0.68,0.08-0.98c0.05-0.7,0.11-1.33,0.15-1.89
					c0.02-0.3,0.04-0.55,0.07-0.81c0.03-0.33,0.05-0.65,0.08-0.92c0.02-0.19,0.03-0.38,0.05-0.54c0.03-0.33,0.06-0.66,0.08-0.86
					c0.33-8.29,0.76-16.51,1.23-24.69c0.15-2.62,0.34-5.22,0.51-7.83c0.36-5.57,0.74-11.12,1.16-16.63c0.23-3.01,0.49-6,0.74-9
					c0.43-5.14,0.89-10.26,1.38-15.35c0.29-3,0.58-6,0.9-8.99c0.54-5.23,1.13-10.43,1.73-15.61c0.31-2.7,0.62-5.4,0.95-8.08
					c0.78-6.29,1.62-12.54,2.49-18.76c0.21-1.48,0.39-2.98,0.6-4.45c1.11-7.7,2.3-15.34,3.56-22.92c0.32-1.91,0.67-3.8,0.99-5.71
					c0.96-5.64,1.95-11.26,3-16.84c0.49-2.59,1-5.17,1.5-7.75c0.96-4.9,1.94-9.78,2.96-14.62c0.56-2.68,1.14-5.36,1.72-8.03
					c1.06-4.83,2.15-9.62,3.26-14.39c0.59-2.5,1.16-5.01,1.77-7.5c1.29-5.33,2.64-10.61,4.01-15.87c0.48-1.83,0.93-3.67,1.41-5.49
					c1.9-7.11,3.86-14.17,5.9-21.15c0.24-0.84,0.51-1.66,0.76-2.49c1.8-6.08,3.64-12.12,5.55-18.11c0.68-2.13,1.39-4.24,2.08-6.36
					c1.53-4.69,3.09-9.37,4.69-14c0.82-2.36,1.65-4.71,2.48-7.06c1.57-4.43,3.18-8.84,4.82-13.22c0.85-2.29,1.71-4.57,2.58-6.85
					c1.78-4.64,3.61-9.24,5.46-13.82c0.76-1.88,1.51-3.78,2.28-5.65c2.65-6.4,5.35-12.75,8.14-19.03
					c32.82-73.9,75.44-139.33,127.74-195.93c32.07-34.7,65.23-63.21,97.51-86.57c-23.34,9.99-45.88,20.58-67.73,31.69
					c-20.95,18.05-41.94,38.43-62.41,61.48c-47,52.92-85.63,113.19-115.86,180.47c-7.68,17.09-20.35,31.45-36.6,40.75
					c-55.34,31.68-116.63,69.54-172.84,110.41c-81.17,181.5-87.95,382.29-69.64,551.24c49.98-45.12,115.17-89.95,173.7-126.63
					c11.38-7.14,26.26,0.36,27.25,13.76c2.09,28.34,5.08,58.69,9.28,90.33c19.47,146.67,69.65,351.81,198.14,496.13
					c15.72,17.66,32.22,34.06,49.03,48.74l0.92,0.8l1.06,0.6c1.9,1.06,101.42,57.4,203.46,147.12
					C1549.33,2298.88,1452.43,2241.42,1450.57,2240.33z"/>
			</g>
			<g>
				<polygon class="st15" points="965.88,1473.24 1219.74,1347.95 1210.43,1492.27 963.7,1603.99 				"/>
				<path class="st5" d="M963.7,1613.37c-1.8,0-3.6-0.52-5.15-1.54c-2.69-1.76-4.28-4.78-4.23-8l2.18-130.76
					c0.06-3.51,2.08-6.7,5.23-8.26l253.87-125.29c3-1.48,6.57-1.25,9.36,0.61c2.79,1.86,4.37,5.06,4.15,8.41l-9.31,144.31
					c-0.22,3.46-2.33,6.51-5.49,7.94l-246.73,111.73C966.34,1613.1,965.02,1613.37,963.7,1613.37z M975.16,1479.12l-1.83,110.22
					l228.11-103.29l7.9-122.49L975.16,1479.12z"/>
			</g>
			<g class="st13">
				<path class="st3" d="M2538.09,1775.43c3.13,15.11,1.49,16.43,4.26,32.05c8.08,0.77,12.54,1.77,12.54,1.77
					c128.26,40.5,198.25,101.54,236.09,151.84l4.66-69.25C2669.14,1794.86,2557.93,1775.57,2538.09,1775.43z"/>
			</g>
			<g>
				<defs>
					<polygon id="SVGID_1_" points="1201.43,1486.04 1209.34,1363.55 975.16,1479.12 973.33,1589.34 					"/>
				</defs>
				<clipPath id="SVGID_2_">
					<use xlink:href="#SVGID_1_"  style="overflow:visible;"/>
				</clipPath>
				<g class="st20">
					
						<rect x="1006.11" y="1216.57" transform="matrix(0.9806 0.1962 -0.1962 0.9806 315.1861 -175.9977)" class="st12" width="79.43" height="572.26"/>
				</g>
				<g class="st20">
					
						<rect x="1125.68" y="1213.72" transform="matrix(0.9806 0.1962 -0.1962 0.9806 316.4825 -194.7895)" class="st12" width="31.28" height="572.26"/>
				</g>
			</g>
			<g>
				<g>
					<path class="st21" d="M2828.94,1027.4c-16.45,0-31-5.52-42.08-15.97c-13.75-12.97-20.2-31.7-18.15-52.73
						c1.92-19.7,11.19-39.26,26.12-55.09c13.18-13.97,29.38-23.62,46.21-27.83l-28.02-92.08l-5.29-17.65
						c-5.02-16.78,4.54-34.51,21.32-39.54l188.56-56.46c2.97-0.89,6.04-1.34,9.12-1.34c14.1,0,26.31,9.07,30.39,22.57l47.67,157.59
						c6.45,13.26,8.05,29.44,4.49,45.74c-3.61,16.54-12.12,32.27-24.6,45.5c-18.11,19.2-41.84,30.2-65.1,30.2h0
						c-16.45,0-31-5.52-42.08-15.97c-13.75-12.97-20.2-31.7-18.15-52.73c1.92-19.7,11.19-39.26,26.12-55.09
						c13.19-13.99,29.43-23.65,46.28-27.84l-23.2-77.48c-0.23-0.77-0.96-0.98-1.3-0.98c-0.13,0-0.26,0.02-0.4,0.06l-129.27,38.71
						c-0.72,0.22-1.13,0.98-0.92,1.7l37.51,125.28c6.44,13.26,8.04,29.43,4.48,45.72c-3.62,16.54-12.12,32.27-24.6,45.5
						C2875.93,1016.39,2852.2,1027.4,2828.94,1027.4z"/>
				</g>
				<g>
					<g>
						<path class="st5" d="M3026.72,682.79c7.6,0,14.61,4.93,16.93,12.57l48.01,158.74c11.17,21.64,4.87,52.94-17.23,76.36
							c-15.9,16.85-36.35,25.79-54.86,25.79c-12.3,0-23.74-3.95-32.42-12.13c-21.74-20.51-17.91-59.88,8.55-87.93
							c15.72-16.66,35.89-25.59,54.24-25.79l-27.91-93.23c-2-6.69-8.14-11.02-14.79-11.02c-1.47,0-2.96,0.21-4.43,0.65
							l-129.27,38.71c-8.17,2.45-12.81,11.05-10.36,19.22l37.86,126.44c11.17,21.64,4.87,52.94-17.23,76.36
							c-15.9,16.85-36.35,25.79-54.86,25.79c-12.3,0-23.74-3.95-32.42-12.13c-21.74-20.51-17.91-59.88,8.55-87.93
							c15.72-16.66,35.89-25.59,54.24-25.79l-32.83-107.87l-5.27-17.59c-2.8-9.36,2.51-19.22,11.87-22.02l188.56-56.46
							C3023.33,683.03,3025.04,682.79,3026.72,682.79L3026.72,682.79z M3026.72,654.64c-4.45,0-8.88,0.65-13.15,1.93l-188.56,56.46
							c-24.21,7.25-38.01,32.84-30.76,57.05l5.27,17.59c0.01,0.04,0.02,0.08,0.04,0.12l24.04,78.98
							c-14.25,5.89-27.64,15.13-38.99,27.17c-17.06,18.09-27.68,40.59-29.89,63.38c-2.44,25.09,5.76,48.54,22.5,64.33
							c13.54,12.77,31.91,19.8,51.73,19.8c27.12,0,54.58-12.62,75.33-34.62c14.23-15.08,23.95-33.12,28.11-52.15
							c4.14-18.93,2.34-37.91-5.05-53.79l-33.56-112.08l104.93-31.42l15.64,52.24c-14.3,5.89-27.73,15.15-39.12,27.22
							c-17.06,18.08-27.68,40.59-29.89,63.38c-2.44,25.09,5.76,48.54,22.5,64.33c13.54,12.77,31.91,19.8,51.73,19.8
							c27.12,0,54.58-12.62,75.33-34.62c14.23-15.08,23.95-33.12,28.11-52.15c4.14-18.95,2.33-37.94-5.07-53.83l-47.36-156.58
							c-2.91-9.61-8.72-17.81-16.81-23.72C3045.86,657.7,3036.5,654.64,3026.72,654.64L3026.72,654.64z"/>
					</g>
				</g>
			</g>
			<g class="st6">
				<path class="st0" d="M3009.77,865.56c15.72-16.66,35.89-25.59,54.24-25.79l-27.91-93.23c-1.99-6.66-8.1-10.91-14.72-10.94
					c0.22,0.52,0.48,1.01,0.64,1.56l27.91,93.23c-18.35,0.2-38.52,9.12-54.24,25.79c-26.46,28.05-30.29,67.42-8.55,87.93
					c3.9,3.68,8.37,6.47,13.21,8.46C2979.64,931.83,2983.68,893.22,3009.77,865.56z"/>
			</g>
			<g class="st6">
				<path class="st0" d="M2819.14,922.64c15.72-16.66,35.89-25.59,54.24-25.79l-32.83-107.87l-5.27-17.59
					c-2.8-9.36,2.51-19.22,11.87-22.02l188.56-56.46c2.22-0.67,4.47-0.84,6.65-0.65c-3.85-7.36-12.47-11.2-20.72-8.73l-188.56,56.46
					c-9.36,2.8-14.67,12.66-11.87,22.02l5.27,17.59l32.83,107.87c-18.35,0.2-38.52,9.12-54.24,25.79
					c-26.47,28.05-30.29,67.42-8.55,87.93c3.9,3.68,8.37,6.47,13.21,8.46C2789.01,988.91,2793.05,950.3,2819.14,922.64z"/>
			</g>
			<g>
				<g>
					<path class="st15" d="M3014.82,1568.1c-39.37,0-71.53-19-83.92-49.58c-8.96-22.11-6.46-47.07,7.03-70.28
						c12.82-22.05,34.24-40.02,60.33-50.59c15.87-6.43,32.21-9.69,48.57-9.69c8.86,0,17.57,1.01,25.82,2.96l23.96-164.17
						c2.09-14.31,14.56-25.09,29-25.09c1.35,0,2.72,0.1,4.07,0.28l103.56,14.45c5.85,0.82,11.03,3.86,14.59,8.58
						c3.56,4.71,5.07,10.53,4.25,16.38l-4.2,30.08c-1.52,10.87-10.93,19.06-21.89,19.06h0c-1.02,0-2.05-0.07-3.06-0.21l-61.77-8.62
						l-25.23,180.85c0.53,18.82-6.23,38.54-19.12,55.68c-13.13,17.47-31.61,31.37-53.42,40.21
						C3047.51,1564.84,3031.17,1568.1,3014.82,1568.1z"/>
				</g>
				<g>
					<path class="st5" d="M3125.61,1215.74c0.7,0,1.41,0.05,2.13,0.15l27.85,3.89l75.71,10.56c4.4,0.61,7.47,4.68,6.85,9.08
						l-4.2,30.08c-0.56,4.02-4.01,6.93-7.96,6.93c-0.37,0-0.74-0.03-1.12-0.08l-67.28-9.39c-0.4-0.06-0.79-0.08-1.19-0.08
						c-4.18,0-7.83,3.08-8.42,7.34l-26.17,187.59c1.54,32.65-23.65,67.33-63.72,83.56c-14.51,5.88-29.29,8.66-43.29,8.66
						c-32.3,0-60.36-14.85-70.88-40.79c-15.07-37.19,11.61-83.09,59.6-102.54c14.5-5.88,29.29-8.66,43.29-8.66
						c13.51,0,26.28,2.6,37.33,7.51l26.38-180.76C3111.64,1221.21,3118.16,1215.74,3125.61,1215.74L3125.61,1215.74z
						 M3125.61,1187.59L3125.61,1187.59c-10.35,0-20.38,3.72-28.24,10.46c-7.95,6.82-13.17,16.29-14.68,26.67l-21.88,149.93
						c-4.6-0.5-9.28-0.76-13.98-0.76c-18.18,0-36.3,3.61-53.86,10.72c-28.96,11.74-52.83,31.82-67.21,56.56
						c-7.43,12.79-12,26.2-13.57,39.87c-1.71,14.87,0.2,29.26,5.67,42.76c7.5,18.51,21.18,33.75,39.56,44.09
						c16.61,9.34,36.46,14.28,57.4,14.28c18.18,0,36.3-3.61,53.86-10.72c24.18-9.8,44.72-25.29,59.38-44.8
						c14.52-19.31,22.26-41.68,21.96-63.3l23.13-165.81l47.84,6.67c1.66,0.23,3.34,0.35,5.01,0.35c17.94,0,33.35-13.41,35.83-31.18
						l4.2-30.09c1.34-9.57-1.14-19.09-6.96-26.81c-5.82-7.71-14.3-12.7-23.88-14.03l-75.71-10.56l-27.85-3.89
						C3129.64,1187.74,3127.62,1187.59,3125.61,1187.59L3125.61,1187.59L3125.61,1187.59z"/>
				</g>
			</g>
			<g class="st6">
				<path class="st0" d="M2953.32,1522.62c-15.07-37.19,11.61-83.09,59.6-102.54c28.5-11.55,58.11-11.16,80.61-1.15l26.38-180.76
					c1.21-8.3,8.9-14.07,17.2-12.91l27.85,3.89l73.19,10.21c0.58-4.38-2.47-8.42-6.86-9.03l-75.71-10.56l-27.85-3.89
					c-8.31-1.16-15.99,4.61-17.2,12.91l-26.39,180.76c-22.5-10.01-52.11-10.4-80.61,1.15c-47.99,19.44-74.67,65.35-59.6,102.54
					c3.86,9.52,10.11,17.53,18.04,23.87C2958.45,1532.75,2955.48,1527.95,2953.32,1522.62z"/>
			</g>
			<g>
				<g>
					<path class="st14" d="M3292.37,1116.6c-20.9,0-40.99-5.81-56.58-16.36c-16.7-11.31-27.53-27.53-30.48-45.67
						c-3.4-20.91,3.65-41.99,19.86-59.38c15.29-16.4,37.13-27.62,61.51-31.58c6.29-1.02,12.66-1.54,18.94-1.54
						c15.76,0,30.9,3.25,44.07,9.33l48.55-128.06c4.55-11.99,16.21-20.05,29.04-20.05c3.76,0,7.47,0.68,11,2.02l78.46,29.75
						c6.1,2.31,10.94,6.86,13.62,12.82c2.68,5.95,2.88,12.59,0.57,18.69l-6.86,18.09c-3.58,9.43-12.76,15.77-22.85,15.77h0
						c-2.96,0-5.88-0.53-8.66-1.59l-45.28-17.17l-55.08,145.27c-3.28,16.3-12.95,31.91-27.35,44.1
						c-14.65,12.4-33.17,20.71-53.55,24.02C3305.02,1116.09,3298.65,1116.6,3292.37,1116.6z"/>
				</g>
				<g>
					<path class="st5" d="M3427.28,837.36c2,0,4.03,0.36,6.02,1.11l20.03,7.59l58.43,22.16c5.35,2.03,8.04,8.01,6.01,13.36
						l-6.86,18.09c-1.57,4.14-5.51,6.69-9.69,6.69c-1.22,0-2.46-0.22-3.67-0.68l-45.57-17.28c-1.61-0.61-3.25-0.9-4.87-0.9
						c-5.55,0-10.78,3.38-12.87,8.88l-55.63,146.72c-4.96,27.75-32.77,52.09-69.56,58.07c-5.65,0.92-11.23,1.36-16.68,1.36
						c-37.12,0-68.32-20.44-73.16-50.22c-5.55-34.15,25.67-67.64,69.73-74.81c5.64-0.92,11.23-1.36,16.68-1.36
						c19.84,0,37.98,5.84,51.32,15.82l54.46-143.64C3413.98,841.54,3420.43,837.36,3427.28,837.36L3427.28,837.36z M3427.28,809.22
						L3427.28,809.22c-18.63,0-35.59,11.71-42.19,29.13l-43.57,114.92c-11.31-3.46-23.45-5.27-35.89-5.27
						c-7.03,0-14.16,0.58-21.2,1.72c-27.44,4.46-52.14,17.2-69.54,35.87c-9.06,9.72-15.75,20.59-19.86,32.28
						c-4.5,12.79-5.71,25.9-3.59,38.95c3.58,22,16.53,41.56,36.47,55.06c17.89,12.11,40.78,18.78,64.46,18.78
						c7.03,0,14.16-0.58,21.2-1.72c22.9-3.72,43.78-13.12,60.38-27.17c16.48-13.94,27.69-31.91,31.8-50.88l49.7-131.09l32.12,12.18
						c4.38,1.66,8.97,2.5,13.65,2.5c15.9,0,30.37-9.99,36-24.86l6.86-18.09c3.65-9.62,3.33-20.08-0.89-29.45
						c-4.22-9.38-11.84-16.55-21.46-20.2l-58.43-22.16l-20.03-7.59C3438.14,810.21,3432.76,809.22,3427.28,809.22L3427.28,809.22
						L3427.28,809.22z"/>
				</g>
			</g>
			<g class="st6">
				<path class="st0" d="M3223.9,1066.38c-5.55-34.15,25.67-67.64,69.73-74.81c26.18-4.26,51,1.73,68,14.46l54.46-143.64
					c3.33-8.77,13.13-13.18,21.9-9.86l20.03,7.59l58.44,22.15c0.32,0.12,0.59,0.3,0.88,0.44l0.44-1.15
					c2.03-5.35-0.66-11.33-6.01-13.36l-58.44-22.15l-20.03-7.59c-8.77-3.32-18.57,1.09-21.9,9.86l-54.46,143.64
					c-17-12.73-41.82-18.72-68-14.46c-44.07,7.17-75.29,40.66-69.73,74.81c0.82,5.07,2.49,9.82,4.74,14.29
					C3223.94,1066.53,3223.92,1066.46,3223.9,1066.38z"/>
			</g>
			<g class="st13">
				<path class="st5" d="M2162.15,2313.27c-34.73-50.58-97.79-131.68-134.54-171.89c37.81,60.88,215.77,323.65,47.93,415.11
					l-1.08-0.63c0,0,0.07,0.33,0.19,0.9c-2.2,0.7-4.39,1.39-6.68,2.03c0,0,3.89,6.02,9.86,16.67c9.16,62.53,24.5,254.74-128.1,278
					c13.76-32.36,17.48-68.26,15.24-103.97c-0.79,11.67-2.39,23.22-4.94,34.52c-10.23,45.29-54.93,74.53-100.53,65.8l-0.75-0.14
					c0,0,2.06,29.18-15.23,63.67c-3.71,1.45-7.48,2.88-11.39,4.22c-8.26,14.03-17.78,28.07-28.66,42.11c0,0-2.27,2.84-6.94,7.15
					c1.64-0.49,3.19-0.97,4.65-1.44c-21.38,17.43-50.61,33.15-90.7,43.92c0,0,92.58,28.11,183.5,27.56
					c81.51-3.62,112.61-21.85,150.67-51.45c3.48-2.84,6.8-5.75,10.03-8.69c9.57,6.22,14.79,9.55,14.79,9.55
					c132.99-39.9,186.19-252.69,186.19-252.69C2321.6,2527.4,2162.15,2313.27,2162.15,2313.27z"/>
			</g>
			<g class="st13">
				<path class="st5" d="M1434.24,2176.56c0,0,94.39,68.46,141.01,74.1c0,0,47.15,10.33,100.56,54.89c0,0-37.52,56.29,131.34,225.15
					l-213.42-199.35l-141.61-106.8L1434.24,2176.56z"/>
			</g>
			<g class="st13">
				<path class="st5" d="M1627.24,2747.6c-5.45-44.68-27.17-91.68-61.16-132.36c-71.36-85.38-175.83-116.05-232.89-68.36
					c-57.06,47.69-45.42,155.95,25.94,241.33c33.99,40.67,76.39,70.39,119.4,83.68c16.23,5.02,31.87,7.5,46.57,7.5
					c25.87,0,48.82-7.7,66.92-22.83C1620.4,2832.85,1632.91,2794.15,1627.24,2747.6z"/>
			</g>
			<g>
				
					<ellipse transform="matrix(0.7673 -0.6413 0.6413 0.7673 -1382.3783 1556.2223)" class="st14" cx="1453.22" cy="2682.97" rx="123.13" ry="190.08"/>
				<path class="st5" d="M1515.56,2860.58c-55.31,0-118.85-34.92-165.82-91.13c-33.99-40.67-55.71-87.68-61.16-132.36
					c-5.67-46.54,6.84-85.24,35.23-108.97c17.82-14.89,41.01-22.76,67.07-22.76c55.31,0,118.85,34.92,165.82,91.13
					c33.99,40.67,55.71,87.68,61.16,132.36c5.67,46.54-6.84,85.24-35.23,108.97C1564.81,2852.71,1541.62,2860.58,1515.56,2860.58z
					 M1390.87,2528.81c-20.78,0-38.29,5.82-52.03,17.31c-22.08,18.46-31.67,49.76-26.99,88.14c4.91,40.24,24.75,82.92,55.88,120.16
					c42.64,51.02,99.28,82.71,147.83,82.71c20.78,0,38.29-5.82,52.03-17.31c22.08-18.46,31.67-49.76,26.99-88.14
					c-4.91-40.24-24.75-82.91-55.88-120.16C1496.06,2560.51,1439.42,2528.81,1390.87,2528.81z"/>
			</g>
			<g class="st13">
				<path class="st5" d="M1547.7,2604.01c-31.52-37.71-69.51-64.32-106.36-77.5c14.28,11.43,28.01,24.8,40.69,39.97
					c67.32,80.55,79.59,181.2,27.41,224.81c-27.75,23.19-68.15,25.58-110.01,10.61c61.54,49.24,133.33,62.31,175.68,26.91
					C1627.29,2785.21,1615.02,2684.56,1547.7,2604.01z"/>
			</g>
			<g class="st6">
				<path class="st0" d="M1391.19,2773.17c-63.06-75.46-76.02-168.9-28.89-208.29c14.21-11.88,32.28-17.51,52.34-17.51
					c29.82,0,63.99,12.51,96.3,35.38c-38.65-34.75-82.58-54.14-119.76-54.14c-20.05,0-38.12,5.63-52.34,17.51
					c-47.14,39.39-34.18,132.84,28.89,208.29c15.57,18.63,32.98,34.72,51.34,47.65C1409.3,2793.3,1399.94,2783.66,1391.19,2773.17z"
					/>
			</g>
			<g class="st13">
				<path class="st5" d="M1856.4,2847.32c0,0-76.18,110.73-183.5,69.44c0,0-65.1,75.97-201.13,47.83c0,0,178.77,97.81,305.16,16.07
					C1776.92,2980.66,1856.4,2884.85,1856.4,2847.32z"/>
			</g>
			<g class="st13">
				<path class="st5" d="M1526.43,880.04c0,0,330.28-88.09,685.44,251.25c0,0,327.02,29.85,482.98,317.11
					c0,0-214.03-601.8-753.74-673.24C1941.11,775.15,1707.74,732.71,1526.43,880.04z"/>
			</g>
			<g class="st13">
				<path class="st5" d="M2667.09,1952.53c0,0-8.27,411.44-225.37,476.04c0,0-64.66,137.31-172.54,156.07
					c0,0,15.21,129.9-25.23,170.49c0,0,240.52-33.28,395.55-420.85C2639.49,2334.29,2703.83,2056.85,2667.09,1952.53z"/>
			</g>
			<g class="st13">
				<path class="st5" d="M2222.67,2867.98c5.57,1.49,67.04,16.78,152.02-11.07c82.34-26.98,204.31-101.13,317.74-301.13
					c4.98-8.78,10.15-17.43,15.36-25.7c34.28-54.4,142.18-250.75,91.45-493.11c-0.03-0.14-0.05-0.28-0.08-0.42
					c-0.16-0.89-10.63-55.3-70.18-115.29c0-0.01,0-0.02,0-0.03c3.92,33.11-2.22,79.52-54.07,112.26c0,0,22.48,154.78-41.83,321.28
					c-0.02,0.97-0.13,1.94-0.39,2.88c-0.9,3.27-22.82,81-84.64,174.57c-56.16,85-157.09,198.82-320.19,262.41l-21.18,68.07
					l0.48-1.54C2212.24,2863.55,2217.39,2865.85,2222.67,2867.98z"/>
			</g>
			<g>
				<path class="st5" d="M1537.43,2683.15c0,0,0.29,0.58,0.74,1.69c0.44,1.12,1.11,2.76,1.8,4.89c0.7,2.13,1.47,4.74,2.21,7.78
					c0.75,3.04,1.42,6.5,2,10.32c0.29,1.91,0.5,3.91,0.73,5.99c0.17,2.08,0.36,4.23,0.43,6.46c0.05,1.11,0.09,2.24,0.11,3.39
					c-0.01,1.15-0.02,2.31-0.03,3.48c0.04,2.35-0.21,4.75-0.33,7.2c-0.22,2.45-0.47,4.93-0.86,7.44c-0.2,1.26-0.41,2.52-0.62,3.79
					c-0.19,1.27-0.55,2.53-0.82,3.8c-0.54,2.55-1.25,5.1-2.05,7.63c-0.36,1.28-0.85,2.52-1.31,3.78c-0.47,1.25-0.9,2.52-1.41,3.76
					l-1.68,3.67c-0.28,0.61-0.55,1.22-0.85,1.83l-0.96,1.78c-0.64,1.19-1.28,2.37-1.95,3.53c-0.71,1.14-1.47,2.25-2.21,3.36
					c-2.9,4.49-6.47,8.43-10.07,12.01c-0.91,0.88-1.91,1.67-2.84,2.49c-0.95,0.81-1.88,1.62-2.84,2.37
					c-2.01,1.38-3.94,2.78-5.88,4.02c-2.03,1.11-3.98,2.2-5.88,3.2c-1.97,0.88-3.89,1.66-5.72,2.41c-0.46,0.18-0.91,0.36-1.36,0.54
					c-0.46,0.16-0.92,0.29-1.37,0.43c-0.91,0.27-1.78,0.55-2.65,0.79c-0.86,0.24-1.69,0.48-2.51,0.71c-0.41,0.11-0.8,0.24-1.2,0.32
					c-0.4,0.07-0.8,0.15-1.19,0.22c-1.57,0.28-3.01,0.56-4.36,0.76c-0.67,0.11-1.31,0.21-1.93,0.31c-0.61,0.11-1.22,0.1-1.78,0.15
					c-2.25,0.17-4.02,0.21-5.21,0.27c-1.2,0.05-1.83,0.04-1.83,0.04s0.57-0.31,1.65-0.83c1.08-0.51,2.64-1.31,4.63-2.2
					c0.49-0.24,1.02-0.45,1.56-0.74c0.53-0.29,1.09-0.59,1.66-0.9c1.15-0.64,2.4-1.27,3.72-1.97c1.34-0.64,2.66-1.56,4.08-2.4
					c0.7-0.44,1.43-0.87,2.17-1.31c0.37-0.22,0.75-0.43,1.12-0.68c0.36-0.26,0.72-0.52,1.08-0.79c1.45-1.06,3-2.07,4.53-3.21
					c1.47-1.23,3-2.45,4.55-3.72c1.45-1.37,2.94-2.77,4.46-4.2c1.38-1.57,2.86-3.08,4.27-4.7c0.66-0.85,1.31-1.72,2-2.56
					c0.68-0.85,1.39-1.68,1.98-2.62c1.21-1.85,2.55-3.62,3.64-5.6c0.57-0.97,1.16-1.93,1.72-2.92c0.5-1.02,1.03-2.03,1.56-3.05
					l0.8-1.52c0.25-0.52,0.46-1.05,0.7-1.58l1.39-3.16c1.74-4.28,3.31-8.67,4.55-13.13c0.66-2.21,1.19-4.46,1.75-6.68
					c0.3-1.1,0.49-2.23,0.73-3.33c0.21-1.11,0.5-2.2,0.7-3.3c0.38-2.21,0.81-4.37,1.13-6.53c0.17-1.07,0.34-2.14,0.5-3.19
					c0.13-1.06,0.26-2.1,0.41-3.13c0.55-4.13,0.94-8.08,1.26-11.75c0.16-1.84,0.3-3.6,0.41-5.29c0.15-1.69,0.21-3.29,0.31-4.81
					c0.19-3.03,0.3-5.68,0.4-7.89c0.07-2.2,0.18-3.95,0.19-5.14C1537.41,2683.79,1537.43,2683.15,1537.43,2683.15z"/>
			</g>
			<g class="st13">
				<path class="st3" d="M2900.06,893.68c0,0-30.75,104.64-116.62,85.29c-8.08-1.82-13.36,8.26-7.29,13.9
					c24.08,22.37,65.31,47.2,107.5,11.04C2883.64,1003.91,2935.24,933.55,2900.06,893.68z"/>
			</g>
			<g class="st13">
				<path class="st3" d="M3090.28,835.58c0,0-27.37,105.58-113.82,89c-8.14-1.56-13.09,8.69-6.84,14.13
					c24.79,21.59,66.79,45.08,107.8,7.57C3077.42,946.28,3126.72,874.3,3090.28,835.58z"/>
			</g>
			<g class="st11">
				
					<ellipse transform="matrix(0.646 -0.7633 0.7633 0.646 292.2734 2497.8875)" class="st0" cx="2839.4" cy="933.81" rx="24.65" ry="15.73"/>
			</g>
			<g class="st11">
				
					<ellipse transform="matrix(0.646 -0.7633 0.7633 0.646 404.9728 2628.3406)" class="st0" cx="3036.4" cy="877.52" rx="24.65" ry="15.73"/>
			</g>
			<g class="st11">
				
					<ellipse transform="matrix(0.866 -0.5 0.5 0.866 -73.8684 1779.8091)" class="st0" cx="3284.23" cy="1027.74" rx="31.91" ry="20.37"/>
			</g>
			<g class="st11">
				
					<ellipse transform="matrix(0.866 -0.5 0.5 0.866 -325.8168 1702.8138)" class="st0" cx="3014.59" cy="1459.39" rx="33.95" ry="21.66"/>
			</g>
			<g class="st13">
				<path class="st3" d="M3209.64,1057.85c0,0,112.57,46.91,192.32-65.67l-30.49,100.85
					C3371.47,1093.03,3244.82,1163.39,3209.64,1057.85z"/>
			</g>
			<g class="st13">
				<path class="st3" d="M3134.59,1419.03c0,0-89.12,126.65-215.77,79.74c0,0,53.94,100.85,152.45,49.25
					C3071.27,1548.02,3151.01,1496.42,3134.59,1419.03z"/>
			</g>
			<g class="st13">
				<path class="st5" d="M2923.51,2432.2c0,0-107.88,178.24-192.32,131.34c0,0-126.18,257.7-319.9,315.3
					C2411.3,2878.84,2845.92,2803.35,2923.51,2432.2z"/>
			</g>
		</g>
	</g>
</g>
</svg>
